<svg width="20" height="15" viewBox="0 0 20 15" fill="none" xmlns="http://www.w3.org/2000/svg">
<path d="M0 0H20V15H0V0Z" fill="#171796"/>
<path d="M0 0H20V10H0V0Z" fill="white"/>
<path d="M0 0H20V5H0V0ZM10 11.3781C11.6031 11.3781 12.9156 10.0656 12.9156 8.4625V5H7.08437V8.4625C7.08437 10.0687 8.39688 11.3813 10 11.3813V11.3781Z" fill="#FF0000"/>
<path d="M10 11.3313C10.7581 11.3296 11.4848 11.0279 12.0212 10.4922C12.5575 9.95636 12.86 9.23003 12.8625 8.4719V5.05627H7.14062V8.46878C7.1431 9.22637 7.44515 9.95223 7.98085 10.4879C8.51655 11.0236 9.24241 11.3257 10 11.3282V11.3313Z" fill="white"/>
<path d="M8.34688 5.16248H7.25V6.37185H8.35L8.34688 5.16248ZM8.34688 7.58123H9.45V6.37185H8.34375L8.34688 7.58123ZM7.25 8.4656C7.25 8.57498 7.25625 8.68435 7.26875 8.7906H8.35V7.58123H7.25V8.4656ZM10.5531 7.58123H9.45312V8.7906H10.5531V7.58123ZM10.5531 9.99998H11.6531V8.7906H10.5531V9.99998ZM11.6531 10.6625C11.8975 10.4777 12.1097 10.2538 12.2812 9.99998H11.6562V10.6625H11.6531ZM8.34688 9.99998H9.45V8.7906H8.34375L8.34688 9.99998ZM7.71875 9.99998C7.89029 10.2538 8.10251 10.4777 8.34688 10.6625V9.99998H7.71875ZM10.1906 11.2094C10.3156 11.2 10.4313 11.1844 10.55 11.1594V9.99998H9.45V11.1594C9.56752 11.1839 9.68653 11.2006 9.80625 11.2094C9.93437 11.2187 10.0625 11.2156 10.1906 11.2094Z" fill="#FF0000"/>
<path d="M12.7312 8.7906C12.7437 8.68435 12.7499 8.57497 12.7499 8.4656V7.58122H11.6499V8.7906H12.7312ZM10.55 7.58122H11.6499V6.37185H10.55V7.58122ZM10.55 5.16248H9.44995V6.37185H10.55V5.16248ZM12.7499 6.37185V5.16248H11.6499V6.37185H12.7499Z" fill="#FF0000"/>
</svg>
