<svg width="20" height="15" viewBox="0 0 20 15" fill="none" xmlns="http://www.w3.org/2000/svg">
<g clip-path="url(#clip0_5309:185352)">
<path fill-rule="evenodd" clip-rule="evenodd" d="M-3.125 0H23.125V15H-3.125V0Z" fill="white"/>
<path fill-rule="evenodd" clip-rule="evenodd" d="M-3.125 10.0723H23.125V15H-3.125V10.0723Z" fill="#DA0000"/>
<path fill-rule="evenodd" clip-rule="evenodd" d="M-3.125 0H23.125V4.92773H-3.125V0Z" fill="#239F40"/>
<path fill-rule="evenodd" clip-rule="evenodd" d="M10.6974 5.78613C10.9435 6.09082 11.7081 7.7666 10.2374 8.86816C9.54307 9.38965 9.97373 9.41308 9.99424 9.50097C11.1075 8.91211 11.4679 8.10937 11.4591 7.3916C11.4532 6.67676 11.0724 6.04395 10.6974 5.78613Z" fill="#DA0000"/>
<path fill-rule="evenodd" clip-rule="evenodd" d="M10.8438 5.70703C11.1157 5.87243 11.3473 6.09616 11.5221 6.36206C11.6969 6.62795 11.8103 6.92936 11.8544 7.24449C11.8984 7.55962 11.8718 7.88059 11.7766 8.18419C11.6814 8.4878 11.5199 8.76645 11.3038 9C12.1007 8.82422 13.1202 6.46875 10.8438 5.70703V5.70703ZM9.15634 5.70703C8.88473 5.87268 8.65333 6.0966 8.47884 6.36262C8.30436 6.62863 8.19116 6.93009 8.14742 7.2452C8.10369 7.56032 8.13051 7.88121 8.22596 8.18469C8.3214 8.48817 8.48308 8.76665 8.69931 9C7.8995 8.82422 6.8829 6.46875 9.15634 5.70703V5.70703Z" fill="#DA0000"/>
<path fill-rule="evenodd" clip-rule="evenodd" d="M9.30301 5.78613C9.05692 6.09082 8.29227 7.7666 9.76297 8.86816C10.4544 9.38965 10.0266 9.41308 10.0061 9.50097C8.89286 8.91211 8.5325 8.10937 8.54129 7.3916C8.54715 6.67676 8.92801 6.04395 9.30301 5.78613Z" fill="#DA0000"/>
<path fill-rule="evenodd" clip-rule="evenodd" d="M11.4121 9.34863C10.9756 9.35449 10.4277 9.29004 10.0205 9.07617C10.0879 9.20801 10.1436 9.29004 10.2109 9.41895C10.5977 9.45703 11.1338 9.50098 11.4121 9.34863ZM8.62891 9.34863C9.06543 9.35449 9.61328 9.29004 10.0205 9.07617C9.95312 9.20801 9.89746 9.29004 9.83008 9.41895C9.44336 9.45703 8.90723 9.50098 8.62891 9.34863ZM9.42871 5.28516C9.5166 5.51953 9.74805 5.55469 9.99414 5.41699C10.1758 5.52246 10.4541 5.53125 10.5508 5.29688C10.624 5.87695 10.0146 5.73633 9.99414 5.625C9.76562 5.84473 9.34375 5.71875 9.42871 5.28516Z" fill="#DA0000"/>
<path fill-rule="evenodd" clip-rule="evenodd" d="M10.0117 9.71484L10.2402 9.45117L10.2725 5.93262L10 5.69238L9.72754 5.9209L9.7832 9.46582L10.0117 9.71484Z" fill="#DA0000"/>
</g>
<defs>
<clipPath id="clip0_5309:185352">
<rect width="20" height="15" fill="white"/>
</clipPath>
</defs>
</svg>
