<svg width="20" height="15" viewBox="0 0 20 15" fill="none" xmlns="http://www.w3.org/2000/svg">
<path fill-rule="evenodd" clip-rule="evenodd" d="M0 0H20V15H0V0Z" fill="#229E45"/>
<path fill-rule="evenodd" clip-rule="evenodd" d="M10.0436 13.625L19.4654 7.50938L9.98731 1.375L0.53418 7.52187L10.0436 13.625Z" fill="#F8E509"/>
<path fill-rule="evenodd" clip-rule="evenodd" d="M14.15 7.5C14.15 9.69687 12.3656 11.4781 10.1625 11.4781C9.37522 11.4769 8.60598 11.2423 7.95202 10.8039C7.29806 10.3656 6.78875 9.74315 6.48847 9.01538C6.18819 8.28761 6.11042 7.48715 6.26499 6.71519C6.41957 5.94323 6.79955 5.23443 7.3569 4.6784C7.91425 4.12236 8.62394 3.74405 9.39626 3.59129C10.1686 3.43853 10.9689 3.51818 11.6959 3.82018C12.423 4.12217 13.0442 4.63295 13.481 5.28793C13.9178 5.94292 14.1506 6.71271 14.15 7.5V7.5Z" fill="#2B49A3"/>
<path fill-rule="evenodd" clip-rule="evenodd" d="M13.8875 8.93119C13.9649 8.73031 14.0255 8.52335 14.0688 8.31244C11.95 6.45307 9.59063 5.49994 6.60938 5.69682C6.50125 5.90604 6.41234 6.12465 6.34375 6.34994C9.875 6.01244 12.4687 7.57494 13.8875 8.93119Z" fill="white"/>
</svg>
