<svg width="388" height="388" viewBox="0 0 388 388" fill="none" xmlns="http://www.w3.org/2000/svg">
<path d="M203.661 315.804H17.9642C8.49661 315.804 0.793945 308.102 0.793945 298.634V186.619C0.793945 177.152 8.49661 169.449 17.9642 169.449H203.661C213.129 169.449 220.832 177.152 220.832 186.619V298.634C220.832 308.102 213.129 315.804 203.661 315.804ZM17.9642 170.382C9.01079 170.382 1.72689 177.666 1.72689 186.619V298.634C1.72689 307.587 9.01079 314.871 17.9642 314.871H203.661C212.614 314.871 219.899 307.587 219.899 298.634V186.619C219.899 177.666 212.614 170.382 203.661 170.382H17.9642Z" fill="white"/>
<path d="M220.31 289.452H1.315C1.05748 289.452 0.848633 289.243 0.848633 288.985C0.848633 288.727 1.05748 288.519 1.315 288.519H220.31C220.568 288.519 220.777 288.727 220.777 288.985C220.777 289.243 220.568 289.452 220.31 289.452Z" fill="white"/>
<path d="M147.616 354.162H74.0086C73.8712 354.162 73.7407 354.101 73.652 353.996C73.5633 353.891 73.5257 353.753 73.5485 353.617L80.0618 315.26C80.0999 315.035 80.2941 314.871 80.5216 314.871H141.102C141.33 314.871 141.524 315.035 141.562 315.26L148.076 353.617C148.099 353.753 148.061 353.891 147.972 353.996C147.884 354.101 147.753 354.162 147.616 354.162ZM74.5608 353.229H147.063L140.708 315.804H80.9158L74.5608 353.229Z" fill="white"/>
<path d="M157.52 361.615H64.1066C61.797 361.615 59.918 359.736 59.918 357.427C59.918 355.107 61.797 353.229 64.1066 353.229H157.52C159.829 353.229 161.708 355.107 161.708 357.417C161.708 359.736 159.829 361.615 157.52 361.615ZM64.1066 354.162C62.3116 354.162 60.8511 355.622 60.8511 357.417C60.8511 359.221 62.3116 360.682 64.1066 360.682H157.52C159.315 360.682 160.775 359.221 160.775 357.426C160.775 355.622 159.315 354.161 157.52 354.161L64.1066 354.162Z" fill="white"/>
<path d="M110.812 305.79C108.923 305.79 107.386 304.25 107.386 302.356C107.386 300.463 108.923 298.922 110.812 298.922C112.702 298.922 114.239 300.463 114.239 302.356C114.239 304.25 112.702 305.79 110.812 305.79ZM110.812 299.855C109.437 299.855 108.319 300.977 108.319 302.356C108.319 303.735 109.437 304.857 110.812 304.857C112.187 304.857 113.306 303.735 113.306 302.356C113.305 300.977 112.187 299.855 110.812 299.855Z" fill="white"/>
<path d="M387.161 349.419H225.366C225.108 349.419 224.899 349.21 224.899 348.952V20.1277C224.899 19.8697 225.108 19.6611 225.366 19.6611H387.161C387.419 19.6611 387.627 19.8697 387.627 20.1277V348.952C387.627 349.21 387.418 349.419 387.161 349.419ZM225.832 348.486H386.694V20.5943H225.832V348.486Z" fill="white"/>
<path d="M369.433 78.1332H243.094C242.836 78.1332 242.627 77.9245 242.627 77.6666V43.4073C242.627 43.1496 242.836 42.9409 243.094 42.9409H369.433C369.691 42.9409 369.899 43.1496 369.899 43.4073V77.6668C369.899 77.9245 369.691 78.1332 369.433 78.1332ZM243.56 77.2002H368.967V43.8736H243.56V77.2002Z" fill="white"/>
<path d="M369.433 126.875H243.094C242.836 126.875 242.627 126.667 242.627 126.409V92.1496C242.627 91.8916 242.836 91.683 243.094 91.683H369.433C369.691 91.683 369.899 91.8916 369.899 92.1496V126.409C369.899 126.667 369.691 126.875 369.433 126.875ZM243.56 125.942H368.967V92.6159H243.56V125.942Z" fill="white"/>
<path d="M369.433 175.618H243.094C242.836 175.618 242.627 175.409 242.627 175.151V140.892C242.627 140.634 242.836 140.425 243.094 140.425H369.433C369.691 140.425 369.899 140.634 369.899 140.892V175.151C369.899 175.409 369.691 175.618 369.433 175.618ZM243.56 174.685H368.967V141.358H243.56V174.685Z" fill="white"/>
<path d="M369.433 224.36H243.094C242.836 224.36 242.627 224.151 242.627 223.894V189.634C242.627 189.376 242.836 189.167 243.094 189.167H369.433C369.691 189.167 369.899 189.376 369.899 189.634V223.894C369.899 224.151 369.691 224.36 369.433 224.36ZM243.56 223.427H368.967V190.1H243.56V223.427Z" fill="white"/>
<path d="M369.433 273.102H243.094C242.836 273.102 242.627 272.894 242.627 272.636V238.376C242.627 238.118 242.836 237.909 243.094 237.909H369.433C369.691 237.909 369.899 238.118 369.899 238.376V272.636C369.899 272.894 369.691 273.102 369.433 273.102ZM243.56 272.169H368.967V238.842H243.56V272.169Z" fill="white"/>
<path d="M369.433 321.845H243.094C242.836 321.845 242.627 321.636 242.627 321.378V287.118C242.627 286.86 242.836 286.652 243.094 286.652H369.433C369.691 286.652 369.899 286.86 369.899 287.118V321.378C369.899 321.636 369.691 321.845 369.433 321.845ZM243.56 320.912H368.967V287.585H243.56V320.912Z" fill="white"/>
<path d="M254.574 52.4113H249.962V71.5177H254.574V52.4113Z" fill="white"/>
<path d="M263.431 56.657H258.819V71.5177H263.431V56.657Z" fill="white"/>
<path d="M272.29 52.4113H267.678V71.5177H272.29V52.4113Z" fill="white"/>
<path d="M281.147 56.657H276.535V71.5177H281.147V56.657Z" fill="white"/>
<path d="M290.115 52.4113H285.503V71.5177H290.115V52.4113Z" fill="white"/>
<path d="M298.972 56.657H294.36V71.5177H298.972V56.657Z" fill="white"/>
<path d="M307.831 52.4113H303.219V71.5177H307.831V52.4113Z" fill="white"/>
<path d="M316.688 56.657H312.076V71.5177H316.688V56.657Z" fill="white"/>
<path d="M325.509 52.4113H320.897V71.5177H325.509V52.4113Z" fill="white"/>
<path d="M334.367 56.657H329.755V71.5177H334.367V56.657Z" fill="white"/>
<path d="M343.225 52.4113H338.613V71.5177H343.225V52.4113Z" fill="white"/>
<path d="M352.083 56.657H347.471V71.5177H352.083V56.657Z" fill="white"/>
<path d="M360.941 56.657H356.329V71.5177H360.941V56.657Z" fill="white"/>
<path d="M254.574 100.873H249.962V119.979H254.574V100.873Z" fill="white"/>
<path d="M263.431 105.119H258.819V119.979H263.431V105.119Z" fill="white"/>
<path d="M272.29 100.873H267.678V119.979H272.29V100.873Z" fill="white"/>
<path d="M281.147 105.119H276.535V119.979H281.147V105.119Z" fill="white"/>
<path d="M290.115 100.873H285.503V119.979H290.115V100.873Z" fill="white"/>
<path d="M298.972 105.119H294.36V119.979H298.972V105.119Z" fill="white"/>
<path d="M307.831 100.873H303.219V119.979H307.831V100.873Z" fill="white"/>
<path d="M316.688 105.119H312.076V119.979H316.688V105.119Z" fill="white"/>
<path d="M325.509 100.873H320.897V119.979H325.509V100.873Z" fill="white"/>
<path d="M334.367 105.119H329.755V119.979H334.367V105.119Z" fill="white"/>
<path d="M343.225 100.873H338.613V119.979H343.225V100.873Z" fill="white"/>
<path d="M352.083 105.119H347.471V119.979H352.083V105.119Z" fill="white"/>
<path d="M360.941 105.119H356.329V119.979H360.941V105.119Z" fill="white"/>
<path d="M254.574 149.774H249.962V168.88H254.574V149.774Z" fill="white"/>
<path d="M263.431 154.02H258.819V168.88H263.431V154.02Z" fill="white"/>
<path d="M272.29 149.774H267.678V168.88H272.29V149.774Z" fill="white"/>
<path d="M281.147 154.02H276.535V168.88H281.147V154.02Z" fill="white"/>
<path d="M290.115 149.774H285.503V168.88H290.115V149.774Z" fill="white"/>
<path d="M298.972 154.02H294.36V168.88H298.972V154.02Z" fill="white"/>
<path d="M307.831 149.774H303.219V168.88H307.831V149.774Z" fill="white"/>
<path d="M316.688 154.02H312.076V168.88H316.688V154.02Z" fill="white"/>
<path d="M325.509 149.774H320.897V168.88H325.509V149.774Z" fill="white"/>
<path d="M334.367 154.02H329.755V168.88H334.367V154.02Z" fill="white"/>
<path d="M343.225 149.774H338.613V168.88H343.225V149.774Z" fill="white"/>
<path d="M352.083 154.02H347.471V168.88H352.083V154.02Z" fill="white"/>
<path d="M360.941 154.02H356.329V168.88H360.941V154.02Z" fill="white"/>
<path d="M254.574 197.943H249.962V217.049H254.574V197.943Z" fill="white"/>
<path d="M263.431 202.189H258.819V217.049H263.431V202.189Z" fill="white"/>
<path d="M272.29 197.943H267.678V217.049H272.29V197.943Z" fill="white"/>
<path d="M281.147 202.189H276.535V217.049H281.147V202.189Z" fill="white"/>
<path d="M290.115 197.943H285.503V217.049H290.115V197.943Z" fill="white"/>
<path d="M298.972 202.189H294.36V217.049H298.972V202.189Z" fill="white"/>
<path d="M307.831 197.943H303.219V217.049H307.831V197.943Z" fill="white"/>
<path d="M316.688 202.189H312.076V217.049H316.688V202.189Z" fill="white"/>
<path d="M325.509 197.943H320.897V217.049H325.509V197.943Z" fill="white"/>
<path d="M334.367 202.189H329.755V217.049H334.367V202.189Z" fill="white"/>
<path d="M343.225 197.943H338.613V217.049H343.225V197.943Z" fill="white"/>
<path d="M352.083 202.189H347.471V217.049H352.083V202.189Z" fill="white"/>
<path d="M360.941 202.189H356.329V217.049H360.941V202.189Z" fill="white"/>
<path d="M254.574 245.953H249.962V265.059H254.574V245.953Z" fill="white"/>
<path d="M263.431 250.199H258.819V265.059H263.431V250.199Z" fill="white"/>
<path d="M272.29 245.953H267.678V265.059H272.29V245.953Z" fill="white"/>
<path d="M281.147 250.199H276.535V265.059H281.147V250.199Z" fill="white"/>
<path d="M290.115 245.953H285.503V265.059H290.115V245.953Z" fill="white"/>
<path d="M298.972 250.199H294.36V265.059H298.972V250.199Z" fill="white"/>
<path d="M307.831 245.953H303.219V265.059H307.831V245.953Z" fill="white"/>
<path d="M316.688 250.199H312.076V265.059H316.688V250.199Z" fill="white"/>
<path d="M325.509 245.953H320.897V265.059H325.509V245.953Z" fill="white"/>
<path d="M334.367 250.199H329.755V265.059H334.367V250.199Z" fill="white"/>
<path d="M343.225 245.953H338.613V265.059H343.225V245.953Z" fill="white"/>
<path d="M352.083 250.199H347.471V265.059H352.083V250.199Z" fill="white"/>
<path d="M360.941 250.199H356.329V265.059H360.941V250.199Z" fill="white"/>
<path d="M254.574 293.963H249.962V313.069H254.574V293.963Z" fill="white"/>
<path d="M263.431 298.209H258.819V313.069H263.431V298.209Z" fill="white"/>
<path d="M272.29 293.963H267.678V313.069H272.29V293.963Z" fill="white"/>
<path d="M281.147 298.209H276.535V313.069H281.147V298.209Z" fill="white"/>
<path d="M290.115 293.963H285.503V313.069H290.115V293.963Z" fill="white"/>
<path d="M298.972 298.209H294.36V313.069H298.972V298.209Z" fill="white"/>
<path d="M307.831 293.963H303.219V313.069H307.831V293.963Z" fill="white"/>
<path d="M316.688 298.209H312.076V313.069H316.688V298.209Z" fill="white"/>
<path d="M325.509 293.963H320.897V313.069H325.509V293.963Z" fill="white"/>
<path d="M334.367 298.209H329.755V313.069H334.367V298.209Z" fill="white"/>
<path d="M343.225 293.963H338.613V313.069H343.225V293.963Z" fill="white"/>
<path d="M352.083 298.209H347.471V313.069H352.083V298.209Z" fill="white"/>
<path d="M360.941 298.209H356.329V313.069H360.941V298.209Z" fill="white"/>
<path d="M7.30068 118.823C-4.28146 97.2986 6.43248 70.6472 25.737 60.3109C40.071 52.6362 57.1115 53.1172 72.3252 58.291C77.9632 35.945 92.6625 16.5227 111.705 7.01928C130.748 -2.4841 153.8 -1.70626 172.061 9.53456C190.323 20.7745 203.229 42.355 205.017 65.4788C221.368 62.414 239.5 70.4775 247.78 86.4503C256.061 102.424 252.375 125.415 238.557 135.606C228.826 142.784 217.3 143.107 205.622 143.146C179.615 143.233 45.6138 144.336 37.1957 141.992C27.5106 139.294 16.2461 135.448 7.30068 118.823Z" fill="#FBB03B"/>
<path d="M116.359 143.946C77.9674 143.946 41.3716 143.639 37.0714 142.442C26.6002 139.524 15.6448 135.314 6.89029 119.044C1.67245 109.347 0.634757 97.9175 3.96767 86.8602C7.4906 75.1727 15.3452 65.346 25.5172 59.8994C38.6665 52.8599 55.1543 52.0795 71.9979 57.6886C77.8332 35.1198 92.5703 16.0474 111.497 6.60201C130.809 -3.0351 154.109 -2.06386 172.306 9.13718C181.367 14.7139 189.255 22.9007 195.119 32.8129C200.931 42.6373 204.495 53.7308 205.441 64.9285C213.441 63.544 222.009 64.7723 229.626 68.4042C237.729 72.2678 244.15 78.4341 248.195 86.2358C252.239 94.0362 253.595 103.893 251.915 113.278C250.18 122.977 245.534 131.04 238.835 135.982C229.348 142.979 218.639 143.568 205.624 143.612C202.178 143.624 196.835 143.653 190.14 143.69C171.996 143.79 143.721 143.946 116.359 143.946ZM50.1817 54.9175C41.4156 54.9175 33.1721 56.8591 25.9576 60.7221C16.0022 66.0525 8.31288 75.6773 4.86083 87.1293C1.59987 97.9478 2.61195 109.125 7.71172 118.602C16.2925 134.549 27.0443 138.68 37.3218 141.543C44.561 143.559 146.574 142.997 190.135 142.757C196.831 142.72 202.174 142.691 205.621 142.679C218.463 142.636 229.022 142.06 238.281 135.231C251.484 125.492 255.73 102.798 247.367 86.6651C239.522 71.5344 221.747 62.8199 205.104 65.9372C204.974 65.9628 204.839 65.93 204.734 65.8491C204.629 65.7685 204.563 65.6469 204.552 65.5148C202.779 42.5662 190.235 21.268 171.817 9.93153C153.893 -1.10193 130.939 -2.05709 111.914 7.43656C93.0906 16.8303 78.4604 35.8836 72.7779 58.4046C72.7459 58.5314 72.6628 58.6383 72.5483 58.7007C72.4342 58.7627 72.2982 58.7745 72.1754 58.7322C64.6852 56.1854 57.2627 54.9175 50.1817 54.9175Z" fill="black"/>
<path d="M134.031 98.8805L111.558 121.365L89.084 98.8805H100.799V46.9964H122.316V98.8805H134.031Z" fill="white"/>
<path d="M139.731 65.8369L162.205 43.3523L184.678 65.8369H172.964V117.721H151.446V65.8369H139.731Z" fill="white"/>
<path d="M108.707 122.529C108.583 122.529 108.464 122.479 108.377 122.392L85.9031 99.9074C85.7698 99.7739 85.73 99.5735 85.8021 99.399C85.8743 99.2244 86.0444 99.111 86.2332 99.111H97.4812V47.6934C97.4812 47.4355 97.69 47.2271 97.9475 47.2271H119.465C119.723 47.2271 119.932 47.4357 119.932 47.6934V99.1112H131.18C131.369 99.1112 131.539 99.2246 131.611 99.3992C131.683 99.5737 131.644 99.7741 131.51 99.9077L109.037 122.392C108.949 122.479 108.83 122.529 108.707 122.529ZM87.3591 100.044L108.707 121.402L130.054 100.044H119.466C119.208 100.044 118.999 99.8355 118.999 99.5778V48.16H98.4141V99.5778C98.4141 99.8357 98.2053 100.044 97.9475 100.044H87.3591Z" fill="black"/>
<path d="M170.113 118.885H148.595C148.338 118.885 148.129 118.676 148.129 118.418V67.0005H136.881C136.692 67.0005 136.522 66.8871 136.45 66.7125C136.377 66.5381 136.417 66.3375 136.551 66.204L159.024 43.7196C159.2 43.5446 159.509 43.5446 159.684 43.7196L182.158 66.204C182.291 66.3375 182.331 66.5379 182.259 66.7125C182.186 66.8871 182.016 67.0005 181.828 67.0005H170.58V118.418C170.58 118.676 170.371 118.885 170.113 118.885ZM149.062 117.952H169.647V66.5341C169.647 66.2762 169.856 66.0675 170.113 66.0675H180.702L159.354 44.7097L138.006 66.0675H148.595C148.853 66.0675 149.062 66.2762 149.062 66.5341V117.952H149.062Z" fill="black"/>
<path d="M276.896 259.361V283.624H303.476V259.361H276.896Z" fill="#020202"/>
<path d="M291.332 286.451L291.757 286.931C296.621 292.433 301.546 293.135 309.205 296.931L325.457 268.872L334.02 224.09L330.882 215.619L324.057 217.075L311.428 240.434L297.587 255.576L291.7 258.159L290.856 262.892L293.856 267.526L298.483 268.351C300.371 273.322 301.508 274.365 301.11 276.596C301.087 276.641 300.794 280.441 297.012 280.995L293.12 281.564C290.795 281.905 289.776 284.69 291.332 286.451Z" fill="#4ADA85"/>
<path d="M330.882 215.619L330.919 218.474C331.018 226.2 330.241 233.911 328.604 241.462L327.95 244.481C324.677 259.573 319.742 274.256 313.234 288.261L309.205 296.932L312.501 302.185L322.47 305.916L329.886 294.758C329.886 294.758 331.479 286.064 333.486 275.028L331.292 271.881L332.03 267.74L335.212 265.521C338.336 248.27 341.65 229.748 341.512 229.549C341.253 229.177 338.201 218.596 338.201 218.596L335.361 216.417L330.882 215.619Z" fill="#020202"/>
<path d="M303.335 257.933C303.158 257.933 302.989 257.832 302.91 257.66L300.371 252.102C300.264 251.868 300.367 251.591 300.602 251.484C300.835 251.377 301.112 251.48 301.22 251.715L303.758 257.273C303.865 257.507 303.762 257.783 303.528 257.891C303.465 257.919 303.399 257.933 303.335 257.933Z" fill="black"/>
<path d="M306.968 254.169C306.791 254.169 306.622 254.068 306.544 253.896L304.005 248.338C303.898 248.104 304.001 247.827 304.236 247.72C304.468 247.613 304.746 247.716 304.853 247.951L307.392 253.509C307.499 253.743 307.396 254.019 307.162 254.126C307.099 254.155 307.033 254.169 306.968 254.169Z" fill="black"/>
<path d="M310.602 250.404C310.425 250.404 310.256 250.303 310.178 250.131L307.639 244.573C307.532 244.339 307.635 244.062 307.869 243.955C308.102 243.848 308.38 243.951 308.487 244.186L311.026 249.744C311.133 249.978 311.03 250.255 310.795 250.362C310.733 250.391 310.667 250.404 310.602 250.404Z" fill="black"/>
<path d="M273.81 330.689L258.245 349.301L278.635 366.353L294.2 347.74L273.81 330.689Z" fill="#020202"/>
<path d="M264.899 347.648L264.501 348.15C259.938 353.904 260.111 358.876 257.718 367.082L288.194 378.159L333.784 378.73L341.573 374.154L338.941 367.691L313.729 359.357L296.393 348.388L292.816 343.046L288.009 343.046L283.973 346.811L283.973 351.512C279.41 354.243 278.583 355.545 276.317 355.545C276.268 355.53 272.476 355.909 271.267 352.283L270.024 348.55C269.28 346.321 266.36 345.806 264.899 347.648Z" fill="#4ADA85"/>
<path d="M341.573 374.154L338.768 374.691C331.18 376.144 323.451 376.733 315.731 376.446L308.901 376.193C295.956 375.712 283.105 373.797 270.582 370.485L257.718 367.082L253.124 371.248L251.2 381.718L263.486 387.06C263.486 387.06 272.325 387.104 283.542 387.143L286.255 384.431L290.462 384.431L293.204 387.173L329.723 387.063L339.926 381.882L341.572 378.704L341.573 374.154Z" fill="#020202"/>
<path d="M295.54 354.844C295.392 354.844 295.246 354.774 295.156 354.643C295.009 354.431 295.063 354.14 295.275 353.994L300.301 350.519C300.512 350.372 300.804 350.425 300.95 350.638C301.097 350.85 301.043 351.141 300.831 351.287L295.805 354.761C295.724 354.817 295.632 354.844 295.54 354.844Z" fill="black"/>
<path d="M299.884 357.761C299.736 357.761 299.59 357.691 299.5 357.559C299.353 357.348 299.406 357.057 299.618 356.911L304.645 353.436C304.856 353.289 305.148 353.342 305.294 353.554C305.44 353.766 305.387 354.057 305.175 354.203L300.149 357.678C300.068 357.734 299.975 357.761 299.884 357.761Z" fill="black"/>
<path d="M304.228 360.677C304.079 360.677 303.934 360.607 303.844 360.476C303.697 360.264 303.75 359.973 303.962 359.827L308.989 356.353C309.199 356.206 309.491 356.258 309.637 356.471C309.784 356.683 309.731 356.974 309.519 357.12L304.492 360.594C304.412 360.65 304.319 360.677 304.228 360.677Z" fill="black"/>
<path d="M279.915 323.853L208.093 265.956L146.028 328H116.091V381.167H123.95C135.93 381.167 147.42 376.411 155.894 367.943L208.375 315.503L255.575 353.525L279.915 323.853Z" fill="#FED101"/>
<path d="M208.364 315.961C208.262 315.961 208.158 315.927 208.072 315.857L199.4 308.871C199.199 308.71 199.167 308.416 199.329 308.216C199.49 308.015 199.783 307.982 199.984 308.145L208.657 315.131C208.858 315.292 208.889 315.586 208.728 315.787C208.636 315.902 208.501 315.961 208.364 315.961Z" fill="black"/>
<path d="M280.772 254.023L181.905 254.155C174.703 254.165 167.8 257.03 162.708 262.123L117.118 307.712H100.043V337.312H125.607C132.94 337.312 139.973 334.399 145.159 329.213L180.402 293.97C183.549 290.822 187.819 289.054 192.27 289.054H280.772L280.772 254.023Z" fill="#FED101"/>
<path d="M191.547 254.142L181.905 254.154C174.704 254.165 167.8 257.03 162.708 262.123L157.94 266.89C162.886 268.283 169.364 267.996 175.91 265.707C183.125 263.183 188.76 258.808 191.547 254.142Z" fill="#FCB503"/>
<path d="M125.454 337.733H124.429C124.172 337.733 123.963 337.524 123.963 337.267C123.963 337.009 124.172 336.8 124.429 336.8H125.454C132.843 336.8 139.79 333.923 145.014 328.698L180.063 293.649C183.328 290.385 187.668 288.587 192.284 288.587H280.306V254.489L181.906 254.62C174.779 254.631 168.078 257.412 163.038 262.452L146.397 279.094C146.215 279.276 145.92 279.276 145.737 279.094C145.555 278.911 145.555 278.616 145.737 278.434L162.379 261.793C167.594 256.577 174.529 253.699 181.905 253.688L280.772 253.556C280.895 253.556 281.015 253.605 281.102 253.692C281.19 253.78 281.239 253.898 281.239 254.022V289.054C281.239 289.312 281.03 289.52 280.773 289.52H192.285C187.918 289.52 183.812 291.221 180.723 294.309L145.675 329.358C140.273 334.759 133.092 337.733 125.454 337.733Z" fill="black"/>
<path d="M50.8579 261.564C59.2093 261.564 65.9795 254.932 65.9795 246.751C65.9795 238.57 59.2093 231.938 50.8579 231.938C42.5065 231.938 35.7363 238.57 35.7363 246.751C35.7363 254.932 42.5065 261.564 50.8579 261.564Z" fill="black"/>
<path d="M55.1103 259.387H43.4434V274.082H55.1103V259.387Z" fill="#FDA4FF"/>
<path d="M43.4434 263.81V259.387H55.1103V269.15C54.0572 269.36 51.9588 269.624 49.5486 268.83C45.7767 267.587 43.925 264.637 43.4434 263.81Z" fill="black"/>
<path d="M50.858 266.312C56.0403 266.312 60.2414 261.669 60.2414 255.941C60.2414 250.213 56.0403 245.57 50.858 245.57C45.6757 245.57 41.4746 250.213 41.4746 255.941C41.4746 261.669 45.6757 266.312 50.858 266.312Z" fill="#FDA4FF"/>
<path d="M46.8418 260.442C47.7487 261.273 48.9165 261.834 50.2346 261.968C53.1729 262.267 55.821 260.359 56.5496 257.59L46.8418 260.442Z" fill="white"/>
<path d="M119.567 305.263L117.118 307.712H100.043L116.091 381.167H123.95C130.119 381.167 136.157 379.903 141.721 377.523L119.567 305.263Z" fill="#020202"/>
<path d="M130.448 240.616L135.295 216.317C135.295 216.317 134.199 211.615 138.679 208.197C139.717 207.405 141.997 205.963 143.934 204.769C146.138 203.411 148.151 201.766 149.924 199.88L151.957 197.719C152.978 196.633 154.675 196.545 155.803 197.52L156.043 197.728C157.186 198.717 157.331 200.437 156.37 201.602L150.172 209.115L154.577 210.824C156.835 211.699 159.293 211.928 161.674 211.486L171.325 209.888C172.929 209.622 174.483 210.581 174.966 212.134L175.048 212.399L180.137 211.029C181.648 210.675 183.17 211.571 183.593 213.064C184.01 214.53 183.221 216.069 181.787 216.586L150.527 227.856L147.31 243.98L130.448 240.616Z" fill="#FDA4FF"/>
<path d="M147.31 244.447C147.28 244.447 147.249 244.443 147.219 244.437L130.357 241.074C130.104 241.023 129.94 240.778 129.991 240.525L134.819 216.319C134.675 215.567 134.047 211.143 138.396 207.826C139.476 207.002 141.87 205.493 143.689 204.372C145.854 203.037 147.837 201.419 149.584 199.561L151.617 197.4C152.813 196.127 154.786 196.025 156.107 197.167L156.348 197.375C157.694 198.54 157.861 200.527 156.729 201.899L150.942 208.914L154.746 210.389C156.924 211.234 159.291 211.454 161.588 211.027L171.248 209.427C173.017 209.132 174.751 210.162 175.356 211.832L180.015 210.578C181.788 210.162 183.55 211.199 184.042 212.936C184.523 214.631 183.602 216.427 181.945 217.024L150.932 228.206L147.767 244.071C147.743 244.193 147.672 244.299 147.569 244.368C147.492 244.42 147.402 244.447 147.31 244.447ZM130.997 240.25L146.944 243.431L150.069 227.765C150.101 227.605 150.215 227.473 150.368 227.418L181.628 216.147C182.827 215.715 183.493 214.416 183.145 213.191C182.789 211.934 181.515 211.185 180.243 211.483L175.169 212.849C174.928 212.915 174.677 212.776 174.602 212.537L174.52 212.271C174.109 210.948 172.77 210.12 171.401 210.347L161.75 211.945C159.29 212.403 156.749 212.166 154.409 211.258L150.003 209.549C149.863 209.495 149.758 209.377 149.72 209.232C149.683 209.088 149.717 208.933 149.812 208.818L156.01 201.305C156.817 200.327 156.698 198.911 155.738 198.081L155.498 197.873C154.555 197.058 153.15 197.131 152.297 198.038L150.264 200.199C148.461 202.117 146.414 203.788 144.179 205.166C141.597 206.757 139.793 207.934 138.962 208.568C134.77 211.765 135.739 216.167 135.75 216.211C135.765 216.276 135.766 216.343 135.752 216.408L130.997 240.25Z" fill="black"/>
<path d="M153.435 218.098L156.03 216.981C157.679 216.271 159.087 215.097 160.083 213.603L165.535 205.418C166.319 204.24 167.903 203.911 169.091 204.678C170.223 205.408 170.605 206.884 169.971 208.071L164.781 217.785C164.361 218.57 163.789 219.263 163.097 219.823L159.37 222.838L153.435 218.098Z" fill="#FDA4FF"/>
<path d="M160.203 214.909L162.947 214.237C164.692 213.809 166.274 212.884 167.503 211.575L174.233 204.404C175.201 203.372 176.818 203.309 177.863 204.262C178.858 205.169 178.992 206.688 178.169 207.754L171.445 216.476C170.901 217.181 170.222 217.77 169.447 218.207L165.273 220.566L160.203 214.909Z" fill="#FDA4FF"/>
<path d="M169.448 218.674C169.285 218.674 169.127 218.589 169.041 218.437C168.915 218.212 168.994 217.928 169.218 217.801C169.942 217.392 170.568 216.85 171.075 216.192L177.8 207.47C178.468 206.602 178.358 205.345 177.549 204.607C176.697 203.831 175.362 203.883 174.573 204.723L169.429 210.251C169.253 210.44 168.958 210.45 168.77 210.275C168.581 210.099 168.57 209.804 168.746 209.615L173.892 204.086C175.029 202.874 176.951 202.799 178.177 203.917C179.343 204.98 179.502 206.79 178.539 208.039L171.814 216.761C171.229 217.519 170.51 218.143 169.677 218.614C169.604 218.654 169.526 218.674 169.448 218.674Z" fill="black"/>
<path d="M161.76 221.976C161.623 221.976 161.487 221.916 161.395 221.8C161.235 221.599 161.268 221.305 161.469 221.145C163.05 219.884 164.362 218.262 165.265 216.454L169.554 207.863C170.076 206.886 169.759 205.664 168.839 205.07C167.871 204.444 166.563 204.717 165.923 205.677L160.471 213.861C159.423 215.435 157.951 216.663 156.214 217.41L150.703 219.307C150.46 219.391 150.194 219.262 150.11 219.018C150.027 218.774 150.156 218.509 150.4 218.425L155.878 216.54C157.416 215.877 158.747 214.768 159.695 213.344L165.147 205.159C166.067 203.777 167.95 203.386 169.344 204.286C170.67 205.141 171.126 206.9 170.382 208.291L166.099 216.871C165.136 218.799 163.736 220.529 162.051 221.873C161.965 221.942 161.862 221.976 161.76 221.976Z" fill="black"/>
<path d="M148.369 211.739C148.263 211.739 148.157 211.703 148.07 211.63C147.872 211.464 147.846 211.171 148.011 210.973L149.908 208.706C150.073 208.508 150.367 208.482 150.565 208.648C150.762 208.813 150.789 209.107 150.623 209.304L148.727 211.571C148.634 211.682 148.502 211.739 148.369 211.739Z" fill="black"/>
<path d="M117.123 307.629H115.578C111.098 307.629 106.8 305.855 103.625 302.696L74.6948 273.942H24.0056C11.0055 273.942 0.466797 284.481 0.466797 297.481V300.033L61.1363 360.785C74.4299 374.097 92.4711 381.577 111.284 381.577H133.157L117.123 307.629Z" fill="#8C7BFF"/>
<path d="M154.642 235.63L126.313 230.007L117.584 273.943H64.4688V301.57L120.614 301.562C132.763 301.56 143.219 292.98 145.592 281.066L154.642 235.63Z" fill="#8C7BFF"/>
<path d="M83.6172 356.612L114.483 356.599V381.844L83.6172 381.852V356.612Z" fill="#FDA4FF"/>
<path d="M93.1906 356.608L83.6172 356.612V381.852L96.6158 381.849L93.1906 356.608Z" fill="#020202"/>
<path d="M142.196 364.45L144.935 367.41C146.319 368.905 146.458 371.168 145.267 372.821L142.577 376.555L136.057 369.281H95.0977V360.71H133.635C136.885 360.71 139.988 362.065 142.196 364.45Z" fill="#FDA4FF"/>
<path d="M140.933 359.104L142.483 360.778C143.867 362.273 144.006 364.536 142.815 366.189L140.125 369.924L133.605 362.649H95.0977V356.686H101.633C104.337 356.686 109.16 354.078 115.261 354.078H129.432C133.799 354.078 137.967 355.9 140.933 359.104Z" fill="#FDA4FF"/>
<path d="M145.266 373.287C145.172 373.287 145.077 373.259 144.994 373.199C144.785 373.049 144.738 372.757 144.888 372.549C145.945 371.081 145.821 369.054 144.593 367.727L141.853 364.768C139.741 362.485 136.745 361.176 133.635 361.176H126.095C125.838 361.176 125.629 360.967 125.629 360.709C125.629 360.451 125.838 360.243 126.095 360.243H133.635C137.004 360.243 140.249 361.661 142.538 364.134L145.277 367.093C146.806 368.744 146.961 371.268 145.646 373.094C145.554 373.22 145.411 373.287 145.266 373.287Z" fill="black"/>
<path d="M143.154 370.212L146.44 373.763C147.824 375.258 147.963 377.521 146.772 379.174L144.082 382.908L137.562 375.634H112.186V367.061H135.943C138.68 367.061 141.294 368.203 143.154 370.212Z" fill="#FDA4FF"/>
<path d="M145.724 381.094C145.63 381.094 145.534 381.065 145.452 381.006C145.243 380.855 145.195 380.564 145.346 380.355L146.394 378.901C147.45 377.434 147.326 375.406 146.098 374.08L142.811 370.529C141.046 368.621 138.542 367.527 135.942 367.527H126.026C125.768 367.527 125.56 367.318 125.56 367.061C125.56 366.803 125.768 366.594 126.026 366.594H135.942C138.801 366.594 141.554 367.797 143.496 369.895L146.782 373.446C148.311 375.097 148.466 377.62 147.151 379.446L146.103 380.9C146.012 381.027 145.869 381.094 145.724 381.094Z" fill="black"/>
<path d="M141.952 376.454L145.38 380.158C146.651 381.531 146.778 383.609 145.685 385.128C144.217 387.165 141.241 387.324 139.565 385.454L137.705 383.378C136.816 382.386 135.546 381.819 134.214 381.819H112.906C107.335 381.819 103.414 381.5 98.0459 373.24L134.612 373.247C137.399 373.247 140.059 374.409 141.952 376.454Z" fill="#FDA4FF"/>
<path d="M142.49 387.228C141.239 387.228 140.058 386.703 139.218 385.765L137.357 383.689C136.558 382.797 135.412 382.285 134.214 382.285H110.647C106.391 382.285 102.422 380.18 100.03 376.653C99.8851 376.44 99.9406 376.15 100.154 376.005C100.367 375.86 100.657 375.916 100.802 376.129C103.02 379.4 106.701 381.352 110.647 381.352H134.214C135.677 381.352 137.075 381.977 138.052 383.066L139.912 385.143C140.616 385.927 141.621 386.351 142.678 386.29C143.731 386.234 144.689 385.711 145.306 384.855C146.266 383.522 146.153 381.68 145.037 380.475L141.609 376.771C139.81 374.827 137.26 373.713 134.612 373.713H126.36C126.102 373.713 125.894 373.505 125.894 373.247C125.894 372.989 126.102 372.78 126.36 372.78H134.612C137.519 372.78 140.319 374.004 142.294 376.137L145.722 379.841C147.138 381.37 147.282 383.709 146.063 385.4C145.28 386.486 144.064 387.15 142.728 387.222C142.648 387.226 142.568 387.228 142.49 387.228Z" fill="black"/>
<path d="M118.782 382.322H83.6168C83.3592 382.322 83.1504 382.114 83.1504 381.856V356.613C83.1504 356.355 83.3592 356.147 83.6168 356.147H100.41C102.812 356.147 104.727 355.618 106.756 355.059C109.216 354.38 112.005 353.611 116.207 353.611H129.432C133.915 353.611 138.231 355.498 141.276 358.787L142.826 360.462C144.146 361.888 144.466 363.946 143.64 365.704C143.53 365.937 143.252 366.037 143.019 365.928C142.786 365.818 142.686 365.54 142.795 365.307C143.459 363.895 143.202 362.242 142.141 361.096L140.591 359.422C137.722 356.322 133.655 354.544 129.432 354.544H116.207C112.131 354.544 109.525 355.263 107.003 355.958C104.913 356.535 102.938 357.079 100.409 357.079H84.0829V381.389H118.781C119.039 381.389 119.248 381.598 119.248 381.856C119.248 382.114 119.039 382.322 118.782 382.322Z" fill="black"/>
<path d="M34.9319 352.928V273.943H24.0046C11.0046 273.943 0.46582 284.481 0.46582 297.481V355.213C0.46582 371.104 13.348 383.986 29.2392 383.986H89.4108V352.928H34.9319Z" fill="#8C7BFF"/>
<path d="M0.591797 357.854C1.92593 372.506 14.2392 383.986 29.2393 383.986H31.069C25.0316 371.539 14.0089 361.963 0.591797 357.854Z" fill="#6155FF"/>
<path d="M53.2944 353.399C53.1748 353.399 53.0555 353.353 52.9643 353.262L20.8863 321.14C20.7044 320.958 20.7046 320.663 20.8868 320.48C21.0692 320.299 21.3644 320.298 21.5463 320.481L53.6243 352.602C53.8062 352.785 53.806 353.08 53.6238 353.262C53.5328 353.353 53.4137 353.399 53.2944 353.399Z" fill="black"/>
<path d="M117.123 308.096H115.578C110.943 308.096 106.581 306.295 103.295 303.026L92.8271 292.622C92.6445 292.441 92.6434 292.145 92.825 291.962C93.0071 291.78 93.3021 291.779 93.4847 291.96L103.953 302.365C107.063 305.459 111.191 307.163 115.577 307.163H117.123C117.38 307.163 117.589 307.371 117.589 307.629C117.589 307.887 117.381 308.096 117.123 308.096Z" fill="black"/>
<path d="M65.458 273.853H33.5732C37.381 278.895 43.1086 282.106 49.5156 282.106C55.9229 282.105 61.6502 278.895 65.458 273.853Z" fill="#FDA4FF"/>
<path d="M89.4114 384.453H29.2395C13.1169 384.453 0 371.335 0 355.213V297.481C0 284.245 10.7687 273.476 24.0052 273.476H43.2523C43.5098 273.476 43.7189 273.685 43.7189 273.943C43.7189 274.2 43.51 274.409 43.2523 274.409H24.0052C11.2831 274.409 0.932944 284.759 0.932944 297.481V355.213C0.932944 370.821 13.6313 383.52 29.2395 383.52H88.9448V353.394H34.9324C34.6749 353.394 34.466 353.185 34.466 352.928V334.813C34.466 334.556 34.6749 334.347 34.9324 334.347C35.1899 334.347 35.399 334.556 35.399 334.813V352.461H89.4116C89.6691 352.461 89.8779 352.67 89.8779 352.927V383.986C89.8777 384.244 89.6689 384.453 89.4114 384.453Z" fill="black"/>
<path d="M35.1104 353.394H25.0008C24.7432 353.394 24.5342 353.185 24.5342 352.928C24.5342 352.67 24.743 352.461 25.0008 352.461H35.1104C35.3679 352.461 35.5767 352.67 35.5767 352.928C35.5769 353.185 35.3681 353.394 35.1104 353.394Z" fill="black"/>
<path d="M102.396 302.031C102.138 302.031 101.929 301.822 101.929 301.565C101.929 301.307 102.138 301.098 102.396 301.098L120.615 301.095C132.501 301.093 142.813 292.631 145.135 280.974L154.094 235.996L126.68 230.555L118.042 274.033C117.999 274.252 117.807 274.409 117.585 274.409H55.3318C55.0741 274.409 54.8652 274.2 54.8652 273.943C54.8652 273.685 55.0741 273.476 55.3318 273.476H117.202L125.856 229.916C125.906 229.663 126.15 229.497 126.404 229.549L154.733 235.172C154.855 235.196 154.962 235.267 155.03 235.37C155.099 235.473 155.124 235.6 155.1 235.721L146.05 281.157C143.642 293.249 132.945 302.027 120.615 302.028L102.396 302.031Z" fill="black"/>
<path d="M116.024 282.266C115.994 282.266 115.963 282.263 115.932 282.256C115.68 282.206 115.516 281.961 115.566 281.708L117.131 273.831C117.181 273.578 117.425 273.412 117.679 273.465C117.932 273.515 118.096 273.76 118.046 274.013L116.481 281.89C116.437 282.112 116.242 282.266 116.024 282.266Z" fill="black"/>
<path d="M121.52 196.413L124.275 193.657C115.941 185.323 104.859 180.733 93.0727 180.733C81.2855 180.733 70.2044 185.323 61.8701 193.658L64.6252 196.413C72.2237 188.814 82.3268 184.63 93.0727 184.63C103.819 184.63 113.922 188.814 121.52 196.413Z" fill="#FFC107"/>
<path d="M71.4023 203.191C77.1908 197.402 84.8865 194.215 93.0722 194.215C101.258 194.215 108.954 197.402 114.742 203.19L117.497 200.435C110.973 193.911 102.299 190.318 93.0724 190.318C83.8461 190.318 75.1715 193.911 68.6475 200.435L71.4023 203.191Z" fill="#FFC107"/>
<path d="M108.348 209.585L111.103 206.83C106.287 202.014 99.8842 199.361 93.0732 199.361C86.2618 199.361 79.8588 202.014 75.043 206.83L77.798 209.585C81.8783 205.505 87.3031 203.258 93.0734 203.258C98.8433 203.258 104.268 205.505 108.348 209.585Z" fill="#FFC107"/>
<path d="M84.3097 216.098C89.1412 211.266 97.0023 211.266 101.835 216.098L104.59 213.342C98.2395 206.992 87.9048 206.991 81.5547 213.342L84.3097 216.098Z" fill="#FFC107"/>
<path d="M90.4767 222.265C91.9086 220.833 94.2371 220.834 95.6681 222.265L98.4231 219.509C95.4726 216.559 90.6722 216.559 87.7217 219.509L90.4767 222.265Z" fill="#FFC107"/>
</svg>
