<svg version="1.1" id="Layer_1" xmlns="http://www.w3.org/2000/svg" xmlns:xlink="http://www.w3.org/1999/xlink" x="0px" y="0px"
	 viewBox="0 0 600 600" style="enable-background:new 0 0 600 600;" xml:space="preserve">
<path id="svg-ico" class="logo0" d="M574.5,401.6c11.8-31.7,18.2-65.9,18.2-101.6C592.7,138.6,461.4,7.4,300,7.4S7.3,138.6,7.3,300
	S138.6,592.6,300,592.6c125.6,0,233-79.6,274.4-191L574.5,401.6L574.5,401.6z M300,556.1c-110.9,0-205.5-70.8-241.1-169.6
	c-4.3-9-11.7-37.3-12.4-49.6c-1.8-12.1-2.7-24.4-2.7-36.9C43.9,158.8,158.8,43.9,300,43.9c141.2,0,256.1,114.9,256.1,256.1
	c0,33.4-6.4,65.2-18.1,94.5l-5.4,10.9c-25.1,50.7-75.8,82.2-132.3,82.2c-81.4,0-147.6-66.2-147.6-147.6c0-23.9,5.5-46.7,16.4-67.7
	c0,0,0.2-0.4,4.6-8.9c4.4-8.5-24.7-48.5-33.6-30.8L230,252.1c-14,27-21.3,57.4-21.3,87.9c0,105.7,86,191.6,191.6,191.6
	c3.2,0,6.4-0.1,9.5-0.3C376.5,547.2,339.3,556.1,300,556.1L300,556.1z"/>
</svg>
