<svg width="418" height="434" viewBox="0 0 418 434" fill="none" xmlns="http://www.w3.org/2000/svg">
<path d="M147.121 217.18C97.4508 217.18 56.0746 176.637 54.8694 126.777C54.3023 102.617 63.14 79.9037 79.7519 62.8331C96.3638 45.7625 118.789 36.3499 142.844 36.3499C192.515 36.3499 233.891 76.8926 235.096 126.753C235.663 150.913 226.825 173.626 210.213 190.697C193.578 207.767 171.177 217.18 147.121 217.18ZM142.844 37.9147C119.19 37.9147 97.1909 47.1613 80.8625 63.9237C64.5341 80.7098 55.8619 103.02 56.429 126.753C57.5869 175.76 98.2779 215.615 147.098 215.615C170.751 215.615 192.751 206.368 209.079 189.606C225.408 172.82 234.08 150.51 233.513 126.777C232.355 77.7935 191.687 37.9147 142.844 37.9147Z" fill="#5479F7"/>
<path d="M209.276 190.527C243.547 155.73 242.538 98.9751 207.022 63.7609C171.506 28.5467 114.932 28.2083 80.6608 63.0051C46.3897 97.8019 47.3989 154.557 82.9151 189.771C118.431 224.985 175.005 225.324 209.276 190.527Z" fill="#99B9FF"/>
<path d="M147.122 217.18C97.4518 217.18 56.0756 176.637 54.8704 126.777C54.3033 102.617 63.1409 79.9037 79.7529 62.8331C96.3648 45.7625 118.79 36.3499 142.845 36.3499C192.516 36.3499 233.892 76.8926 235.097 126.753C235.664 150.913 226.826 173.626 210.214 190.697C193.579 207.767 171.178 217.18 147.122 217.18ZM142.845 37.9147C119.191 37.9147 97.1919 47.1613 80.8635 63.9237C64.5351 80.7098 55.8629 103.02 56.43 126.753C57.5879 175.76 98.2788 215.615 147.099 215.615C170.752 215.615 192.752 206.368 209.08 189.606C225.409 172.82 234.081 150.51 233.514 126.777C232.356 77.7935 191.688 37.9147 142.845 37.9147Z" fill="black"/>
<path d="M147.121 217.298C113.614 217.298 85.3997 176.708 84.2182 126.8C83.5093 96.6186 92.8668 68.5233 109.29 51.6423C119.073 41.566 130.675 36.2314 142.844 36.2314C176.352 36.2314 204.566 76.8215 205.748 126.729C206.457 156.911 197.099 185.006 180.676 201.887C170.893 211.964 159.291 217.298 147.121 217.298ZM142.844 37.8199C131.1 37.8199 119.876 42.9885 110.377 52.733C94.261 69.3057 85.0453 96.9742 85.7542 126.753C86.9121 175.807 114.441 215.733 147.098 215.733C158.842 215.733 170.066 210.565 179.566 200.82C195.705 184.248 204.897 156.579 204.188 126.8C203.03 77.7224 175.501 37.8199 142.844 37.8199Z" fill="black"/>
<path d="M147.098 216.753C139.867 216.753 132.92 207.269 127.556 190.08C122.286 173.152 119.049 150.675 118.482 126.777C118.009 106.98 119.38 88.2256 122.475 72.5301C125.524 57.0243 129.919 45.9285 135.235 40.4991C137.646 38.0333 140.221 36.7767 142.868 36.7767C150.099 36.7767 157.046 46.2604 162.41 63.4495C167.68 80.3778 170.917 102.854 171.484 126.753C171.957 146.55 170.586 165.304 167.49 180.999C164.442 196.505 160.047 207.601 154.73 213.031C152.32 215.496 149.744 216.753 147.098 216.753ZM142.868 38.3415C140.647 38.3415 138.473 39.4321 136.37 41.6134C125.831 52.4248 119.143 87.4432 120.065 126.753C120.632 150.51 123.822 172.844 129.068 189.606C134.148 205.87 140.718 215.188 147.121 215.188C149.343 215.188 151.517 214.097 153.62 211.916C164.159 201.105 170.846 166.086 169.924 126.777C169.357 103.02 166.167 80.6861 160.921 63.9237C155.841 47.6592 149.272 38.3415 142.868 38.3415Z" fill="black"/>
<path d="M234.552 127.18H56.6411C56.2158 127.18 55.8613 126.824 55.8613 126.397C55.8613 125.971 56.2158 125.615 56.6411 125.615H234.552C234.977 125.615 235.332 125.971 235.332 126.397C235.332 126.824 234.977 127.18 234.552 127.18Z" fill="black"/>
<path d="M222.171 85.7598H64.1802C63.7548 85.7598 63.4004 85.4042 63.4004 84.9774C63.4004 84.5507 63.7548 84.195 64.1802 84.195H222.171C222.596 84.195 222.951 84.5507 222.951 84.9774C222.951 85.4042 222.596 85.7598 222.171 85.7598Z" fill="black"/>
<path d="M224.132 168.576H66.1646C65.7392 168.576 65.3848 168.22 65.3848 167.793C65.3848 167.367 65.7392 167.011 66.1646 167.011H224.155C224.58 167.011 224.935 167.367 224.935 167.793C224.935 168.244 224.58 168.576 224.132 168.576Z" fill="black"/>
<path d="M371.298 302.295H57.373V414.701H371.298V302.295Z" fill="black"/>
<path d="M246.415 253.099H46.5518V308.175H246.415V253.099Z" fill="#5479F7"/>
<path d="M246.415 308.958H46.5278C46.1025 308.958 45.748 308.602 45.748 308.175V253.099C45.748 252.672 46.1025 252.317 46.5278 252.317H246.391C246.816 252.317 247.171 252.672 247.171 253.099V308.175C247.194 308.602 246.84 308.958 246.415 308.958ZM47.3313 307.369H245.635V253.881H47.3313V307.369Z" fill="black"/>
<path d="M382.028 253.099H133.582V308.175H382.028V253.099Z" fill="#5479F7"/>
<path d="M382.027 308.958H133.581C133.155 308.958 132.801 308.602 132.801 308.175V253.099C132.801 252.672 133.155 252.317 133.581 252.317H382.027C382.452 252.317 382.807 252.672 382.807 253.099V308.175C382.807 308.602 382.452 308.958 382.027 308.958ZM134.36 307.369H381.247V253.881H134.36V307.369Z" fill="black"/>
<path d="M367.045 257.201H147.474C142.063 257.201 137.668 260.733 137.668 265.072V296.155C137.668 300.517 142.063 304.026 147.474 304.026H367.045C372.456 304.026 376.851 300.494 376.851 296.155V265.096C376.851 260.733 372.456 257.201 367.045 257.201Z" fill="#99B9FF"/>
<path d="M165.161 281.419C165.592 278.756 163.79 276.247 161.136 275.815C158.482 275.383 155.982 277.191 155.551 279.854C155.121 282.517 156.923 285.025 159.577 285.458C162.23 285.89 164.731 284.081 165.161 281.419Z" fill="white"/>
<path d="M180.648 281.768C181.266 279.143 179.646 276.513 177.029 275.893C174.413 275.273 171.791 276.899 171.173 279.524C170.556 282.149 172.176 284.779 174.792 285.399C177.408 286.019 180.03 284.394 180.648 281.768Z" fill="white"/>
<path d="M196.288 281.426C196.719 278.763 194.917 276.254 192.263 275.822C189.609 275.39 187.109 277.198 186.678 279.861C186.248 282.523 188.05 285.032 190.703 285.464C193.357 285.896 195.858 284.088 196.288 281.426Z" fill="white"/>
<path d="M57.7034 301.347C57.0417 301.347 56.4746 300.802 56.4746 300.114V262.298C56.4746 261.634 57.0181 261.065 57.7034 261.065C58.365 261.065 58.9321 261.611 58.9321 262.298V300.138C58.9085 300.802 58.365 301.347 57.7034 301.347Z" fill="black"/>
<path d="M67.1555 301.347C66.4939 301.347 65.9268 300.802 65.9268 300.114V262.298C65.9268 261.634 66.4703 261.065 67.1555 261.065C67.8172 261.065 68.3843 261.611 68.3843 262.298V300.138C68.3607 300.802 67.8172 301.347 67.1555 301.347Z" fill="black"/>
<path d="M76.6077 301.347C75.946 301.347 75.3789 300.802 75.3789 300.114V262.298C75.3789 261.634 75.9224 261.065 76.6077 261.065C77.2929 261.065 77.8364 261.611 77.8364 262.298V300.138C77.8128 300.802 77.2693 301.347 76.6077 301.347Z" fill="black"/>
<path d="M85.8938 301.347C85.2322 301.347 84.665 300.802 84.665 300.114V262.298C84.665 261.634 85.2085 261.065 85.8938 261.065C86.5554 261.065 87.1226 261.611 87.1226 262.298V300.138C87.0989 300.802 86.5554 301.347 85.8938 301.347Z" fill="black"/>
<path d="M95.346 301.347C94.6843 301.347 94.1172 300.802 94.1172 300.114V262.298C94.1172 261.634 94.6607 261.065 95.346 261.065C96.0076 261.065 96.5747 261.611 96.5747 262.298V300.138C96.5511 300.802 96.0076 301.347 95.346 301.347Z" fill="black"/>
<path d="M104.775 301.347C104.113 301.347 103.546 300.802 103.546 300.114V262.298C103.546 261.634 104.089 261.065 104.775 261.065C105.436 261.065 106.003 261.611 106.003 262.298V300.138C106.003 300.802 105.46 301.347 104.775 301.347Z" fill="black"/>
<path d="M113.565 301.347C112.903 301.347 112.336 300.802 112.336 300.114V262.298C112.336 261.634 112.879 261.065 113.565 261.065C114.226 261.065 114.793 261.611 114.793 262.298V300.138C114.793 300.802 114.226 301.347 113.565 301.347Z" fill="black"/>
<path d="M123.017 301.347C122.355 301.347 121.788 300.802 121.788 300.114V262.298C121.788 261.634 122.332 261.065 123.017 261.065C123.678 261.065 124.246 261.611 124.246 262.298V300.138C124.246 300.802 123.678 301.347 123.017 301.347Z" fill="black"/>
<path d="M246.415 314.956H46.5518V370.033H246.415V314.956Z" fill="#5479F7"/>
<path d="M246.415 370.815H46.5278C46.1025 370.815 45.748 370.459 45.748 370.033V314.956C45.748 314.529 46.1025 314.174 46.5278 314.174H246.391C246.816 314.174 247.171 314.529 247.171 314.956V370.033C247.194 370.459 246.84 370.815 246.415 370.815ZM47.3313 369.226H245.635V315.739H47.3313V369.226Z" fill="black"/>
<path d="M382.028 314.956H133.582V370.033H382.028V314.956Z" fill="#5479F7"/>
<path d="M382.027 370.815H133.581C133.155 370.815 132.801 370.459 132.801 370.033V314.956C132.801 314.529 133.155 314.174 133.581 314.174H382.027C382.452 314.174 382.807 314.529 382.807 314.956V370.033C382.807 370.459 382.452 370.815 382.027 370.815ZM134.36 369.226H381.247V315.739H134.36V369.226Z" fill="black"/>
<path d="M367.045 319.058H147.474C142.063 319.058 137.668 322.59 137.668 326.929V358.012C137.668 362.374 142.063 365.883 147.474 365.883H367.045C372.456 365.883 376.851 362.351 376.851 358.012V326.929C376.851 322.59 372.456 319.058 367.045 319.058Z" fill="#99B9FF"/>
<path d="M162.224 347.001C164.708 345.968 165.887 343.111 164.859 340.619C163.83 338.127 160.982 336.943 158.498 337.976C156.015 339.008 154.835 341.865 155.864 344.357C156.893 346.849 159.74 348.033 162.224 347.001Z" fill="white"/>
<path d="M179.361 345.933C181.262 344.026 181.262 340.934 179.361 339.026C177.46 337.119 174.378 337.119 172.477 339.026C170.576 340.934 170.576 344.026 172.477 345.933C174.378 347.841 177.46 347.841 179.361 345.933Z" fill="white"/>
<path d="M193.346 347.003C195.83 345.971 197.01 343.113 195.981 340.621C194.952 338.129 192.104 336.946 189.62 337.978C187.137 339.01 185.957 341.867 186.986 344.36C188.015 346.852 190.862 348.035 193.346 347.003Z" fill="white"/>
<path d="M57.7034 363.204C57.0417 363.204 56.4746 362.659 56.4746 361.971V324.132C56.4746 323.468 57.0181 322.899 57.7034 322.899C58.365 322.899 58.9321 323.444 58.9321 324.132V361.971C58.9085 362.659 58.365 363.204 57.7034 363.204Z" fill="black"/>
<path d="M67.1555 363.204C66.4939 363.204 65.9268 362.659 65.9268 361.971V324.132C65.9268 323.468 66.4703 322.899 67.1555 322.899C67.8172 322.899 68.3843 323.444 68.3843 324.132V361.971C68.3607 362.659 67.8172 363.204 67.1555 363.204Z" fill="black"/>
<path d="M76.6077 363.204C75.946 363.204 75.3789 362.659 75.3789 361.971V324.132C75.3789 323.468 75.9224 322.899 76.6077 322.899C77.2929 322.899 77.8364 323.444 77.8364 324.132V361.971C77.8128 362.659 77.2693 363.204 76.6077 363.204Z" fill="black"/>
<path d="M85.8938 363.204C85.2322 363.204 84.665 362.659 84.665 361.971V324.132C84.665 323.468 85.2085 322.899 85.8938 322.899C86.5554 322.899 87.1226 323.444 87.1226 324.132V361.971C87.0989 362.659 86.5554 363.204 85.8938 363.204Z" fill="black"/>
<path d="M95.346 363.204C94.6843 363.204 94.1172 362.659 94.1172 361.971V324.132C94.1172 323.468 94.6607 322.899 95.346 322.899C96.0076 322.899 96.5747 323.444 96.5747 324.132V361.971C96.5511 362.659 96.0076 363.204 95.346 363.204Z" fill="black"/>
<path d="M104.775 363.204C104.113 363.204 103.546 362.659 103.546 361.971V324.132C103.546 323.468 104.089 322.899 104.775 322.899C105.436 322.899 106.003 323.444 106.003 324.132V361.971C106.003 362.659 105.46 363.204 104.775 363.204Z" fill="black"/>
<path d="M113.565 363.204C112.903 363.204 112.336 362.659 112.336 361.971V324.132C112.336 323.468 112.879 322.899 113.565 322.899C114.226 322.899 114.793 323.444 114.793 324.132V361.971C114.793 362.659 114.226 363.204 113.565 363.204Z" fill="black"/>
<path d="M123.017 363.204C122.355 363.204 121.788 362.659 121.788 361.971V324.132C121.788 323.468 122.332 322.899 123.017 322.899C123.678 322.899 124.246 323.444 124.246 324.132V361.971C124.246 362.659 123.678 363.204 123.017 363.204Z" fill="black"/>
<path d="M246.415 377.572H46.5518V432.648H246.415V377.572Z" fill="#5479F7"/>
<path d="M246.415 433.407H46.5278C46.1025 433.407 45.748 433.051 45.748 432.625V377.548C45.748 377.122 46.1025 376.766 46.5278 376.766H246.391C246.816 376.766 247.171 377.122 247.171 377.548V432.625C247.194 433.075 246.84 433.407 246.415 433.407ZM47.3313 431.842H245.635V378.354H47.3313V431.842Z" fill="black"/>
<path d="M382.028 377.572H133.582V432.648H382.028V377.572Z" fill="#5479F7"/>
<path d="M382.027 433.407H133.581C133.155 433.407 132.801 433.051 132.801 432.625V377.548C132.801 377.122 133.155 376.766 133.581 376.766H382.027C382.452 376.766 382.807 377.122 382.807 377.548V432.625C382.807 433.075 382.452 433.407 382.027 433.407ZM134.36 431.842H381.247V378.354H134.36V431.842Z" fill="black"/>
<path d="M367.045 381.674H147.474C142.063 381.674 137.668 385.206 137.668 389.545V420.628C137.668 424.99 142.063 428.499 147.474 428.499H367.045C372.456 428.499 376.851 424.967 376.851 420.628V389.545C376.851 385.206 372.456 381.674 367.045 381.674Z" fill="#99B9FF"/>
<path d="M162.227 409.617C164.711 408.585 165.89 405.728 164.862 403.236C163.833 400.744 160.985 399.56 158.501 400.592C156.017 401.625 154.838 404.482 155.867 406.974C156.896 409.466 159.743 410.65 162.227 409.617Z" fill="white"/>
<path d="M179.363 408.547C181.264 406.64 181.264 403.547 179.363 401.64C177.462 399.733 174.38 399.733 172.479 401.64C170.578 403.547 170.578 406.64 172.479 408.547C174.38 410.454 177.462 410.454 179.363 408.547Z" fill="white"/>
<path d="M193.348 409.62C195.832 408.587 197.011 405.73 195.983 403.238C194.954 400.746 192.106 399.562 189.622 400.595C187.139 401.627 185.959 404.484 186.988 406.976C188.017 409.468 190.864 410.652 193.348 409.62Z" fill="white"/>
<path d="M57.7034 425.82C57.0417 425.82 56.4746 425.275 56.4746 424.587V386.747C56.4746 386.084 57.0181 385.515 57.7034 385.515C58.365 385.515 58.9321 386.06 58.9321 386.747V424.587C58.9085 425.251 58.365 425.82 57.7034 425.82Z" fill="black"/>
<path d="M67.1555 425.82C66.4939 425.82 65.9268 425.275 65.9268 424.587V386.747C65.9268 386.084 66.4703 385.515 67.1555 385.515C67.8172 385.515 68.3843 386.06 68.3843 386.747V424.587C68.3607 425.251 67.8172 425.82 67.1555 425.82Z" fill="black"/>
<path d="M76.6077 425.82C75.946 425.82 75.3789 425.275 75.3789 424.587V386.747C75.3789 386.084 75.9224 385.515 76.6077 385.515C77.2929 385.515 77.8364 386.06 77.8364 386.747V424.587C77.8128 425.251 77.2693 425.82 76.6077 425.82Z" fill="black"/>
<path d="M85.8938 425.82C85.2322 425.82 84.665 425.275 84.665 424.587V386.747C84.665 386.084 85.2085 385.515 85.8938 385.515C86.5554 385.515 87.1226 386.06 87.1226 386.747V424.587C87.0989 425.251 86.5554 425.82 85.8938 425.82Z" fill="black"/>
<path d="M95.346 425.82C94.6843 425.82 94.1172 425.275 94.1172 424.587V386.747C94.1172 386.084 94.6607 385.515 95.346 385.515C96.0076 385.515 96.5747 386.06 96.5747 386.747V424.587C96.5511 425.251 96.0076 425.82 95.346 425.82Z" fill="black"/>
<path d="M104.775 425.82C104.113 425.82 103.546 425.275 103.546 424.587V386.747C103.546 386.084 104.089 385.515 104.775 385.515C105.436 385.515 106.003 386.06 106.003 386.747V424.587C106.003 425.251 105.46 425.82 104.775 425.82Z" fill="black"/>
<path d="M113.565 425.82C112.903 425.82 112.336 425.275 112.336 424.587V386.747C112.336 386.084 112.879 385.515 113.565 385.515C114.226 385.515 114.793 386.06 114.793 386.747V424.587C114.793 425.251 114.226 425.82 113.565 425.82Z" fill="black"/>
<path d="M123.017 425.82C122.355 425.82 121.788 425.275 121.788 424.587V386.747C121.788 386.084 122.332 385.515 123.017 385.515C123.678 385.515 124.246 386.06 124.246 386.747V424.587C124.246 425.251 123.678 425.82 123.017 425.82Z" fill="black"/>
<path d="M212.93 328.565C215.624 319.627 215.175 313.984 212.717 308.104L208.605 299.877L221.011 294.875L224.816 304.24C226.044 307.251 227.817 310.025 230.038 312.396L232.094 314.577L212.93 328.565Z" fill="white"/>
<path d="M212.929 329.348C212.764 329.348 212.622 329.3 212.48 329.205C212.197 329.016 212.079 328.66 212.197 328.328C215.032 318.963 214.182 313.605 212.031 308.436L207.92 300.233C207.825 300.043 207.802 299.806 207.896 299.593C207.967 299.379 208.132 299.213 208.345 299.142L220.751 294.14C221.153 293.974 221.602 294.163 221.767 294.566L225.571 303.931C226.753 306.871 228.478 309.527 230.628 311.85L232.684 314.032C232.849 314.197 232.92 314.411 232.897 314.648C232.873 314.861 232.755 315.075 232.59 315.217L213.449 329.182C213.26 329.3 213.095 329.348 212.929 329.348ZM209.692 300.28L213.426 307.749C213.426 307.772 213.449 307.772 213.449 307.796C215.954 313.794 216.238 319.224 214.3 326.597L230.888 314.482L229.447 312.941C227.155 310.499 225.335 307.677 224.059 304.548L220.562 295.894L209.692 300.28Z" fill="black"/>
<path d="M226.469 310.025C226.776 309.053 228.052 308.816 228.737 309.551C230.698 311.637 234.125 315.146 236.748 316.948C239.182 318.631 239.938 321.879 238.567 324.487C234.668 331.837 224.838 347.817 214.441 360.004C213.732 360.833 211.96 361.948 209.431 360.81C200.901 356.969 209.006 339.566 213.637 321.429C213.827 320.718 214.394 320.172 215.103 320.03L217.678 319.556C222.451 318.607 224.436 316.355 226.469 310.025Z" fill="black"/>
<path d="M236.156 316.545C236.156 316.545 236.557 316.805 236.746 316.948C239.18 318.631 239.936 321.879 238.566 324.487C234.667 331.837 224.837 347.817 214.44 360.004C213.731 360.833 211.958 361.948 209.43 360.81C208.65 360.454 207.469 359.506 207.469 359.506L208.178 358.605C218.126 345.897 227.105 332.477 235.092 318.465L236.156 316.545Z" fill="white"/>
<path d="M211.535 362.066C210.802 362.066 209.975 361.9 209.101 361.521C208.25 361.142 207.093 360.217 206.974 360.098C206.644 359.838 206.596 359.34 206.856 359.008L207.565 358.107C217.443 345.47 226.493 332.003 234.409 318.062L235.496 316.165C235.614 315.976 235.779 315.833 235.992 315.786C236.205 315.739 236.417 315.786 236.606 315.905C236.606 315.905 237.008 316.165 237.197 316.308C239.938 318.204 240.836 321.879 239.253 324.867C235.212 332.525 225.406 348.339 215.032 360.525C214.323 361.331 213.095 362.066 211.535 362.066ZM208.581 359.34C208.959 359.624 209.408 359.932 209.763 360.075C212.22 361.189 213.614 359.766 213.874 359.482C224.153 347.414 233.865 331.719 237.883 324.108C239.064 321.879 238.426 319.153 236.441 317.659L235.779 318.821C227.816 332.833 218.742 346.371 208.794 359.055L208.581 359.34Z" fill="black"/>
<path d="M210.093 335.749C209.715 335.749 209.384 335.488 209.314 335.085C209.243 334.658 209.526 334.255 209.952 334.184L218.506 332.738C218.931 332.667 219.333 332.951 219.404 333.378C219.475 333.805 219.191 334.208 218.766 334.279L210.212 335.725C210.188 335.749 210.141 335.749 210.093 335.749Z" fill="#CADDFF"/>
<path d="M208.698 340.633C208.32 340.633 207.989 340.349 207.918 339.969C207.848 339.543 208.155 339.14 208.58 339.068L215.575 338.025C216 337.954 216.402 338.262 216.472 338.689C216.543 339.116 216.236 339.519 215.811 339.59L208.816 340.633C208.793 340.633 208.745 340.633 208.698 340.633Z" fill="#CADDFF"/>
<path d="M282.807 198.805C282.807 198.805 196.746 179.861 170.517 194.869C166.571 197.122 162.813 201.864 161.986 206.345C159.458 220.001 167.043 249.78 208.514 305.733C209.105 306.516 210.144 306.824 211.066 306.492L224.228 301.489C225.291 301.086 225.882 299.925 225.551 298.834L207.994 237.166C207.545 235.554 208.868 234.013 210.523 234.203L292.542 244.327L282.807 198.805Z" fill="white"/>
<path d="M210.285 307.393C209.364 307.393 208.466 306.966 207.875 306.184C162.529 244.967 159.174 217.251 161.229 206.179C162.056 201.698 165.814 196.648 170.138 194.158C181.173 187.851 203.527 186.595 236.586 190.412C261.137 193.233 282.759 197.975 282.971 198.023C283.279 198.094 283.515 198.331 283.562 198.615L293.274 244.113C293.321 244.35 293.251 244.611 293.085 244.801C292.92 244.99 292.66 245.085 292.423 245.062L210.404 234.938C209.884 234.867 209.387 235.056 209.033 235.459C208.702 235.862 208.584 236.384 208.726 236.882L226.283 298.549C226.708 300.043 225.928 301.608 224.487 302.153L211.325 307.156C210.994 307.322 210.64 307.393 210.285 307.393ZM203.787 189.89C190.223 189.89 178.172 191.384 170.894 195.533C166.924 197.809 163.498 202.409 162.742 206.463C160.757 217.274 164.112 244.493 209.127 305.235C209.506 305.733 210.167 305.947 210.758 305.71L223.92 300.707C224.605 300.446 224.983 299.711 224.771 299L207.237 237.332C206.954 236.313 207.19 235.246 207.851 234.44C208.537 233.634 209.553 233.254 210.593 233.373L291.525 243.355L282.144 199.445C277.182 198.402 236.184 189.89 203.787 189.89Z" fill="black"/>
<path d="M257.379 361.402L255.701 369.44C253.456 381.152 261.963 387.127 261.963 387.127L236.773 390.209C236.773 390.209 242.279 386.842 241.145 370.602L239.704 356.993L257.379 361.402Z" fill="white"/>
<path d="M236.774 390.991C236.443 390.991 236.136 390.778 236.041 390.47C235.923 390.114 236.065 389.735 236.372 389.545C236.42 389.521 241.453 386.084 240.389 370.649L238.948 357.087C238.924 356.827 239.019 356.589 239.208 356.423C239.397 356.258 239.657 356.186 239.917 356.258L257.592 360.667C257.994 360.762 258.254 361.165 258.159 361.592L256.481 369.629C254.355 380.654 262.105 386.273 262.436 386.51C262.696 386.7 262.814 387.032 262.743 387.34C262.673 387.648 262.413 387.886 262.082 387.933L236.892 391.015C236.821 390.991 236.798 390.991 236.774 390.991ZM240.602 358.036L241.925 370.53C242.682 381.508 240.46 386.819 238.806 389.19L260.144 386.582C257.734 384.211 253.197 378.378 254.946 369.321L256.481 362.019L240.602 358.036Z" fill="black"/>
<path d="M257.903 376.315C259.982 378.71 263.739 383.215 266.646 387.577C268.465 390.304 267.378 393.481 265.441 396.089C261.471 401.447 256.036 405.549 249.632 409.793C244.032 413.491 237.793 417.403 230.279 420.841C228.247 421.79 223.639 423.07 220.567 421.529C211.28 416.882 226.758 402.324 238.951 385.538C239.424 384.874 240.251 384.566 241.031 384.709L243.89 385.278C246.749 385.847 249.656 384.637 251.262 382.219L255.091 376.458C255.729 375.486 257.146 375.415 257.903 376.315Z" fill="black"/>
<path d="M265.159 385.538C265.159 385.538 266.506 387.364 266.648 387.577C267.097 388.265 267.38 389.071 267.522 389.877C267.995 392.509 267.097 395.212 265.254 397.156C264.805 397.63 264.214 398.223 263.505 398.887C256.203 405.857 247.98 411.808 239.119 416.668C234.629 419.134 224.657 424.184 220.569 421.529C219.317 420.699 218.537 418.186 218.537 418.186C218.537 418.186 220.924 419.632 228.084 416.052C240.206 410.006 248.406 403.225 258.401 395.117C260.362 393.528 261.733 392.058 263.127 390.328C264.214 388.952 264.923 387.293 265.159 385.538Z" fill="white"/>
<path d="M223.617 423.07C222.199 423.07 221.041 422.785 220.119 422.193C218.678 421.244 217.851 418.707 217.78 418.423C217.685 418.115 217.78 417.783 218.04 417.569C218.3 417.38 218.654 417.356 218.914 417.522C218.914 417.522 221.206 418.589 227.705 415.341C239.354 409.532 247.483 402.941 256.911 395.283L257.88 394.5C259.605 393.102 260.928 391.75 262.488 389.83C263.504 388.573 264.166 387.056 264.355 385.443C264.402 385.135 264.615 384.874 264.922 384.78C265.229 384.708 265.56 384.803 265.749 385.064C265.985 385.372 267.12 386.913 267.261 387.127C267.734 387.838 268.065 388.715 268.254 389.735C268.75 392.556 267.828 395.52 265.773 397.677C265.347 398.128 264.733 398.721 264 399.432C256.746 406.355 248.475 412.377 239.449 417.332C232.549 421.149 227.232 423.07 223.617 423.07ZM219.789 419.253C220.119 419.917 220.545 420.58 220.97 420.889C223.569 422.596 229.855 420.865 238.716 416.005C247.625 411.121 255.777 405.17 262.937 398.341C263.67 397.654 264.237 397.061 264.662 396.634C266.387 394.832 267.167 392.367 266.741 390.043C266.6 389.237 266.34 388.573 265.985 388.028C265.938 387.98 265.773 387.743 265.536 387.411C265.158 388.644 264.544 389.806 263.717 390.849C262.086 392.864 260.692 394.287 258.873 395.757L257.904 396.539C248.405 404.245 240.205 410.883 228.413 416.787C224.042 418.921 221.324 419.324 219.789 419.253Z" fill="black"/>
<path d="M241.196 398.009C241.149 398.009 241.078 398.009 241.031 397.986L231.626 395.947C231.2 395.852 230.94 395.449 231.035 395.022C231.13 394.595 231.555 394.334 231.957 394.429L241.361 396.468C241.787 396.563 242.047 396.966 241.952 397.393C241.881 397.749 241.574 398.009 241.196 398.009Z" fill="#CADDFF"/>
<path d="M235.998 402.23C235.951 402.23 235.88 402.23 235.809 402.206L228.177 400.404C227.751 400.309 227.491 399.882 227.586 399.456C227.68 399.029 228.106 398.768 228.531 398.863L236.164 400.665C236.589 400.76 236.849 401.186 236.754 401.613C236.683 401.992 236.353 402.23 235.998 402.23Z" fill="#CADDFF"/>
<path d="M227.107 223.486C252.179 201.982 332.875 201.295 332.875 201.295C332.875 201.295 342.942 213.362 338.145 237.593C336.562 245.583 330.914 252.767 322.005 252.767L272.501 253.194C268.885 253.218 266.002 256.252 266.144 259.904C267.066 283.921 267.893 333.544 261.04 367.377C260.756 368.752 259.74 369.843 258.393 370.199C255.227 371.052 249.036 372.451 242.325 372.356C240.222 372.332 238.473 370.744 238.19 368.657L221.767 245.654C221.271 241.956 221.271 238.186 221.885 234.487C222.547 230.552 223.988 226.165 227.107 223.486Z" fill="white"/>
<path d="M242.939 373.138C242.727 373.138 242.514 373.138 242.301 373.138C239.844 373.115 237.741 371.218 237.41 368.752L220.987 245.749C220.467 241.79 220.491 237.973 221.105 234.345C221.98 229.105 223.823 225.241 226.587 222.87C237.103 213.837 258.204 207.34 289.278 203.523C312.364 200.702 332.639 200.488 332.852 200.488C333.088 200.488 333.301 200.583 333.443 200.773C333.868 201.271 343.698 213.41 338.877 237.735C337.436 245.038 332.143 253.549 321.982 253.549L272.501 253.976C270.965 254 269.523 254.616 268.46 255.731C267.396 256.845 266.853 258.315 266.9 259.856C267.893 285.723 268.554 334.089 261.796 367.496C261.465 369.155 260.237 370.483 258.583 370.933C255.534 371.763 249.532 373.138 242.939 373.138ZM227.627 224.079C225.146 226.213 223.468 229.745 222.665 234.63C222.098 238.091 222.05 241.766 222.547 245.56L238.97 368.563C239.206 370.246 240.647 371.55 242.325 371.574C248.989 371.668 255.109 370.27 258.181 369.44C259.244 369.155 260.048 368.302 260.26 367.211C266.995 333.947 266.333 285.723 265.341 259.927C265.27 257.959 265.979 256.086 267.326 254.64C268.673 253.218 270.516 252.411 272.477 252.411L321.982 251.985C331.198 251.985 336.018 244.161 337.341 237.451C341.618 215.852 333.891 204.021 332.45 202.077C326.401 202.172 251.304 203.76 227.627 224.079Z" fill="black"/>
<path d="M244.192 144.464L237.552 157.243C231.101 168.884 220.751 176.59 209.267 183.252L204.612 185.955C201.635 187.685 198.161 188.373 194.735 187.923L194.238 187.851C189.016 187.164 183.723 188.397 179.375 191.36L190.93 195.794C197.972 198.497 205.817 198.402 212.741 195.344C219.357 192.427 234.291 188.847 241.309 180.62C256.055 163.384 255.487 159.566 255.487 159.566L244.192 144.464Z" fill="white"/>
<path d="M201.352 198.544C197.761 198.544 194.145 197.88 190.648 196.529L179.093 192.095C178.809 192.001 178.62 191.74 178.597 191.455C178.573 191.171 178.691 190.886 178.928 190.72C183.465 187.662 188.923 186.358 194.334 187.093L194.854 187.164C198.092 187.591 201.4 186.927 204.235 185.291L208.89 182.588C218.91 176.756 230.087 169.145 236.868 156.864L243.485 144.108C243.603 143.871 243.839 143.705 244.123 143.681C244.406 143.658 244.643 143.776 244.808 143.989L256.103 159.116C256.174 159.211 256.221 159.353 256.245 159.472C256.316 159.898 256.458 164.142 241.902 181.165C236.396 187.591 226.282 191.218 218.886 193.874C216.594 194.703 214.585 195.415 213.049 196.102C209.316 197.714 205.346 198.544 201.352 198.544ZM181.125 191.194L191.215 195.083C198.186 197.762 205.724 197.596 212.435 194.656C214.018 193.945 216.05 193.233 218.366 192.404C225.597 189.819 235.498 186.263 240.72 180.146C253.197 165.565 254.544 160.776 254.686 159.851L244.312 145.957L238.239 157.622C231.244 170.236 219.878 178.012 209.67 183.939L205.015 186.642C201.896 188.444 198.21 189.179 194.665 188.705L194.145 188.634C189.608 188.041 185.048 188.942 181.125 191.194Z" fill="black"/>
<path d="M277.821 206.155C277.821 206.155 276.97 207.886 299.348 211.134C315.487 213.481 330.138 212.438 337.062 211.679C339.307 211.442 340.842 209.261 340.299 207.056C338.479 199.777 337.156 192.996 330.162 174.503C325.318 161.653 332.69 138.252 317.614 124.335C292.188 100.839 257.121 130.807 257.121 130.807L246.086 147.072C258.728 161.937 268.653 178.937 275.411 197.24L277.821 206.155Z" fill="#5479F7"/>
<path d="M287.224 161.273C287.2 161.273 287.177 161.273 287.13 161.273C286.704 161.226 286.397 160.847 286.444 160.42L288.335 142.733C288.382 142.306 288.76 141.998 289.185 142.045C289.611 142.093 289.918 142.472 289.871 142.899L287.98 160.586C287.98 160.965 287.626 161.273 287.224 161.273Z" fill="#CADDFF"/>
<path d="M310.548 170.994C310.43 170.994 310.312 170.97 310.193 170.899C309.815 170.71 309.674 170.236 309.863 169.832C313.809 162.293 319.007 141.808 319.102 137.612C319.102 137.185 319.456 136.829 319.905 136.853C320.331 136.853 320.685 137.232 320.662 137.659C320.543 142.069 315.368 162.696 311.257 170.567C311.115 170.828 310.831 170.994 310.548 170.994Z" fill="#CADDFF"/>
<path d="M168.036 192.973L227.796 197.548L194.95 137.991C193.722 135.739 191.406 134.269 188.83 134.079L140.341 130.38C137.27 130.143 135.143 133.32 136.584 135.976L168.036 192.973Z" fill="black"/>
<path d="M183.944 168.377C184.888 167.14 183.787 164.705 181.486 162.939C179.184 161.173 176.554 160.744 175.611 161.982C174.667 163.22 175.768 165.655 178.069 167.421C180.37 169.187 183.001 169.615 183.944 168.377Z" fill="white"/>
<path d="M170.942 196.837L264.683 203.997C266.62 204.14 268.298 202.693 268.463 200.749L268.629 200.228L167.87 192.522L167.705 193.044C167.563 194.988 169.005 196.695 170.942 196.837Z" fill="black"/>
<path d="M218.794 186.002L230.987 181.758C232.806 181.118 234.815 181.497 236.28 182.73L241.951 187.425C243.038 188.326 244.409 188.752 245.803 188.681C251.899 188.278 280.35 180.478 282.524 175.286C284.367 170.923 285.785 165.707 285.785 165.707L307.855 173.436C307.855 173.436 307.501 180.264 298.522 189.464C290.889 197.288 271.205 199.896 244.125 198.26C244.125 198.26 238.454 197.62 233.728 191.929C230.703 188.302 223.307 190.175 218.935 189.084C217.376 188.705 217.281 186.524 218.794 186.002Z" fill="white"/>
<path d="M258.492 199.493C254.002 199.493 249.182 199.35 244.077 199.018C243.794 198.995 238.004 198.26 233.113 192.404C231.364 190.317 227.773 190.293 224.275 190.246C222.243 190.222 220.329 190.222 218.722 189.819C217.659 189.558 216.95 188.681 216.903 187.614C216.856 186.524 217.494 185.599 218.51 185.243L230.703 180.999C232.759 180.288 235.074 180.715 236.752 182.09L242.423 186.785C243.345 187.543 244.526 187.923 245.732 187.851C252.277 187.425 279.853 179.577 281.791 174.93C283.587 170.662 285.005 165.494 285.028 165.446C285.076 165.233 285.217 165.067 285.43 164.948C285.619 164.854 285.855 164.83 286.044 164.901L308.115 172.63C308.446 172.749 308.658 173.057 308.635 173.413C308.611 173.697 308.162 180.644 299.088 189.938C292.968 196.268 279.05 199.493 258.492 199.493ZM219.03 186.737C218.486 186.927 218.462 187.401 218.486 187.567C218.486 187.709 218.557 188.207 219.124 188.326C220.565 188.681 222.385 188.705 224.323 188.705C228.151 188.729 232.121 188.776 234.342 191.408C238.808 196.766 244.196 197.454 244.243 197.454C272.268 199.161 290.865 196.197 298.001 188.895C305.161 181.568 306.697 175.76 307.028 173.958L286.352 166.703C285.879 168.339 284.697 172.227 283.28 175.57C280.822 181.426 251.521 189.061 245.873 189.44C244.266 189.535 242.707 189.037 241.454 188.017L235.783 183.323C234.531 182.28 232.782 181.972 231.246 182.493L219.03 186.737Z" fill="black"/>
<path d="M260.143 129.171C245.067 137.28 238.971 149.158 231.078 159.756C236.631 164.806 243.271 171.634 247.572 176.495C251.636 173.365 256.764 170.188 260.498 165.707L260.143 129.171Z" fill="#5479F7"/>
<path d="M278.883 99.7245L278.906 116.273C278.812 118.431 277.394 120.304 275.362 121.015L272.219 122.367C271.416 122.722 274.322 127.132 287.248 125.141C292.21 124.382 296.936 122.438 301.071 119.569L304.096 117.459C301.993 117.151 296.251 115.61 295.731 113.547L290.958 91.9953L278.883 99.7245Z" fill="white"/>
<path d="M281.152 126.445C274.134 126.445 271.676 124.026 271.369 122.959C271.18 122.296 271.511 121.845 271.913 121.655L275.055 120.304C275.079 120.304 275.103 120.28 275.103 120.28C276.851 119.688 278.033 118.099 278.127 116.25L278.104 99.7245C278.104 99.4637 278.245 99.2029 278.458 99.0607L290.533 91.3315C290.746 91.1892 291.006 91.1655 291.242 91.2603C291.478 91.3552 291.644 91.5686 291.715 91.8056L296.488 113.357C296.819 114.614 301.403 116.25 304.191 116.653C304.498 116.7 304.758 116.937 304.829 117.246C304.9 117.554 304.782 117.886 304.522 118.075L301.497 120.186C297.244 123.149 292.353 125.117 287.343 125.899C284.98 126.302 282.924 126.445 281.152 126.445ZM273.094 122.865C274.016 123.813 277.702 125.828 287.13 124.382C291.904 123.647 296.582 121.774 300.623 118.929L302.159 117.862C299.702 117.269 295.519 115.942 294.976 113.76L290.439 93.2756L279.663 100.151L279.687 116.273C279.569 118.81 277.985 120.92 275.646 121.75L273.094 122.865Z" fill="black"/>
<path d="M256.885 81.0654C260.453 78.3626 258.35 85.333 269.409 72.1033C273.828 66.8399 275.317 75.1144 276.475 73.7393C280.704 68.7129 280.563 68.8789 283.587 67.8357C285.572 67.1481 288.786 69.5427 290.015 72.1033C291.669 75.47 289.636 77.9832 291.74 86.0206C293.228 91.6634 295.473 94.2003 294.079 96.097C292.685 98.0174 289.636 96.4289 287.935 98.4205C285.737 100.981 289.4 105.296 288.077 108.995C287.25 111.318 283.776 114.472 275.6 115.586C274.277 115.776 273.001 114.969 272.576 113.689C272.032 112.053 271.347 109.991 270.874 107.952C268.582 98.2545 270.165 94.6744 267.826 93.323C264.234 91.2603 259.603 96.9031 256.956 95.0301C254.239 93.0859 251.994 84.764 256.885 81.0654Z" fill="black"/>
<path d="M277.208 83.46L277.468 86.1628C277.586 87.4431 277.799 88.6997 278.106 89.9563C278.673 92.3035 279.595 96.3104 279.949 98.6101C280.469 101.977 270.214 104.3 270.214 104.3L268.654 103.044L267.449 103.281C267.213 103.328 266.976 103.328 266.74 103.257C266.173 103.067 265.819 102.546 265.819 101.977C265.842 98.9184 265.653 92.2324 263.881 87.2772C263.904 87.2772 268.914 81.6581 277.208 83.46Z" fill="white"/>
<path d="M270.213 105.059C270.048 105.059 269.859 104.988 269.717 104.893L268.465 103.874L267.614 104.04C267.236 104.111 266.834 104.111 266.503 103.992C265.629 103.708 265.062 102.902 265.062 101.977C265.085 99.274 264.92 92.4458 263.171 87.538C263.077 87.2772 263.124 86.969 263.337 86.7556C263.55 86.5185 268.748 80.8046 277.397 82.7013C277.728 82.7724 277.987 83.0569 278.011 83.3889L278.271 86.0917C278.389 87.3246 278.602 88.5575 278.885 89.7666C279.429 92.019 280.374 96.1444 280.729 98.4916C281.319 102.38 272.222 104.656 270.379 105.059C270.331 105.059 270.26 105.059 270.213 105.059ZM268.654 102.238C268.843 102.238 269.008 102.309 269.15 102.404L270.402 103.423C274.23 102.498 279.453 100.459 279.169 98.705C278.815 96.4289 277.869 92.3509 277.349 90.1223C277.042 88.842 276.83 87.538 276.688 86.234L276.475 84.1001C270.142 82.9621 265.936 86.3999 264.778 87.4668C266.385 92.3509 266.621 98.6102 266.598 101.953C266.598 102.19 266.74 102.404 266.976 102.475C267.047 102.498 267.165 102.498 267.283 102.475L268.488 102.238C268.559 102.238 268.606 102.238 268.654 102.238Z" fill="black"/>
<path d="M280.352 91.4263C280.352 91.4263 279.714 84.93 282.715 85.2856C285.716 85.6175 286.236 92.8014 280.352 91.4263Z" fill="white"/>
<path d="M390.298 177.87C389.944 177.87 389.613 177.633 389.542 177.253C385.785 161.036 379.618 145.436 371.205 130.902C365.959 121.821 359.839 113.191 353.057 105.296C352.774 104.964 352.821 104.466 353.128 104.182C353.459 103.897 353.955 103.945 354.239 104.253C361.092 112.219 367.235 120.92 372.552 130.096C381.035 144.772 387.25 160.515 391.055 176.874C391.149 177.301 390.889 177.728 390.464 177.822C390.417 177.87 390.346 177.87 390.298 177.87Z" fill="#FFC107"/>
<path d="M405.091 197.62C404.689 197.62 404.358 197.335 404.311 196.932C404.027 194.514 403.72 192.072 403.342 189.677C403.271 189.25 403.579 188.847 404.004 188.776C404.429 188.705 404.831 189.013 404.902 189.44C405.28 191.858 405.611 194.324 405.894 196.766C405.942 197.193 405.634 197.596 405.209 197.643C405.138 197.62 405.114 197.62 405.091 197.62Z" fill="#FFC107"/>
<path d="M404.099 190.317C403.721 190.317 403.39 190.033 403.319 189.653C399.94 167.936 392.638 147.238 381.603 128.128C380.469 126.16 379.264 124.169 378.058 122.248C377.822 121.893 377.94 121.395 378.295 121.158C378.649 120.92 379.145 121.039 379.382 121.395C380.611 123.339 381.816 125.33 382.95 127.322C394.08 146.597 401.476 167.485 404.879 189.393C404.949 189.819 404.642 190.222 404.217 190.293C404.193 190.317 404.146 190.317 404.099 190.317Z" fill="#FFC107"/>
<path d="M346.961 106.007L347.032 95.1012L356.082 98.5865L346.961 106.007ZM348.568 97.3773L348.544 102.688L352.987 99.0843L348.568 97.3773Z" fill="#FFC107"/>
<path d="M378.721 81.184C378.296 81.184 377.941 80.8283 377.941 80.4015V76.3473C377.941 75.9205 378.296 75.5649 378.721 75.5649C379.147 75.5649 379.501 75.9205 379.501 76.3473V80.4015C379.501 80.8283 379.17 81.184 378.721 81.184Z" fill="#FFC107"/>
<path d="M378.721 90.6439C378.296 90.6439 377.941 90.2883 377.941 89.8615V85.8072C377.941 85.3805 378.296 85.0248 378.721 85.0248C379.147 85.0248 379.501 85.3805 379.501 85.8072V89.8615C379.501 90.2883 379.17 90.6439 378.721 90.6439Z" fill="#FFC107"/>
<path d="M376.051 83.8868H372.01C371.585 83.8868 371.23 83.5312 371.23 83.1044C371.23 82.6776 371.585 82.322 372.01 82.322H376.051C376.476 82.322 376.831 82.6776 376.831 83.1044C376.831 83.5312 376.476 83.8868 376.051 83.8868Z" fill="#FFC107"/>
<path d="M385.457 83.8868H381.416C380.991 83.8868 380.637 83.5312 380.637 83.1044C380.637 82.6776 380.991 82.322 381.416 82.322H385.457C385.883 82.322 386.237 82.6776 386.237 83.1044C386.237 83.5312 385.883 83.8868 385.457 83.8868Z" fill="#FFC107"/>
<path d="M412.298 329.371C411.259 329.371 410.266 329.039 409.439 328.376C408.447 327.593 407.809 326.479 407.643 325.246C407.478 323.989 407.809 322.757 408.588 321.761C409.368 320.765 410.455 320.125 411.708 319.959C412.96 319.793 414.189 320.125 415.181 320.907C416.174 321.69 416.812 322.78 416.977 324.037C417.308 326.621 415.488 328.992 412.913 329.324C412.7 329.371 412.487 329.371 412.298 329.371ZM412.298 321.5C412.156 321.5 412.038 321.5 411.897 321.524C411.069 321.618 410.313 322.045 409.817 322.709C409.297 323.373 409.085 324.203 409.179 325.033C409.274 325.862 409.699 326.621 410.361 327.119C411.022 327.641 411.849 327.854 412.676 327.759C414.401 327.546 415.606 325.957 415.394 324.226C415.299 323.397 414.874 322.638 414.212 322.14C413.669 321.737 412.984 321.5 412.298 321.5Z" fill="#FFC107"/>
<path d="M392.164 353.27C391.999 353.27 391.833 353.223 391.692 353.104L389.825 351.658C389.494 351.397 389.423 350.899 389.683 350.567C389.943 350.235 390.439 350.164 390.77 350.425L392.637 351.871C392.968 352.132 393.039 352.63 392.779 352.962C392.613 353.175 392.377 353.27 392.164 353.27Z" fill="#FFC107"/>
<path d="M398.662 358.344C398.497 358.344 398.332 358.296 398.19 358.178L396.323 356.732C395.992 356.471 395.921 355.973 396.181 355.641C396.441 355.309 396.937 355.238 397.268 355.499L399.135 356.945C399.466 357.206 399.537 357.704 399.277 358.036C399.135 358.225 398.899 358.344 398.662 358.344Z" fill="#FFC107"/>
<path d="M391.243 359.292C391.077 359.292 390.912 359.245 390.77 359.126C390.439 358.865 390.369 358.368 390.628 358.036L392.07 356.163C392.33 355.831 392.826 355.76 393.157 356.02C393.488 356.281 393.559 356.779 393.299 357.111L391.857 358.984C391.715 359.174 391.479 359.292 391.243 359.292Z" fill="#FFC107"/>
<path d="M396.276 352.749C396.111 352.749 395.945 352.701 395.803 352.583C395.473 352.322 395.402 351.824 395.662 351.492L397.103 349.619C397.363 349.287 397.859 349.216 398.19 349.477C398.521 349.737 398.592 350.235 398.332 350.567L396.89 352.44C396.749 352.654 396.512 352.749 396.276 352.749Z" fill="#FFC107"/>
<path d="M40.385 38.6497C37.6675 38.6497 35.4699 36.4211 35.4699 33.7182C35.4463 30.9917 37.6675 28.763 40.385 28.763C43.1024 28.763 45.3 30.9917 45.3 33.6945C45.3 36.4211 43.1024 38.6497 40.385 38.6497ZM40.385 30.3278C38.5418 30.3278 37.0295 31.8452 37.0295 33.6945C37.0295 35.5438 38.5418 37.0612 40.385 37.0612C42.2281 37.0612 43.7404 35.5438 43.7404 33.6945C43.7404 31.8452 42.2281 30.3278 40.385 30.3278Z" fill="#FFC107"/>
<path d="M9.17042 46.8531C8.74508 46.8531 8.39062 46.4975 8.39062 46.0707V42.6092C8.39062 42.1824 8.74508 41.8268 9.17042 41.8268C9.59576 41.8268 9.95021 42.1824 9.95021 42.6092V46.0707C9.95021 46.4975 9.59576 46.8531 9.17042 46.8531Z" fill="#FFC107"/>
<path d="M9.17042 54.8905C8.74508 54.8905 8.39062 54.5349 8.39062 54.1081V50.6466C8.39062 50.2198 8.74508 49.8642 9.17042 49.8642C9.59576 49.8642 9.95021 50.2198 9.95021 50.6466V54.0844C9.95021 54.5349 9.59576 54.8905 9.17042 54.8905Z" fill="#FFC107"/>
<path d="M6.87803 49.1529H3.45167C3.02633 49.1529 2.67188 48.7973 2.67188 48.3705C2.67188 47.9437 3.02633 47.5881 3.45167 47.5881H6.87803C7.30337 47.5881 7.65782 47.9437 7.65782 48.3705C7.65782 48.7973 7.30337 49.1529 6.87803 49.1529Z" fill="#FFC107"/>
<path d="M14.889 49.1529H11.439C11.0136 49.1529 10.6592 48.7973 10.6592 48.3705C10.6592 47.9437 11.0136 47.5881 11.439 47.5881H14.889C15.3143 47.5881 15.6688 47.9437 15.6688 48.3705C15.6688 48.7973 15.3143 49.1529 14.889 49.1529Z" fill="#FFC107"/>
<path d="M49.6955 71.0127C52.5536 71.0127 54.8705 68.688 54.8705 65.8204C54.8705 62.9528 52.5536 60.6281 49.6955 60.6281C46.8374 60.6281 44.5205 62.9528 44.5205 65.8204C44.5205 68.688 46.8374 71.0127 49.6955 71.0127Z" fill="#99B9FF"/>
<path d="M389.525 209.491C390.064 207.345 388.778 205.17 386.652 204.631C384.527 204.093 382.366 205.397 381.826 207.542C381.287 209.688 382.573 211.863 384.699 212.402C386.825 212.94 388.985 211.636 389.525 209.491Z" fill="#99B9FF"/>
<path d="M374.373 238.044C374.043 238.044 373.712 237.996 373.381 237.925C370.994 237.38 369.458 234.938 369.978 232.496C370.096 231.903 370.333 231.334 370.687 230.836C370.923 230.48 371.42 230.386 371.774 230.646C372.128 230.884 372.223 231.381 371.963 231.737C371.727 232.069 371.585 232.425 371.49 232.828C371.16 234.44 372.152 236.052 373.712 236.408C374.468 236.574 375.224 236.455 375.862 236.028C376.524 235.602 376.973 234.938 377.138 234.155C377.469 232.543 376.476 230.931 374.917 230.575C374.491 230.48 374.232 230.054 374.326 229.627C374.421 229.2 374.846 228.939 375.271 229.034C377.658 229.58 379.194 232.022 378.674 234.464C378.414 235.673 377.729 236.692 376.689 237.332C376.004 237.807 375.177 238.044 374.373 238.044Z" fill="#FFC107"/>
<path d="M392.189 228.892L397.057 218.175L401.831 227.967L392.189 228.892ZM397.105 221.85L394.742 227.066L399.444 226.616L397.105 221.85Z" fill="#FFC107"/>
<path d="M381.484 387.909C381.154 387.909 380.846 387.696 380.752 387.388C380.61 386.985 380.823 386.534 381.248 386.392C381.815 386.202 382.382 385.989 382.973 385.775C383.375 385.633 383.824 385.847 383.966 386.25C384.107 386.653 383.895 387.103 383.493 387.245C382.902 387.459 382.311 387.672 381.744 387.862C381.65 387.886 381.579 387.909 381.484 387.909ZM388.999 384.874C388.715 384.874 388.432 384.708 388.29 384.424C388.101 384.045 388.266 383.57 388.668 383.381C390.582 382.456 392.402 381.46 394.056 380.393C394.41 380.156 394.906 380.275 395.143 380.631C395.379 380.986 395.261 381.484 394.906 381.721C393.205 382.812 391.338 383.855 389.353 384.803C389.235 384.827 389.117 384.874 388.999 384.874ZM399.491 378.094C399.278 378.094 399.065 377.999 398.9 377.833C398.616 377.501 398.64 377.003 398.971 376.719C400.554 375.32 401.948 373.826 403.153 372.261C403.413 371.929 403.909 371.858 404.24 372.119C404.571 372.38 404.642 372.878 404.382 373.21C403.13 374.846 401.641 376.41 399.987 377.88C399.845 378.023 399.68 378.094 399.491 378.094ZM407.029 368.183C406.91 368.183 406.816 368.16 406.698 368.112C406.296 367.922 406.131 367.472 406.32 367.069C407.17 365.243 407.808 363.299 408.257 361.308C408.352 360.881 408.754 360.62 409.179 360.715C409.604 360.81 409.864 361.213 409.77 361.639C409.321 363.773 408.635 365.812 407.737 367.733C407.596 368.017 407.312 368.183 407.029 368.183ZM409.699 356.02C409.25 356.02 408.919 355.665 408.919 355.214C408.919 355.025 408.919 354.811 408.919 354.622C408.919 352.843 408.777 350.994 408.517 349.097C408.446 348.671 408.754 348.268 409.179 348.22C409.604 348.173 410.006 348.457 410.053 348.884C410.337 350.852 410.479 352.796 410.479 354.645C410.479 354.859 410.479 355.072 410.479 355.262C410.479 355.688 410.124 356.02 409.699 356.02ZM408.021 343.644C407.667 343.644 407.359 343.407 407.265 343.075C406.745 341.178 406.107 339.187 405.374 337.172C405.233 336.769 405.422 336.318 405.823 336.152C406.225 336.01 406.674 336.2 406.839 336.603C407.596 338.665 408.257 340.681 408.777 342.648C408.895 343.075 408.635 343.502 408.234 343.621C408.163 343.621 408.092 343.644 408.021 343.644ZM403.697 331.861C403.413 331.861 403.13 331.695 402.988 331.41C402.161 329.608 401.216 327.712 400.199 325.839C399.987 325.459 400.129 324.985 400.507 324.772C400.885 324.558 401.357 324.701 401.57 325.08C402.586 327 403.555 328.897 404.382 330.746C404.571 331.15 404.382 331.6 404.004 331.79C403.909 331.861 403.791 331.861 403.697 331.861ZM397.789 320.812C397.529 320.812 397.269 320.67 397.128 320.433C396.088 318.702 394.977 316.948 393.796 315.146C393.559 314.79 393.654 314.292 394.008 314.055C394.363 313.818 394.859 313.913 395.095 314.269C396.277 316.07 397.411 317.872 398.474 319.603C398.687 319.983 398.569 320.457 398.214 320.67C398.049 320.765 397.907 320.812 397.789 320.812ZM390.866 310.309C390.629 310.309 390.393 310.191 390.228 309.977C389.046 308.341 387.817 306.634 386.518 304.951C386.258 304.595 386.329 304.121 386.659 303.86C387.014 303.6 387.486 303.671 387.746 304.003C389.046 305.71 390.298 307.417 391.48 309.076C391.74 309.432 391.645 309.93 391.291 310.167C391.196 310.262 391.031 310.309 390.866 310.309ZM383.304 300.328C383.068 300.328 382.855 300.233 382.69 300.043C381.414 298.455 380.09 296.842 378.72 295.206C378.436 294.875 378.483 294.377 378.814 294.092C379.145 293.808 379.641 293.855 379.925 294.187C381.295 295.823 382.642 297.459 383.918 299.047C384.178 299.379 384.131 299.877 383.8 300.162C383.635 300.256 383.469 300.328 383.304 300.328ZM375.199 290.725C374.986 290.725 374.773 290.631 374.608 290.465C373.261 288.924 371.843 287.359 370.426 285.818C370.142 285.509 370.166 285.012 370.473 284.703C370.78 284.419 371.276 284.419 371.583 284.751C373.025 286.316 374.419 287.88 375.79 289.421C376.073 289.753 376.05 290.251 375.719 290.536C375.577 290.654 375.388 290.725 375.199 290.725ZM366.739 281.455C366.527 281.455 366.338 281.384 366.172 281.218C364.778 279.748 363.313 278.231 361.824 276.713C361.517 276.405 361.517 275.907 361.824 275.599C362.131 275.291 362.628 275.291 362.935 275.599C364.424 277.116 365.889 278.634 367.306 280.127C367.614 280.436 367.59 280.934 367.283 281.242C367.117 281.384 366.928 281.455 366.739 281.455ZM357.949 272.493C357.76 272.493 357.547 272.422 357.405 272.256C355.893 270.762 354.57 269.458 353.483 268.391L352.939 267.87C352.632 267.562 352.632 267.064 352.916 266.755C353.223 266.447 353.719 266.447 354.026 266.732L354.57 267.277C355.657 268.344 356.98 269.648 358.492 271.142C358.8 271.45 358.8 271.948 358.492 272.256C358.351 272.422 358.162 272.493 357.949 272.493ZM348.922 263.792C348.733 263.792 348.544 263.721 348.402 263.578C346.89 262.18 345.33 260.757 343.771 259.382C343.44 259.097 343.416 258.6 343.7 258.268C343.984 257.936 344.48 257.912 344.811 258.196C346.37 259.572 347.953 260.994 349.466 262.417C349.773 262.701 349.797 263.199 349.513 263.531C349.348 263.697 349.135 263.792 348.922 263.792ZM339.517 255.494C339.352 255.494 339.163 255.423 339.021 255.304C337.438 253.976 335.808 252.649 334.201 251.345C333.87 251.084 333.799 250.586 334.083 250.254C334.342 249.922 334.839 249.851 335.17 250.135C336.8 251.439 338.454 252.791 340.037 254.118C340.368 254.403 340.415 254.901 340.132 255.233C339.966 255.399 339.754 255.494 339.517 255.494ZM329.735 247.693C329.569 247.693 329.404 247.646 329.262 247.527C327.632 246.271 325.93 245.038 324.252 243.805C323.898 243.544 323.827 243.07 324.087 242.714C324.347 242.359 324.82 242.288 325.174 242.548C326.875 243.781 328.577 245.038 330.207 246.294C330.562 246.555 330.609 247.053 330.349 247.385C330.207 247.575 329.971 247.693 329.735 247.693ZM319.597 240.343C319.456 240.343 319.29 240.296 319.148 240.201C317.447 239.016 315.698 237.854 313.973 236.716C313.619 236.479 313.501 235.981 313.737 235.625C313.973 235.27 314.47 235.151 314.824 235.388C316.573 236.526 318.321 237.712 320.023 238.897C320.377 239.134 320.472 239.632 320.235 239.988C320.094 240.225 319.834 240.343 319.597 240.343ZM309.129 233.468C308.987 233.468 308.846 233.42 308.727 233.349C306.979 232.259 305.183 231.168 303.387 230.101C303.009 229.888 302.891 229.39 303.104 229.034C303.316 228.655 303.812 228.536 304.167 228.75C305.963 229.817 307.782 230.931 309.531 232.022C309.909 232.259 310.003 232.733 309.791 233.112C309.649 233.326 309.389 233.468 309.129 233.468ZM298.354 227.066C298.212 227.066 298.094 227.043 297.976 226.972C296.18 225.952 294.337 224.933 292.517 223.96C292.139 223.747 291.997 223.273 292.186 222.894C292.399 222.514 292.872 222.372 293.25 222.562C295.093 223.534 296.936 224.553 298.756 225.596C299.134 225.81 299.275 226.284 299.063 226.663C298.897 226.924 298.637 227.066 298.354 227.066ZM287.342 221.139C287.224 221.139 287.106 221.115 286.988 221.044C285.145 220.12 283.278 219.171 281.388 218.27C281.009 218.081 280.844 217.606 281.033 217.227C281.222 216.848 281.695 216.682 282.073 216.871C283.963 217.772 285.854 218.721 287.697 219.645C288.075 219.835 288.24 220.309 288.051 220.689C287.886 220.997 287.626 221.139 287.342 221.139ZM276.071 215.71C275.953 215.71 275.858 215.686 275.74 215.639C273.85 214.785 271.935 213.931 270.045 213.102C269.643 212.936 269.454 212.462 269.643 212.082C269.809 211.679 270.281 211.489 270.659 211.679C272.573 212.509 274.488 213.362 276.402 214.216C276.803 214.406 276.969 214.856 276.78 215.259C276.638 215.544 276.354 215.71 276.071 215.71ZM264.563 210.754C264.468 210.754 264.374 210.731 264.279 210.707C262.365 209.925 260.404 209.142 258.466 208.407C258.065 208.241 257.852 207.791 258.017 207.388C258.183 206.985 258.632 206.771 259.033 206.937C260.971 207.672 262.932 208.455 264.87 209.237C265.272 209.403 265.461 209.854 265.295 210.257C265.177 210.565 264.87 210.754 264.563 210.754ZM252.89 206.25C252.795 206.25 252.701 206.226 252.63 206.202C250.692 205.491 248.707 204.803 246.746 204.14C246.344 203.997 246.108 203.547 246.25 203.144C246.391 202.741 246.84 202.504 247.242 202.646C249.227 203.31 251.212 204.021 253.15 204.732C253.551 204.875 253.764 205.325 253.622 205.728C253.504 206.06 253.22 206.25 252.89 206.25ZM241.051 202.219C240.98 202.219 240.886 202.219 240.815 202.172C238.83 201.532 236.821 200.915 234.86 200.322C234.435 200.204 234.198 199.753 234.34 199.35C234.458 198.924 234.907 198.687 235.309 198.829C237.294 199.421 239.326 200.038 241.311 200.678C241.713 200.82 241.949 201.247 241.831 201.674C241.689 202.006 241.382 202.219 241.051 202.219Z" fill="white"/>
<path d="M46.3149 254.119C46.1259 254.119 45.9132 254.047 45.7714 253.881C44.2827 252.388 42.794 250.87 41.3762 249.4C41.069 249.092 41.0927 248.594 41.3999 248.286C41.7071 247.978 42.2033 248.002 42.5105 248.31C43.9283 249.78 45.3933 251.273 46.882 252.767C47.1892 253.075 47.1892 253.573 46.882 253.881C46.7166 254.047 46.504 254.119 46.3149 254.119ZM37.6427 245.062C37.43 245.062 37.2173 244.967 37.0756 244.801C35.6578 243.236 34.24 241.671 32.8694 240.13C32.5859 239.798 32.6095 239.3 32.9403 239.016C33.2711 238.731 33.7674 238.755 34.0509 239.087C35.3978 240.628 36.8156 242.193 38.2334 243.734C38.517 244.042 38.517 244.54 38.1862 244.848C38.0208 245.014 37.8317 245.062 37.6427 245.062ZM29.3722 235.649C29.1595 235.649 28.9232 235.554 28.7814 235.365C27.4345 233.729 26.0876 232.093 24.8352 230.457C24.5753 230.125 24.6225 229.627 24.977 229.366C25.3078 229.105 25.804 229.153 26.064 229.508C27.3163 231.121 28.6396 232.757 29.9865 234.369C30.2701 234.701 30.2228 235.199 29.892 235.483C29.7266 235.578 29.5612 235.649 29.3722 235.649ZM21.6688 225.762C21.4325 225.762 21.1962 225.644 21.0308 225.43C19.7784 223.723 18.5496 221.993 17.3917 220.286C17.1554 219.93 17.2499 219.432 17.6044 219.195C17.9588 218.958 18.4551 219.053 18.6914 219.408C19.8256 221.092 21.0544 222.799 22.2831 224.506C22.5431 224.861 22.4722 225.336 22.1177 225.596C21.976 225.715 21.8105 225.762 21.6688 225.762ZM14.627 215.378C14.3671 215.378 14.1071 215.236 13.9654 214.998C12.8311 213.173 11.7678 211.347 10.7517 209.569C10.539 209.19 10.6808 208.715 11.0589 208.502C11.4369 208.289 11.9095 208.431 12.1222 208.81C13.1147 210.565 14.178 212.39 15.2886 214.169C15.5249 214.548 15.4068 215.022 15.0287 215.259C14.9106 215.354 14.7688 215.378 14.627 215.378ZM8.53045 204.424C8.24689 204.424 7.96333 204.258 7.82155 203.974C6.87635 202.03 6.00204 200.085 5.22224 198.212C5.05683 197.809 5.24587 197.359 5.64758 197.193C6.04929 197.027 6.49827 197.217 6.66368 197.62C7.41984 199.469 8.29415 201.389 9.21572 203.286C9.40476 203.665 9.23935 204.14 8.86127 204.329C8.76675 204.4 8.6486 204.424 8.53045 204.424ZM3.78081 192.83C3.44999 192.83 3.1428 192.617 3.04828 192.285C2.36301 190.222 1.79588 188.16 1.34691 186.168C1.25239 185.741 1.51232 185.315 1.93766 185.22C2.36301 185.125 2.78835 185.386 2.88287 185.812C3.33184 187.757 3.87533 189.772 4.53697 191.787C4.67875 192.19 4.44245 192.641 4.04074 192.783C3.94622 192.83 3.8517 192.83 3.78081 192.83ZM1.06335 180.596C0.661642 180.596 0.330821 180.288 0.283561 179.909C0.0945202 178.178 0 176.471 0 174.811C0 174.385 0 173.958 0.0236301 173.531C0.0472601 173.104 0.401711 172.749 0.827052 172.772C1.25239 172.796 1.60684 173.152 1.58321 173.579C1.55958 173.982 1.55958 174.408 1.55958 174.811C1.55958 176.4 1.6541 178.06 1.84314 179.719C1.8904 180.146 1.58321 180.549 1.15787 180.573C1.11061 180.596 1.08698 180.596 1.06335 180.596ZM1.48869 168.125C1.44143 168.125 1.39417 168.125 1.34691 168.102C0.921572 168.007 0.638012 167.604 0.732532 167.177C1.15787 165.043 1.77225 162.981 2.55205 161.036C2.71746 160.633 3.16643 160.444 3.56814 160.61C3.96985 160.776 4.15889 161.226 3.99348 161.629C3.23732 163.502 2.6702 165.47 2.26849 167.509C2.17397 167.865 1.86677 168.125 1.48869 168.125ZM6.14382 156.555C6.00204 156.555 5.86025 156.508 5.71847 156.437C5.36402 156.2 5.24587 155.726 5.48217 155.346C6.61642 153.568 7.96333 151.885 9.45202 150.32C9.75921 150.012 10.2554 149.988 10.5626 150.296C10.8698 150.604 10.8935 151.102 10.5863 151.41C9.16846 152.904 7.89244 154.516 6.80546 156.2C6.64005 156.413 6.40375 156.555 6.14382 156.555ZM14.6979 147.498C14.4616 147.498 14.2253 147.38 14.0835 147.19C13.8236 146.835 13.8945 146.36 14.2489 146.1C15.8794 144.867 17.6753 143.705 19.5893 142.638C19.9674 142.425 20.44 142.567 20.6527 142.946C20.8653 143.326 20.7236 143.8 20.3455 144.013C18.5023 145.033 16.7537 146.147 15.1941 147.356C15.0287 147.427 14.8633 147.498 14.6979 147.498ZM25.5914 141.381C25.2842 141.381 25.0006 141.192 24.8588 140.907C24.6934 140.504 24.8825 140.054 25.2842 139.888C27.1746 139.105 29.1595 138.394 31.2389 137.754C31.6406 137.635 32.0896 137.849 32.2078 138.276C32.3259 138.679 32.1133 139.129 31.6879 139.248C29.6557 139.864 27.6944 140.575 25.8749 141.334C25.7804 141.381 25.6859 141.381 25.5914 141.381ZM37.5245 137.659C37.1701 137.659 36.8393 137.422 36.7684 137.043C36.6739 136.616 36.9338 136.189 37.3591 136.094C39.344 135.644 41.4235 135.241 43.5502 134.909C43.9755 134.838 44.3773 135.122 44.4481 135.549C44.519 135.976 44.2355 136.379 43.8101 136.45C41.7071 136.782 39.6749 137.185 37.7136 137.612C37.6427 137.659 37.5718 137.659 37.5245 137.659ZM49.8594 135.668C49.4577 135.668 49.1269 135.359 49.0796 134.956C49.0324 134.53 49.3396 134.15 49.7649 134.103C51.7971 133.889 53.9002 133.723 56.0269 133.605C56.4758 133.581 56.8303 133.913 56.8539 134.34C56.8776 134.767 56.5467 135.146 56.1214 135.17C53.9947 135.288 51.9152 135.454 49.9303 135.668C49.9067 135.668 49.8831 135.668 49.8594 135.668Z" fill="white"/>
</svg>
