<svg width="444" height="414" viewBox="0 0 444 414" fill="none" xmlns="http://www.w3.org/2000/svg">
<path d="M91.2354 167.383C71.7011 165.643 51.1162 174.284 40.1554 190.555C29.1947 206.827 29.364 230.331 41.9297 245.394C52.6394 258.233 70.6155 264.334 78.7806 278.923C88.4631 296.216 80.5724 317.649 81.191 337.458C82.2241 370.503 108.996 399.11 140.518 409.047C172.04 418.983 206.813 412.859 237.028 399.466C256.726 390.732 276.797 376.586 280.737 355.393C282.202 347.523 281.245 339.402 282.038 331.433C282.826 323.464 285.937 314.986 292.917 311.069C302.156 305.879 314.022 310.9 321.691 318.221C329.354 325.536 334.852 335.047 343.25 341.51C361.413 355.481 389.562 350.588 405.793 334.404C422.018 318.227 427.603 293.683 425.631 270.849C424.143 253.62 416.865 234.628 400.686 228.539C395.358 226.531 389.346 226.064 384.683 222.794C377.504 217.762 375.858 207.667 377.195 199.003C378.531 190.339 382.167 182.125 383.148 173.414C385.418 153.208 371.084 132.435 351.386 127.403C335.295 123.293 317.588 128.728 302.005 122.995C286.591 117.326 276.955 102.141 269.858 87.323C262.761 72.5055 256.633 56.4736 244.283 45.6436C232.377 35.1989 215.294 30.9895 199.897 34.7027C184.501 38.4158 171.217 49.9581 165.375 64.6822C159.918 78.443 160.863 93.8385 162.76 108.516C165.626 130.625 172.77 165.824 150.924 181.518C142.928 187.257 134.191 185.371 125.997 181.051C114.4 174.926 104.764 168.586 91.2354 167.383Z" fill="#0774FF"/>
<g opacity="0.1">
<path d="M288.166 66.784L271.212 49.7362L268.019 52.9706L264.144 49.1407C264.325 48.9597 264.465 48.732 264.646 48.5043C273.167 36.8336 272.484 20.8309 262.323 10.6665C256.907 5.28946 249.658 2.27692 242.006 2.27692C234.302 2.27692 227.059 5.28363 221.637 10.6665C210.426 21.9285 210.426 40.2082 221.637 51.4235C227.106 56.8472 234.349 59.8131 242.006 59.8131C248.204 59.8131 254.128 57.5361 259.463 53.7471C259.69 53.6128 259.918 53.426 260.099 53.245L263.881 57.0749L260.688 60.2218L277.731 77.2228C279.143 78.6357 280.964 79.3654 282.972 79.3654C284.98 79.3654 286.8 78.5889 288.166 77.2228C291.038 74.3504 291.038 69.6564 288.166 66.784ZM257.636 46.6828C253.533 50.8747 247.977 53.2041 242.006 53.2041C236.036 53.2041 230.433 50.9272 226.33 46.7295C222.139 42.5785 219.857 36.9738 219.857 31.0479C219.857 25.0754 222.133 19.5173 226.33 15.413C230.433 11.2211 235.989 8.89168 242.006 8.89168C247.977 8.89168 253.539 11.1686 257.636 15.3663C261.827 19.5173 264.109 25.1221 264.109 31.0479C264.109 37.0146 261.827 42.5785 257.636 46.6828ZM265.013 55.9423L261.278 52.2058C262.282 51.3826 262.212 51.4352 263.076 50.3434L266.904 54.1266L265.013 55.9423Z" fill="black"/>
</g>
<path d="M283.615 64.507L266.661 47.4593L263.468 50.6937L259.593 46.8638C259.774 46.6828 259.914 46.4551 260.095 46.2274C268.616 34.5567 267.933 18.554 257.772 8.38959C252.35 3.00671 245.107 0 237.45 0C229.746 0 222.503 3.00671 217.081 8.38959C205.869 19.6516 205.869 37.9312 217.081 49.1466C222.549 54.5703 229.792 57.5362 237.45 57.5362C243.648 57.5362 249.572 55.2592 254.906 51.4702C255.134 51.3359 255.361 51.1491 255.542 50.9681L259.324 54.798L256.132 57.9448L273.174 74.9459C274.586 76.3587 276.407 77.0885 278.415 77.0885C280.423 77.0885 282.244 76.312 283.61 74.9459C286.487 72.0734 286.487 67.3795 283.615 64.507ZM253.079 44.4C248.976 48.5919 243.42 50.9214 237.45 50.9214C231.479 50.9214 225.876 48.6445 221.773 44.4468C217.583 40.2957 215.301 34.691 215.301 28.7652C215.301 22.7926 217.577 17.2346 221.773 13.1303C225.876 8.93839 231.432 6.60892 237.45 6.60892C243.42 6.60892 248.982 8.88585 253.079 13.0836C257.27 17.2346 259.552 22.8393 259.552 28.7652C259.552 34.7377 257.27 40.2957 253.079 44.4ZM260.462 53.6654L256.727 49.9289C257.731 49.1057 257.661 49.1582 258.525 48.0665L262.353 51.8497L260.462 53.6654Z" fill="white"/>
<path d="M330.383 207.726C329.945 207.726 329.513 207.562 329.181 207.229C328.515 206.564 328.515 205.49 329.181 204.824L345.231 188.769C345.896 188.103 346.97 188.103 347.635 188.769C348.301 189.434 348.301 190.509 347.635 191.174L331.585 207.229C331.253 207.556 330.815 207.726 330.383 207.726Z" fill="white"/>
<path d="M346.433 207.726C345.995 207.726 345.563 207.562 345.231 207.229L329.181 191.174C328.515 190.509 328.515 189.434 329.181 188.769C329.846 188.103 330.92 188.103 331.585 188.769L347.635 204.824C348.301 205.49 348.301 206.564 347.635 207.229C347.303 207.556 346.865 207.726 346.433 207.726Z" fill="white"/>
<path d="M263.567 113.222C258.162 113.222 253.762 108.82 253.762 103.413C253.762 97.9895 258.162 93.5758 263.567 93.5758C268.989 93.5758 273.401 97.9895 273.401 103.413C273.401 108.825 268.989 113.222 263.567 113.222ZM263.567 96.9854C260.036 96.9854 257.164 99.8695 257.164 103.419C257.164 106.951 260.036 109.824 263.567 109.824C267.115 109.824 269.999 106.951 269.999 103.419C269.999 99.8695 267.115 96.9854 263.567 96.9854Z" fill="white"/>
<path d="M182.546 132.33C178.338 132.33 174.912 128.903 174.912 124.694C174.912 120.473 178.338 117.034 182.546 117.034C186.772 117.034 190.203 120.473 190.203 124.694C190.203 128.903 186.772 132.33 182.546 132.33ZM182.546 119.685C179.797 119.685 177.562 121.932 177.562 124.694C177.562 127.444 179.797 129.68 182.546 129.68C185.307 129.68 187.554 127.444 187.554 124.694C187.56 121.932 185.313 119.685 182.546 119.685Z" fill="white"/>
<path d="M314.383 55.9248C308.979 55.9248 304.578 51.5227 304.578 46.1165C304.578 40.6927 308.979 36.279 314.383 36.279C319.805 36.279 324.218 40.6927 324.218 46.1165C324.212 51.5227 319.805 55.9248 314.383 55.9248ZM314.383 39.6827C310.852 39.6827 307.981 42.5668 307.981 46.1165C307.981 49.6486 310.852 52.5211 314.383 52.5211C317.932 52.5211 320.815 49.6486 320.815 46.1165C320.815 42.5668 317.926 39.6827 314.383 39.6827Z" fill="white"/>
<path d="M183.456 72.0508C183.129 72.0508 182.803 71.9282 182.557 71.6771L177.929 67.0469C177.433 66.5506 177.433 65.7449 177.929 65.2486C178.425 64.7523 179.23 64.7523 179.727 65.2486L184.355 69.8788C184.851 70.3751 184.851 71.1808 184.355 71.6771C184.11 71.9282 183.783 72.0508 183.456 72.0508Z" fill="white"/>
<path d="M193.992 61.5127C193.665 61.5127 193.338 61.3901 193.093 61.139L188.464 56.5088C187.968 56.0125 187.968 55.2068 188.464 54.7105C188.96 54.2142 189.766 54.2142 190.262 54.7105L194.89 59.3407C195.387 59.837 195.387 60.6427 194.89 61.139C194.645 61.3901 194.318 61.5127 193.992 61.5127Z" fill="white"/>
<path d="M178.828 61.5127C178.501 61.5127 178.174 61.3901 177.929 61.139C177.433 60.6427 177.433 59.837 177.929 59.3407L182.557 54.7105C183.054 54.2142 183.859 54.2142 184.355 54.7105C184.851 55.2068 184.851 56.0125 184.355 56.5088L179.727 61.139C179.481 61.3901 179.155 61.5127 178.828 61.5127Z" fill="white"/>
<path d="M189.363 72.0508C189.036 72.0508 188.709 71.9282 188.464 71.6771C187.968 71.1808 187.968 70.3751 188.464 69.8788L193.093 65.2486C193.589 64.7523 194.394 64.7523 194.89 65.2486C195.387 65.7449 195.387 66.5506 194.89 67.0469L190.262 71.6771C190.017 71.9282 189.69 72.0508 189.363 72.0508Z" fill="white"/>
<path d="M411.492 105.837C411.165 105.837 410.838 105.714 410.593 105.463L405.964 100.833C405.468 100.337 405.468 99.5309 405.964 99.0346C406.46 98.5383 407.266 98.5383 407.762 99.0346L412.39 103.665C412.887 104.161 412.887 104.967 412.39 105.463C412.145 105.714 411.818 105.837 411.492 105.837Z" fill="white"/>
<path d="M422.025 95.3047C421.698 95.3047 421.371 95.1821 421.126 94.931L416.497 90.3008C416.001 89.8045 416.001 88.9987 416.497 88.5024C416.993 88.0061 417.799 88.0061 418.301 88.5024L422.929 93.1326C423.426 93.6289 423.426 94.4347 422.929 94.931C422.678 95.1762 422.352 95.3047 422.025 95.3047Z" fill="white"/>
<path d="M406.863 95.3046C406.536 95.3046 406.209 95.182 405.964 94.9309C405.468 94.4346 405.468 93.6289 405.964 93.1326L410.593 88.5024C411.089 88.0061 411.894 88.0061 412.39 88.5024C412.887 88.9987 412.887 89.8044 412.39 90.3007L407.762 94.9309C407.517 95.1762 407.19 95.3046 406.863 95.3046Z" fill="white"/>
<path d="M417.396 105.837C417.069 105.837 416.742 105.714 416.497 105.463C416.001 104.967 416.001 104.161 416.497 103.665L421.126 99.0346C421.622 98.5383 422.427 98.5383 422.929 99.0346C423.431 99.5309 423.426 100.337 422.929 100.833L418.301 105.463C418.05 105.714 417.723 105.837 417.396 105.837Z" fill="white"/>
<path d="M432.193 312.734C431.866 312.734 431.539 312.611 431.294 312.36L426.665 307.735C426.169 307.239 426.169 306.433 426.665 305.937C427.161 305.441 427.967 305.441 428.463 305.937L433.092 310.567C433.588 311.064 433.588 311.869 433.092 312.366C432.846 312.611 432.52 312.734 432.193 312.734Z" fill="white"/>
<path d="M442.726 302.195C442.399 302.195 442.072 302.073 441.827 301.822L437.198 297.192C436.702 296.695 436.702 295.889 437.198 295.387C437.694 294.891 438.5 294.891 439.002 295.387L443.631 300.018C444.127 300.514 444.127 301.32 443.631 301.822C443.374 302.073 443.053 302.195 442.726 302.195Z" fill="white"/>
<path d="M427.564 302.195C427.237 302.195 426.91 302.073 426.665 301.822C426.169 301.325 426.169 300.52 426.665 300.018L431.294 295.387C431.79 294.891 432.595 294.891 433.097 295.387C433.594 295.884 433.594 296.689 433.097 297.192L428.469 301.822C428.218 302.073 427.891 302.195 427.564 302.195Z" fill="white"/>
<path d="M438.097 312.734C437.77 312.734 437.443 312.611 437.198 312.36C436.702 311.864 436.702 311.058 437.198 310.561L441.827 305.931C442.323 305.435 443.129 305.435 443.625 305.931C444.121 306.428 444.121 307.233 443.625 307.73L438.996 312.36C438.751 312.611 438.424 312.734 438.097 312.734Z" fill="white"/>
<path opacity="0.1" d="M370.448 92.8869H312.989C312.242 92.8869 311.67 93.459 311.67 94.2063V129.166C311.67 129.913 312.242 130.485 312.989 130.485H319.537V144.824C319.537 145.396 319.888 145.881 320.372 146.056C320.547 146.144 320.681 146.144 320.81 146.144C321.207 146.144 321.603 145.968 321.866 145.659L333.691 130.485H370.442C371.148 130.485 371.715 129.913 371.715 129.166V94.2063C371.726 93.459 371.154 92.8869 370.448 92.8869ZM326.354 115.446C323.232 115.446 320.681 112.982 320.681 109.946C320.681 106.957 323.232 104.493 326.354 104.493C329.43 104.493 331.981 106.957 331.981 109.946C331.986 112.982 329.436 115.446 326.354 115.446ZM342.142 115.446C339.019 115.446 336.469 112.982 336.469 109.946C336.469 106.957 339.019 104.493 342.142 104.493C345.217 104.493 347.768 106.957 347.768 109.946C347.768 112.982 345.217 115.446 342.142 115.446ZM357.083 115.446C353.96 115.446 351.457 112.982 351.457 109.946C351.457 106.957 353.96 104.493 357.083 104.493C360.205 104.493 362.709 106.957 362.709 109.946C362.715 112.982 360.205 115.446 357.083 115.446Z" fill="black"/>
<path d="M366.052 88.4907H308.592C307.845 88.4907 307.273 89.0628 307.273 89.8101V124.77C307.273 125.517 307.845 126.089 308.592 126.089H315.141V140.428C315.141 141 315.491 141.485 315.975 141.66C316.151 141.747 316.285 141.747 316.413 141.747C316.81 141.747 317.207 141.572 317.47 141.263L329.294 126.089H366.046C366.752 126.089 367.318 125.517 367.318 124.77V89.8101C367.324 89.0628 366.758 88.4907 366.052 88.4907ZM321.958 111.05C318.835 111.05 316.285 108.586 316.285 105.55C316.285 102.561 318.835 100.097 321.958 100.097C325.034 100.097 327.584 102.561 327.584 105.55C327.584 108.586 325.034 111.05 321.958 111.05ZM337.739 111.05C334.617 111.05 332.066 108.586 332.066 105.55C332.066 102.561 334.617 100.097 337.739 100.097C340.815 100.097 343.366 102.561 343.366 105.55C343.366 108.586 340.821 111.05 337.739 111.05ZM352.686 111.05C349.564 111.05 347.06 108.586 347.06 105.55C347.06 102.561 349.564 100.097 352.686 100.097C355.809 100.097 358.313 102.561 358.313 105.55C358.313 108.586 355.809 111.05 352.686 111.05Z" fill="white"/>
<path opacity="0.1" d="M46.1428 165.795C46.528 165.404 46.528 164.756 46.1428 164.365C45.7518 163.974 45.1039 163.974 44.7129 164.365C41.2986 167.798 35.7132 167.798 32.2989 164.365C31.9079 163.974 31.26 163.974 30.869 164.365C30.4838 164.756 30.4838 165.404 30.869 165.795C32.9759 167.897 35.7482 168.954 38.5088 168.954C41.2636 168.948 44.0359 167.897 46.1428 165.795Z" fill="black"/>
<path opacity="0.1" d="M61.1154 179.34C48.643 191.828 28.3558 191.816 15.9009 179.34C15.5099 178.949 14.862 178.949 14.471 179.34C14.08 179.731 14.08 180.379 14.471 180.77C21.1011 187.397 29.8032 190.713 38.5111 190.713C47.2131 190.713 55.9152 187.397 62.5453 180.77C62.9305 180.379 62.9305 179.731 62.5453 179.34C62.1542 178.943 61.5122 178.943 61.1154 179.34Z" fill="black"/>
<path opacity="0.1" d="M21.9412 171.861C21.556 172.252 21.556 172.9 21.9412 173.292C26.5111 177.857 32.5051 180.14 38.5049 180.14C44.5047 180.14 50.5045 177.857 55.0685 173.292C55.4596 172.9 55.4713 172.258 55.0744 171.867C54.6833 171.476 54.0413 171.464 53.6503 171.861C45.2926 180.222 31.7172 180.222 23.377 171.861C22.9801 171.47 22.3381 171.47 21.9412 171.861Z" fill="black"/>
<path d="M44.5744 163.349C44.9596 162.958 44.9596 162.31 44.5744 161.919C44.1834 161.527 43.5356 161.527 43.1445 161.919C39.7302 165.352 34.1448 165.352 30.7305 161.919C30.3395 161.527 29.6917 161.527 29.3006 161.919C28.9154 162.31 28.9154 162.958 29.3006 163.349C31.4076 165.451 34.1798 166.507 36.9404 166.507C39.6952 166.507 42.4675 165.451 44.5744 163.349Z" fill="white"/>
<path d="M59.5451 176.894C47.0727 189.382 26.7854 189.37 14.3306 176.894C13.9396 176.503 13.2917 176.503 12.9007 176.894C12.5097 177.285 12.5097 177.933 12.9007 178.324C19.5308 184.951 28.2329 188.267 36.9408 188.267C45.6428 188.267 54.3448 184.951 60.975 178.324C61.3602 177.933 61.3602 177.285 60.975 176.894C60.5839 176.503 59.9419 176.503 59.5451 176.894Z" fill="white"/>
<path d="M20.3768 169.421C19.9916 169.812 19.9916 170.46 20.3768 170.851C24.9467 175.417 30.9406 177.699 36.9404 177.699C42.9402 177.699 48.94 175.417 53.5041 170.851C53.8951 170.46 53.9068 169.818 53.5099 169.427C53.1189 169.035 52.4769 169.024 52.0858 169.421C43.7282 177.781 30.1527 177.781 21.8125 169.421C21.4157 169.024 20.7678 169.024 20.3768 169.421Z" fill="white"/>
<path d="M23.1254 232.705C23.4016 231.031 22.2692 229.45 20.5961 229.174C18.923 228.898 17.3428 230.031 17.0665 231.704C16.7903 233.378 17.9227 234.959 19.5958 235.235C21.2689 235.511 22.8491 234.378 23.1254 232.705Z" fill="white"/>
<path d="M20.08 246.825C21.7757 246.825 23.1503 245.45 23.1503 243.754C23.1503 242.058 21.7757 240.683 20.08 240.683C18.3844 240.683 17.0098 242.058 17.0098 243.754C17.0098 245.45 18.3844 246.825 20.08 246.825Z" fill="white"/>
<path d="M21.3024 258.138C22.86 257.467 23.5793 255.661 22.909 254.102C22.2387 252.544 20.4326 251.825 18.875 252.495C17.3174 253.166 16.5981 254.972 17.2684 256.531C17.9386 258.089 19.7447 258.808 21.3024 258.138Z" fill="white"/>
<path d="M402.782 138.234C404.349 137.585 405.093 135.789 404.444 134.222C403.795 132.654 401.999 131.91 400.432 132.559C398.866 133.209 398.122 135.005 398.771 136.572C399.42 138.139 401.216 138.884 402.782 138.234Z" fill="white"/>
<path d="M402.782 149.794C404.349 149.145 405.093 147.349 404.444 145.781C403.795 144.214 401.999 143.47 400.432 144.119C398.866 144.768 398.122 146.565 398.771 148.132C399.42 149.699 401.216 150.443 402.782 149.794Z" fill="white"/>
<path d="M404.633 159.008C404.905 157.334 403.768 155.756 402.094 155.484C400.421 155.213 398.844 156.35 398.572 158.024C398.3 159.698 399.437 161.276 401.111 161.548C402.784 161.819 404.362 160.682 404.633 159.008Z" fill="white"/>
<path d="M62.8312 97.359C61.9033 97.359 61.1445 96.5942 61.1445 95.6601V58.7388C61.1445 57.8106 61.8974 57.0516 62.8312 57.0516C63.7651 57.0516 64.5296 57.8106 64.5296 58.7388V95.6601C64.5296 96.5942 63.7651 97.359 62.8312 97.359Z" fill="white"/>
<path d="M436.932 278.485C436.156 278.485 435.525 277.849 435.525 277.067V246.293C435.525 245.517 436.156 244.886 436.932 244.886C437.714 244.886 438.35 245.517 438.35 246.293V277.067C438.344 277.849 437.708 278.485 436.932 278.485Z" fill="white"/>
<path d="M436.932 242.779C436.156 242.779 435.525 242.142 435.525 241.36V230.18C435.525 229.403 436.156 228.773 436.932 228.773C437.714 228.773 438.35 229.403 438.35 230.18V241.36C438.344 242.142 437.708 242.779 436.932 242.779Z" fill="white"/>
<path d="M297.337 163.699C297.691 162.04 296.633 160.408 294.975 160.054C293.317 159.7 291.686 160.758 291.332 162.417C290.978 164.076 292.036 165.708 293.694 166.062C295.352 166.415 296.984 165.358 297.337 163.699Z" fill="white"/>
<path d="M297.353 152.123C297.692 150.461 296.62 148.839 294.958 148.499C293.297 148.16 291.675 149.233 291.336 150.895C290.997 152.557 292.069 154.179 293.731 154.518C295.392 154.857 297.014 153.785 297.353 152.123Z" fill="white"/>
<path d="M297.321 140.739C297.765 139.102 296.797 137.415 295.16 136.972C293.523 136.529 291.837 137.497 291.394 139.134C290.951 140.771 291.919 142.458 293.556 142.901C295.192 143.345 296.878 142.376 297.321 140.739Z" fill="white"/>
<path d="M209.084 95.5245C209.208 93.8329 207.938 92.3606 206.247 92.236C204.556 92.1114 203.084 93.3818 202.96 95.0734C202.835 96.765 204.105 98.2373 205.796 98.3619C207.487 98.4865 208.959 97.2161 209.084 95.5245Z" fill="white"/>
<path d="M197.535 95.4269C197.602 93.732 196.282 92.3042 194.588 92.2376C192.894 92.1711 191.466 93.4911 191.4 95.1859C191.333 96.8808 192.653 98.3087 194.347 98.3752C196.041 98.4417 197.469 97.1217 197.535 95.4269Z" fill="white"/>
<path d="M182.973 98.376C184.669 98.3411 186.015 96.938 185.98 95.2422C185.945 93.5463 184.542 92.1999 182.847 92.2348C181.152 92.2697 179.806 93.6728 179.841 95.3687C179.876 97.0645 181.278 98.411 182.973 98.376Z" fill="white"/>
<path d="M342.892 399.11C342.046 399.11 341.363 398.415 341.363 397.569V302.189C341.363 301.342 342.052 300.653 342.892 300.653C343.745 300.653 344.433 301.342 344.433 302.189V397.569C344.433 398.421 343.745 399.11 342.892 399.11Z" fill="white"/>
<path d="M358.377 331.293C357.531 331.293 356.848 330.598 356.848 329.751V315.78C356.848 314.934 357.536 314.245 358.377 314.245C359.229 314.245 359.918 314.934 359.918 315.78V329.746C359.918 330.598 359.229 331.293 358.377 331.293Z" fill="white"/>
<path d="M358.377 371.501C357.531 371.501 356.848 370.806 356.848 369.96V339.484C356.848 338.637 357.536 337.948 358.377 337.948C359.229 337.948 359.918 338.637 359.918 339.484V369.96C359.918 370.806 359.229 371.501 358.377 371.501Z" fill="white"/>
<path d="M342.886 293.525C340.032 293.525 337.709 291.201 337.709 288.34C337.709 285.468 340.032 283.139 342.886 283.139C345.757 283.139 348.086 285.474 348.086 288.34C348.092 291.201 345.757 293.525 342.886 293.525Z" fill="white"/>
<path d="M358.372 388.835C355.518 388.835 353.195 386.511 353.195 383.656C353.195 380.784 355.518 378.448 358.372 378.448C361.244 378.448 363.572 380.784 363.572 383.656C363.578 386.505 361.244 388.835 358.372 388.835Z" fill="white"/>
<path opacity="0.1" d="M412.681 341.965C413.008 341.632 413.008 341.089 412.681 340.762C412.348 340.43 411.805 340.43 411.479 340.762C408.607 343.652 403.903 343.652 401.031 340.762C400.699 340.43 400.156 340.43 399.829 340.762C399.502 341.095 399.502 341.638 399.829 341.965C401.603 343.734 403.932 344.621 406.261 344.621C408.572 344.616 410.907 343.728 412.681 341.965Z" fill="black"/>
<path opacity="0.1" d="M425.28 353.361C414.787 363.87 397.709 363.859 387.227 353.361C386.895 353.029 386.352 353.029 386.025 353.361C385.692 353.694 385.692 354.237 386.025 354.564C391.604 360.14 398.929 362.93 406.26 362.93C413.584 362.93 420.903 360.14 426.489 354.564C426.815 354.231 426.815 353.688 426.489 353.361C426.15 353.029 425.607 353.029 425.28 353.361Z" fill="black"/>
<path opacity="0.1" d="M392.31 347.068C391.983 347.4 391.983 347.943 392.31 348.27C396.156 352.112 401.204 354.033 406.247 354.033C411.289 354.033 416.344 352.112 420.184 348.27C420.517 347.938 420.523 347.4 420.19 347.074C419.857 346.741 419.32 346.735 418.994 347.068C411.961 354.103 400.533 354.103 393.518 347.068C393.185 346.735 392.642 346.735 392.31 347.068Z" fill="black"/>
<path d="M411.364 339.91C411.691 339.577 411.691 339.034 411.364 338.707C411.032 338.375 410.489 338.375 410.162 338.707C407.291 341.597 402.586 341.597 399.715 338.707C399.382 338.375 398.84 338.375 398.513 338.707C398.186 339.04 398.186 339.583 398.513 339.91C400.287 341.679 402.616 342.566 404.944 342.566C407.256 342.561 409.59 341.673 411.364 339.91Z" fill="white"/>
<path d="M423.958 351.306C413.464 361.815 396.387 361.803 385.911 351.306C385.578 350.973 385.035 350.973 384.708 351.306C384.376 351.639 384.376 352.182 384.708 352.509C390.288 358.084 397.613 360.875 404.943 360.875C412.268 360.875 419.587 358.084 425.172 352.509C425.499 352.176 425.499 351.633 425.172 351.306C424.834 350.973 424.291 350.973 423.958 351.306Z" fill="white"/>
<path d="M390.993 345.013C390.666 345.345 390.666 345.888 390.993 346.215C394.839 350.057 399.888 351.978 404.93 351.978C409.973 351.978 415.027 350.057 418.868 346.215C419.2 345.883 419.206 345.345 418.874 345.018C418.541 344.686 418.004 344.68 417.677 345.013C410.644 352.048 399.217 352.048 392.201 345.013C391.869 344.68 391.326 344.68 390.993 345.013Z" fill="white"/>
<path d="M5.6046 118.418C2.75061 118.418 0.427734 116.094 0.427734 113.233C0.427734 110.361 2.75061 108.031 5.6046 108.031C8.4761 108.031 10.8048 110.367 10.8048 113.233C10.8107 116.094 8.4761 118.418 5.6046 118.418Z" fill="white"/>
<path d="M34.9551 52.5269C30.8638 52.5269 27.5371 49.1991 27.5371 45.1065C27.5371 40.9963 30.8638 37.6568 34.9551 37.6568C39.064 37.6568 42.4024 41.0022 42.4024 45.1065C42.4024 49.1991 39.064 52.5269 34.9551 52.5269Z" fill="white"/>
<path opacity="0.1" d="M420.029 257.316C420.029 263.452 415.05 268.374 408.975 268.374H393.426V261.082H402.963L384.503 242.796L366.042 261.082H375.579V268.374H362.885C355.233 268.374 348.977 262.115 348.977 254.461C348.977 246.93 354.93 240.794 362.336 240.49C364.28 232.591 371.382 226.823 379.828 226.823C388.267 226.823 395.376 232.597 397.378 240.49H397.862C402.537 240.49 406.669 242.796 409.22 246.264C415.173 246.381 420.029 251.238 420.029 257.316Z" fill="black"/>
<path d="M413.956 251.238C413.956 257.374 408.978 262.296 402.902 262.296H387.354V255.004H396.891L378.43 236.719L359.97 255.004H369.507V262.296H356.812C349.161 262.296 342.904 256.037 342.904 248.383C342.904 240.852 348.857 234.716 356.264 234.412C358.207 226.513 365.31 220.745 373.755 220.745C382.195 220.745 389.304 226.519 391.305 234.412H391.79C396.465 234.412 400.597 236.719 403.147 240.186C409.095 240.303 413.956 245.161 413.956 251.238Z" fill="white"/>
<path opacity="0.1" d="M140.862 118.342H113.857C113.326 115.446 111.126 113.198 108.184 112.667V104.709H135.638C136.333 104.709 136.864 104.178 136.864 103.483V67.4087C136.864 66.7548 136.333 66.2235 135.638 66.2235H112.672V56.9232C112.672 56.2693 112.1 55.738 111.447 55.738H76.8895C76.1949 55.738 75.6638 56.2693 75.6638 56.9232V103.489C75.6638 104.184 76.1949 104.715 76.8895 104.715H105.774V112.714C102.879 113.204 100.673 115.446 100.142 118.348H74.8059C74.1522 118.348 73.6211 118.879 73.6211 119.574C73.6211 120.228 74.1522 120.759 74.8059 120.759H100.142C100.673 123.695 102.873 125.902 105.774 126.434V141.111C102.593 141.683 100.142 144.375 100.142 147.72C100.142 151.515 103.2 154.574 106.994 154.574C110.787 154.574 113.845 151.515 113.845 147.72C113.845 144.375 111.4 141.677 108.213 141.111V126.422C111.108 125.891 113.314 123.69 113.845 120.747H140.85C141.504 120.747 142.035 120.216 142.035 119.562C142.047 118.873 141.516 118.342 140.862 118.342ZM86.3969 77.2053H125.034C125.687 77.2053 126.259 77.7775 126.259 78.4313C126.259 79.0852 125.687 79.6574 125.034 79.6574H86.3969C85.7433 79.6574 85.1713 79.0852 85.1713 78.4313C85.1771 77.7775 85.7433 77.2053 86.3969 77.2053ZM86.3969 85.122H125.034C125.687 85.122 126.259 85.6533 126.259 86.348C126.259 87.0019 125.687 87.5741 125.034 87.5741H86.3969C85.7433 87.5741 85.1713 87.0019 85.1713 86.348C85.1771 85.6533 85.7433 85.122 86.3969 85.122ZM86.3969 95.4849C85.7433 95.4849 85.1713 94.9128 85.1713 94.2589C85.1713 93.605 85.7433 93.0329 86.3969 93.0329H125.034C125.687 93.0329 126.259 93.605 126.259 94.2589C126.259 94.9128 125.687 95.4849 125.034 95.4849H86.3969Z" fill="black"/>
<path d="M136.784 114.261H109.779C109.248 111.365 107.048 109.117 104.106 108.586V100.628H131.56C132.255 100.628 132.786 100.097 132.786 99.4024V63.3277C132.786 62.6739 132.255 62.1426 131.56 62.1426H108.594V52.8422C108.594 52.1883 108.022 51.657 107.369 51.657H72.8113C72.1168 51.657 71.5857 52.1883 71.5857 52.8422V99.4083C71.5857 100.103 72.1168 100.634 72.8113 100.634H101.696V108.633C98.8007 109.123 96.5946 111.365 96.0635 114.267H70.7278C70.0741 114.267 69.543 114.798 69.543 115.493C69.543 116.147 70.0741 116.678 70.7278 116.678H96.0635C96.5946 119.615 98.7949 121.821 101.696 122.353V137.042C98.5148 137.614 96.0635 140.305 96.0635 143.651C96.0635 147.446 99.1217 150.505 102.915 150.505C106.709 150.505 109.767 147.446 109.767 143.651C109.767 140.305 107.322 137.608 104.135 137.042V122.353C107.03 121.821 109.236 119.62 109.767 116.678H136.772C137.426 116.678 137.957 116.147 137.957 115.493C137.969 114.792 137.438 114.261 136.784 114.261ZM82.3188 73.1244H120.956C121.609 73.1244 122.181 73.6965 122.181 74.3504C122.181 75.0043 121.609 75.5764 120.956 75.5764H82.3188C81.6651 75.5764 81.0932 75.0043 81.0932 74.3504C81.099 73.6965 81.6651 73.1244 82.3188 73.1244ZM82.3188 81.0411H120.956C121.609 81.0411 122.181 81.5723 122.181 82.2671C122.181 82.921 121.609 83.4931 120.956 83.4931H82.3188C81.6651 83.4931 81.0932 82.921 81.0932 82.2671C81.099 81.5723 81.6651 81.0411 82.3188 81.0411ZM82.3188 91.4098C81.6651 91.4098 81.0932 90.8377 81.0932 90.1838C81.0932 89.5299 81.6651 88.9578 82.3188 88.9578H120.956C121.609 88.9578 122.181 89.5299 122.181 90.1838C122.181 90.8377 121.609 91.4098 120.956 91.4098H82.3188Z" fill="white"/>
<path d="M28.6672 348.194L38.2914 360.572H31.1185L21.5293 348.194L31.1185 335.847H38.2914L28.6672 348.194Z" fill="white"/>
<path d="M67.9015 348.194L58.2773 360.572H65.4503L75.0744 348.194L65.4503 335.847H58.2773L67.9015 348.194Z" fill="white"/>
<path d="M45.2855 366.766L59.4329 327.638H54.5712L40.418 366.766H45.2855Z" fill="white"/>
<g opacity="0.1">
<path d="M328.534 313.825C328.196 313.994 327.857 314.064 327.484 314.064C326.532 314.064 325.616 313.486 325.173 312.569C318.782 298.353 306.543 291.855 297.391 288.93C296.032 288.522 295.319 287.091 295.728 285.731C296.172 284.406 297.596 283.658 298.956 284.096C309.052 287.325 322.622 294.535 329.83 310.456C330.408 311.752 329.83 313.247 328.534 313.825Z" fill="black"/>
<path d="M319.155 320.013C324.56 328.514 327.419 338.38 327.419 348.516C327.419 367.834 316.949 385.653 300.082 395.041C299.983 395.111 299.913 395.14 299.808 395.21C297.158 396.64 294.403 397.861 291.648 398.812C291.613 398.812 291.613 398.812 291.613 398.847C286.04 400.786 280.156 401.772 274.174 401.772C268.7 401.772 263.26 400.92 258.095 399.291C255.988 398.614 253.98 397.831 252.043 396.944C241.911 392.285 233.681 384.631 228.242 375.313H122.562C117.905 375.313 114.129 371.501 114.129 366.842V327.253C114.129 322.594 117.905 318.816 122.562 318.816H131.2V310.923H122.562C117.905 310.923 114.129 307.146 114.129 302.522V262.862C114.129 258.203 117.905 254.426 122.562 254.426H131.2V246.568H122.562C117.94 246.568 114.129 242.79 114.129 238.131V198.507C114.129 193.848 117.934 190.071 122.562 190.071H270.124C274.746 190.071 278.557 193.848 278.557 198.507V238.131C278.557 242.79 274.752 246.568 270.124 246.568H261.486V254.426H270.124C274.746 254.426 278.522 258.203 278.522 262.862V295.516C292.53 296.637 305.551 303.205 314.696 314.017C314.766 314.052 314.83 314.116 314.9 314.187C316.465 316.072 317.894 318.046 319.155 320.013Z" fill="black"/>
<path d="M284.576 283.997C284.675 282.602 285.901 281.516 287.296 281.615C287.296 281.615 288.556 281.714 290.699 282.059C292.094 282.298 293.01 283.623 292.771 285.019C292.566 286.245 291.481 287.127 290.29 287.127C290.121 287.127 289.986 287.127 289.846 287.092C288.078 286.788 287.021 286.718 286.957 286.718C285.527 286.619 284.47 285.393 284.576 283.997Z" fill="black"/>
</g>
<path d="M239.008 223.454C244.774 223.454 249.449 218.778 249.449 213.009C249.449 207.241 244.774 202.565 239.008 202.565C233.241 202.565 228.566 207.241 228.566 213.009C228.566 218.778 233.241 223.454 239.008 223.454Z" fill="white"/>
<path d="M129.5 312.021H223.226C225.147 309.166 227.318 306.527 229.705 304.133H129.5V312.021Z" fill="#0774FF"/>
<path d="M266.648 231.353V191.729C266.648 189.896 265.16 188.407 263.327 188.407H115.772C113.939 188.407 112.451 189.896 112.451 191.729V231.359C112.451 233.192 113.939 234.681 115.772 234.681H263.322C265.154 234.681 266.648 233.186 266.648 231.353ZM130.807 219.426L126.412 223.822C125.916 224.318 125.262 224.569 124.608 224.569C123.955 224.569 123.301 224.318 122.805 223.822C121.807 222.823 121.807 221.212 122.805 220.214L127.2 215.818C128.198 214.819 129.809 214.819 130.807 215.818C131.799 216.816 131.799 218.433 130.807 219.426ZM130.807 202.862L126.412 207.259C125.916 207.755 125.262 208.006 124.608 208.006C123.955 208.006 123.301 207.755 122.805 207.259C121.807 206.26 121.807 204.649 122.805 203.651L127.2 199.254C128.192 198.262 129.809 198.256 130.807 199.254C131.799 200.253 131.799 201.87 130.807 202.862ZM145.333 219.426L140.939 223.822C140.442 224.318 139.789 224.569 139.135 224.569C138.481 224.569 137.828 224.318 137.332 223.822C136.334 222.823 136.334 221.212 137.332 220.214L141.726 215.818C142.724 214.819 144.341 214.825 145.333 215.818C146.331 216.816 146.331 218.433 145.333 219.426ZM145.333 202.862L140.939 207.259C140.442 207.755 139.789 208.006 139.135 208.006C138.481 208.006 137.828 207.755 137.332 207.259C136.334 206.26 136.334 204.649 137.332 203.651L141.726 199.254C142.724 198.256 144.335 198.256 145.333 199.254C146.331 200.253 146.331 201.87 145.333 202.862ZM159.86 219.426L155.465 223.822C154.969 224.318 154.316 224.569 153.662 224.569C153.008 224.569 152.355 224.318 151.858 223.822C150.86 222.823 150.86 221.212 151.858 220.214L156.253 215.818C157.251 214.819 158.862 214.819 159.86 215.818C160.858 216.816 160.858 218.433 159.86 219.426ZM159.86 202.862L155.465 207.259C154.969 207.755 154.316 208.006 153.662 208.006C153.008 208.006 152.355 207.755 151.858 207.259C150.86 206.26 150.86 204.649 151.858 203.651L156.253 199.254C157.245 198.262 158.862 198.256 159.86 199.254C160.858 200.253 160.858 201.87 159.86 202.862ZM174.393 219.426L169.998 223.822C169.502 224.318 168.848 224.569 168.194 224.569C167.541 224.569 166.887 224.318 166.391 223.822C165.393 222.823 165.393 221.212 166.391 220.214L170.786 215.818C171.784 214.819 173.395 214.819 174.393 215.818C175.385 216.816 175.385 218.433 174.393 219.426ZM174.393 202.862L169.998 207.259C169.502 207.755 168.848 208.006 168.194 208.006C167.541 208.006 166.887 207.755 166.391 207.259C165.393 206.26 165.393 204.649 166.391 203.651L170.786 199.254C171.778 198.262 173.395 198.256 174.393 199.254C175.385 200.253 175.385 201.87 174.393 202.862ZM188.919 219.426L184.525 223.822C184.029 224.318 183.375 224.569 182.721 224.569C182.068 224.569 181.414 224.318 180.918 223.822C179.92 222.823 179.92 221.212 180.918 220.214L185.313 215.818C186.311 214.819 187.921 214.825 188.919 215.818C189.917 216.816 189.917 218.433 188.919 219.426ZM188.919 202.862L184.525 207.259C184.029 207.755 183.375 208.006 182.721 208.006C182.068 208.006 181.414 207.755 180.918 207.259C179.92 206.26 179.92 204.649 180.918 203.651L185.313 199.254C186.311 198.256 187.921 198.256 188.919 199.254C189.917 200.253 189.917 201.87 188.919 202.862ZM203.446 219.426L199.051 223.822C198.555 224.318 197.902 224.569 197.248 224.569C196.594 224.569 195.941 224.318 195.444 223.822C194.446 222.823 194.446 221.212 195.444 220.214L199.839 215.818C200.837 214.819 202.448 214.819 203.446 215.818C204.444 216.816 204.444 218.433 203.446 219.426ZM203.446 202.862L199.051 207.259C198.555 207.755 197.902 208.006 197.248 208.006C196.594 208.006 195.941 207.755 195.444 207.259C194.446 206.26 194.446 204.649 195.444 203.651L199.839 199.254C200.837 198.262 202.448 198.256 203.446 199.254C204.444 200.253 204.444 201.87 203.446 202.862ZM239.007 228.557C230.439 228.557 223.465 221.58 223.465 213.009C223.465 204.439 230.439 197.462 239.007 197.462C247.575 197.462 254.55 204.439 254.55 213.009C254.55 221.58 247.575 228.557 239.007 228.557Z" fill="#744FFD"/>
<path d="M239.008 287.809C244.774 287.809 249.449 283.133 249.449 277.365C249.449 271.596 244.774 266.92 239.008 266.92C233.241 266.92 228.566 271.596 228.566 277.365C228.566 283.133 233.241 287.809 239.008 287.809Z" fill="white"/>
<path d="M266.637 288.51V256.067C266.637 254.239 265.148 252.75 263.322 252.75H252.18C252.168 252.75 252.157 252.756 252.145 252.756C252.133 252.756 252.122 252.75 252.11 252.75H126.984C126.972 252.75 126.96 252.756 126.949 252.756C126.937 252.756 126.925 252.75 126.914 252.75H115.766C113.939 252.75 112.451 254.239 112.451 256.067V295.72C112.451 297.547 113.939 299.036 115.766 299.036H235.616C244.464 292.456 255.262 288.667 266.637 288.51ZM130.807 283.781L126.412 288.177C125.916 288.673 125.262 288.924 124.608 288.924C123.955 288.924 123.301 288.673 122.805 288.177C121.807 287.179 121.807 285.567 122.805 284.569L127.2 280.173C128.192 279.18 129.809 279.174 130.807 280.173C131.799 281.171 131.799 282.788 130.807 283.781ZM130.807 267.223L126.412 271.62C125.916 272.116 125.262 272.367 124.608 272.367C123.955 272.367 123.301 272.116 122.805 271.62C121.807 270.621 121.807 269.01 122.805 268.012L127.2 263.615C128.198 262.617 129.809 262.617 130.807 263.615C131.799 264.614 131.799 266.225 130.807 267.223ZM145.333 283.781L140.939 288.177C140.442 288.673 139.789 288.924 139.135 288.924C138.481 288.924 137.828 288.673 137.332 288.177C136.334 287.179 136.334 285.567 137.332 284.569L141.726 280.173C142.724 279.174 144.335 279.174 145.333 280.173C146.331 281.171 146.331 282.788 145.333 283.781ZM145.333 267.223L140.939 271.62C140.442 272.116 139.789 272.367 139.135 272.367C138.481 272.367 137.828 272.116 137.332 271.62C136.334 270.621 136.334 269.01 137.332 268.012L141.726 263.615C142.724 262.617 144.341 262.623 145.333 263.615C146.331 264.614 146.331 266.225 145.333 267.223ZM159.86 283.781L155.465 288.177C154.969 288.673 154.316 288.924 153.662 288.924C153.008 288.924 152.355 288.673 151.858 288.177C150.86 287.179 150.86 285.567 151.858 284.569L156.253 280.173C157.245 279.18 158.862 279.174 159.86 280.173C160.858 281.171 160.858 282.788 159.86 283.781ZM159.86 267.223L155.465 271.62C154.969 272.116 154.316 272.367 153.662 272.367C153.008 272.367 152.355 272.116 151.858 271.62C150.86 270.621 150.86 269.01 151.858 268.012L156.253 263.615C157.251 262.617 158.862 262.617 159.86 263.615C160.858 264.614 160.858 266.225 159.86 267.223ZM174.393 283.781L169.998 288.177C169.502 288.673 168.848 288.924 168.194 288.924C167.541 288.924 166.887 288.673 166.391 288.177C165.393 287.179 165.393 285.567 166.391 284.569L170.786 280.173C171.778 279.18 173.395 279.174 174.393 280.173C175.385 281.171 175.385 282.788 174.393 283.781ZM174.393 267.223L169.998 271.62C169.502 272.116 168.848 272.367 168.194 272.367C167.541 272.367 166.887 272.116 166.391 271.62C165.393 270.621 165.393 269.01 166.391 268.012L170.786 263.615C171.784 262.617 173.395 262.617 174.393 263.615C175.385 264.614 175.385 266.225 174.393 267.223ZM188.919 283.781L184.525 288.177C184.029 288.673 183.375 288.924 182.721 288.924C182.068 288.924 181.414 288.673 180.918 288.177C179.92 287.179 179.92 285.567 180.918 284.569L185.313 280.173C186.311 279.174 187.921 279.174 188.919 280.173C189.917 281.171 189.917 282.788 188.919 283.781ZM188.919 267.223L184.525 271.62C184.029 272.116 183.375 272.367 182.721 272.367C182.068 272.367 181.414 272.116 180.918 271.62C179.92 270.621 179.92 269.01 180.918 268.012L185.313 263.615C186.311 262.617 187.921 262.623 188.919 263.615C189.917 264.614 189.917 266.225 188.919 267.223ZM203.446 283.781L199.051 288.177C198.555 288.673 197.902 288.924 197.248 288.924C196.594 288.924 195.941 288.673 195.444 288.177C194.446 287.179 194.446 285.567 195.444 284.569L199.839 280.173C200.837 279.18 202.448 279.174 203.446 280.173C204.444 281.171 204.444 282.788 203.446 283.781ZM203.446 267.223L199.051 271.62C198.555 272.116 197.902 272.367 197.248 272.367C196.594 272.367 195.941 272.116 195.444 271.62C194.446 270.621 194.446 269.01 195.444 268.012L199.839 263.615C200.837 262.617 202.448 262.617 203.446 263.615C204.444 264.614 204.444 266.225 203.446 267.223ZM223.465 277.365C223.465 268.794 230.439 261.817 239.007 261.817C247.575 261.817 254.55 268.794 254.55 277.365C254.55 285.935 247.575 292.912 239.007 292.912C230.439 292.912 223.465 285.941 223.465 277.365Z" fill="#744FFD"/>
<path d="M249.595 239.784H129.5V247.654H249.595V239.784Z" fill="#0774FF"/>
<path d="M307.793 315.588C306.812 314.058 305.721 312.563 304.536 311.121C302.744 310.281 300.731 310.199 298.921 310.94C296.768 311.822 295.157 313.725 294.375 316.282C292.805 321.426 297.766 329.88 299.808 332.706C300.27 333.342 300.41 334.153 300.194 334.907L291.089 366.661C290.78 367.747 289.787 368.5 288.661 368.506C288.655 368.506 288.649 368.506 288.643 368.506C287.523 368.506 286.531 367.77 286.204 366.696L273.13 323.633H263.092L285.503 386.295C286.916 385.723 288.311 385.092 289.682 384.374L305.032 335.403C305.096 335.204 309.322 322.921 307.793 315.588Z" fill="#033AA7"/>
<path d="M296.35 380.153C308.314 371.127 315.516 356.946 315.516 341.714C315.516 336.121 314.547 330.639 312.691 325.466C311.781 331.45 309.995 336.658 309.867 337.008L296.35 380.153Z" fill="#0441B1"/>
<path d="M227.492 314.811H238.225H243.011C244.418 314.811 245.562 315.956 245.562 317.363C245.562 318.77 244.418 319.914 243.011 319.914H241.768L257.118 365.727L264.308 342.181L257.672 323.633H255.203C253.797 323.633 252.653 322.489 252.653 321.082C252.653 319.675 253.797 318.53 255.203 318.53H279.629C281.035 318.53 282.179 319.675 282.179 321.082C282.179 322.489 281.035 323.633 279.629 323.633H278.45L288.57 356.952L294.967 334.661C292.819 331.439 287.268 322.109 289.498 314.794C290.735 310.748 293.391 307.7 296.98 306.223C297.675 305.937 298.398 305.762 299.116 305.61C290.403 297.933 279.197 293.583 267.39 293.583C251.305 293.583 236.404 301.628 227.492 314.811Z" fill="#0441B1"/>
<path d="M259.674 374.835C259.668 374.846 259.663 374.852 259.663 374.864C259.663 374.87 259.663 374.875 259.663 374.875L255.303 388.298C263.59 390.429 272.45 390.323 280.685 387.959L267.191 350.226L259.674 374.835Z" fill="#0441B1"/>
<path d="M219.256 341.714C219.256 358.435 228.016 373.877 241.994 382.588L223.085 323.008C220.604 328.899 219.256 335.263 219.256 341.714Z" fill="#0441B1"/>
<path d="M227.459 319.914L248.4 385.904C249.071 386.196 249.766 386.441 250.454 386.704L254.546 374.099L236.394 319.914H227.459Z" fill="#033AA7"/>
<path d="M220.185 317.123H115.766C113.939 317.123 112.451 318.612 112.451 320.439V360.052C112.451 361.897 113.939 363.403 115.766 363.403H218.813C215.808 356.689 214.156 349.321 214.156 341.714C214.156 333.138 216.251 324.666 220.185 317.123ZM130.807 348.142L126.412 352.538C125.916 353.034 125.262 353.285 124.608 353.285C123.955 353.285 123.301 353.034 122.805 352.538C121.807 351.54 121.807 349.928 122.805 348.93L127.2 344.534C128.198 343.536 129.809 343.536 130.807 344.534C131.799 345.532 131.799 347.144 130.807 348.142ZM130.807 331.579L126.412 335.975C125.916 336.471 125.262 336.722 124.608 336.722C123.955 336.722 123.301 336.471 122.805 335.975C121.807 334.977 121.807 333.365 122.805 332.367L127.2 327.971C128.198 326.972 129.809 326.972 130.807 327.971C131.799 328.969 131.799 330.58 130.807 331.579ZM145.333 348.142L140.939 352.538C140.442 353.034 139.789 353.285 139.135 353.285C138.481 353.285 137.828 353.034 137.332 352.538C136.334 351.54 136.334 349.928 137.332 348.93L141.726 344.534C142.724 343.536 144.341 343.541 145.333 344.534C146.331 345.532 146.331 347.144 145.333 348.142ZM145.333 331.579L140.939 335.975C140.442 336.471 139.789 336.722 139.135 336.722C138.481 336.722 137.828 336.471 137.332 335.975C136.334 334.977 136.334 333.365 137.332 332.367L141.726 327.971C142.724 326.972 144.341 326.978 145.333 327.971C146.331 328.969 146.331 330.58 145.333 331.579ZM159.86 348.142L155.465 352.538C154.969 353.034 154.316 353.285 153.662 353.285C153.008 353.285 152.355 353.034 151.858 352.538C150.86 351.54 150.86 349.928 151.858 348.93L156.253 344.534C157.251 343.536 158.862 343.536 159.86 344.534C160.858 345.532 160.858 347.144 159.86 348.142ZM159.86 331.579L155.465 335.975C154.969 336.471 154.316 336.722 153.662 336.722C153.008 336.722 152.355 336.471 151.858 335.975C150.86 334.977 150.86 333.365 151.858 332.367L156.253 327.971C157.251 326.972 158.862 326.972 159.86 327.971C160.858 328.969 160.858 330.58 159.86 331.579ZM174.393 348.142L169.998 352.538C169.502 353.034 168.848 353.285 168.194 353.285C167.541 353.285 166.887 353.034 166.391 352.538C165.393 351.54 165.393 349.928 166.391 348.93L170.786 344.534C171.784 343.536 173.395 343.536 174.393 344.534C175.385 345.532 175.385 347.144 174.393 348.142ZM174.393 331.579L169.998 335.975C169.502 336.471 168.848 336.722 168.194 336.722C167.541 336.722 166.887 336.471 166.391 335.975C165.393 334.977 165.393 333.365 166.391 332.367L170.786 327.971C171.784 326.972 173.395 326.972 174.393 327.971C175.385 328.969 175.385 330.58 174.393 331.579ZM188.919 348.142L184.525 352.538C184.029 353.034 183.375 353.285 182.721 353.285C182.068 353.285 181.414 353.034 180.918 352.538C179.92 351.54 179.92 349.928 180.918 348.93L185.313 344.534C186.311 343.536 187.921 343.541 188.919 344.534C189.917 345.532 189.917 347.144 188.919 348.142ZM188.919 331.579L184.525 335.975C184.029 336.471 183.375 336.722 182.721 336.722C182.068 336.722 181.414 336.471 180.918 335.975C179.92 334.977 179.92 333.365 180.918 332.367L185.313 327.971C186.311 326.972 187.921 326.978 188.919 327.971C189.917 328.969 189.917 330.58 188.919 331.579ZM203.446 348.142L199.051 352.538C198.555 353.034 197.902 353.285 197.248 353.285C196.594 353.285 195.941 353.034 195.444 352.538C194.446 351.54 194.446 349.928 195.444 348.93L199.839 344.534C200.837 343.536 202.448 343.536 203.446 344.534C204.444 345.532 204.444 347.144 203.446 348.142ZM203.446 331.579L199.051 335.975C198.555 336.471 197.902 336.722 197.248 336.722C196.594 336.722 195.941 336.471 195.444 335.975C194.446 334.977 194.446 333.365 195.444 332.367L199.839 327.971C200.837 326.972 202.448 326.972 203.446 327.971C204.444 328.969 204.444 330.58 203.446 331.579Z" fill="#744FFD"/>
<path d="M239.005 197.462C230.437 197.462 223.463 204.439 223.463 213.009C223.463 221.58 230.437 228.557 239.005 228.557C247.573 228.557 254.547 221.58 254.547 213.009C254.547 204.439 247.573 197.462 239.005 197.462ZM239.005 223.454C233.251 223.454 228.564 218.766 228.564 213.009C228.564 207.253 233.251 202.565 239.005 202.565C244.76 202.565 249.446 207.253 249.446 213.009C249.446 218.772 244.766 223.454 239.005 223.454Z" fill="white"/>
<path d="M127.199 263.615L122.803 268.012C121.805 269.011 121.805 270.622 122.803 271.621C123.299 272.117 123.953 272.368 124.607 272.368C125.261 272.368 125.914 272.117 126.411 271.621L130.806 267.224C131.804 266.225 131.804 264.614 130.806 263.615C129.808 262.617 128.191 262.617 127.199 263.615Z" fill="white"/>
<path d="M141.726 263.615L137.331 268.012C136.333 269.011 136.333 270.622 137.331 271.621C137.827 272.117 138.481 272.368 139.134 272.368C139.788 272.368 140.442 272.117 140.938 271.621L145.333 267.224C146.331 266.225 146.331 264.614 145.333 263.615C144.341 262.623 142.73 262.617 141.726 263.615Z" fill="white"/>
<path d="M156.251 263.615L151.856 268.012C150.858 269.011 150.858 270.622 151.856 271.621C152.352 272.117 153.006 272.368 153.66 272.368C154.313 272.368 154.967 272.117 155.463 271.621L159.858 267.224C160.857 266.225 160.857 264.614 159.858 263.615C158.86 262.617 157.249 262.617 156.251 263.615Z" fill="white"/>
<path d="M170.786 263.615L166.391 268.012C165.393 269.011 165.393 270.622 166.391 271.621C166.887 272.117 167.541 272.368 168.195 272.368C168.849 272.368 169.502 272.117 169.998 271.621L174.394 267.224C175.392 266.225 175.392 264.614 174.394 263.615C173.396 262.617 171.779 262.617 170.786 263.615Z" fill="white"/>
<path d="M185.316 263.615L180.92 268.012C179.922 269.011 179.922 270.622 180.92 271.621C181.417 272.117 182.07 272.368 182.724 272.368C183.378 272.368 184.032 272.117 184.528 271.621L188.923 267.224C189.921 266.225 189.921 264.614 188.923 263.615C187.925 262.623 186.314 262.617 185.316 263.615Z" fill="white"/>
<path d="M199.839 263.615L195.444 268.012C194.446 269.011 194.446 270.622 195.444 271.621C195.94 272.117 196.594 272.368 197.248 272.368C197.901 272.368 198.555 272.117 199.051 271.621L203.446 267.224C204.445 266.225 204.445 264.614 203.446 263.615C202.448 262.617 200.837 262.617 199.839 263.615Z" fill="white"/>
<path d="M127.199 280.179L122.803 284.575C121.805 285.574 121.805 287.185 122.803 288.184C123.299 288.68 123.953 288.931 124.607 288.931C125.261 288.931 125.914 288.68 126.411 288.184L130.806 283.787C131.804 282.789 131.804 281.177 130.806 280.179C129.802 279.174 128.191 279.18 127.199 280.179Z" fill="white"/>
<path d="M141.726 280.179L137.331 284.575C136.333 285.574 136.333 287.185 137.331 288.184C137.827 288.68 138.481 288.931 139.134 288.931C139.788 288.931 140.442 288.68 140.938 288.184L145.333 283.787C146.331 282.789 146.331 281.177 145.333 280.179C144.341 279.18 142.724 279.18 141.726 280.179Z" fill="white"/>
<path d="M156.251 280.179L151.856 284.575C150.858 285.574 150.858 287.185 151.856 288.184C152.352 288.68 153.006 288.931 153.66 288.931C154.313 288.931 154.967 288.68 155.463 288.184L159.858 283.787C160.857 282.789 160.857 281.177 159.858 280.179C158.86 279.174 157.244 279.18 156.251 280.179Z" fill="white"/>
<path d="M170.786 280.179L166.391 284.575C165.393 285.574 165.393 287.185 166.391 288.184C166.887 288.68 167.541 288.931 168.195 288.931C168.849 288.931 169.502 288.68 169.998 288.184L174.394 283.787C175.392 282.789 175.392 281.177 174.394 280.179C173.39 279.174 171.779 279.18 170.786 280.179Z" fill="white"/>
<path d="M185.316 280.179L180.92 284.575C179.922 285.574 179.922 287.185 180.92 288.184C181.417 288.68 182.07 288.931 182.724 288.931C183.378 288.931 184.032 288.68 184.528 288.184L188.923 283.787C189.921 282.789 189.921 281.177 188.923 280.179C187.925 279.18 186.314 279.18 185.316 280.179Z" fill="white"/>
<path d="M199.839 280.179L195.444 284.575C194.446 285.574 194.446 287.185 195.444 288.184C195.94 288.68 196.594 288.931 197.248 288.931C197.901 288.931 198.555 288.68 199.051 288.184L203.446 283.787C204.445 282.789 204.445 281.177 203.446 280.179C202.448 279.174 200.837 279.18 199.839 280.179Z" fill="white"/>
<path d="M127.199 327.971L122.803 332.367C121.805 333.366 121.805 334.977 122.803 335.976C123.299 336.472 123.953 336.723 124.607 336.723C125.261 336.723 125.914 336.472 126.411 335.976L130.806 331.579C131.804 330.581 131.804 328.969 130.806 327.971C129.808 326.972 128.191 326.972 127.199 327.971Z" fill="white"/>
<path d="M141.726 327.971L137.331 332.367C136.333 333.366 136.333 334.977 137.331 335.976C137.827 336.472 138.481 336.723 139.134 336.723C139.788 336.723 140.442 336.472 140.938 335.976L145.333 331.579C146.331 330.581 146.331 328.969 145.333 327.971C144.341 326.978 142.73 326.972 141.726 327.971Z" fill="white"/>
<path d="M156.251 327.971L151.856 332.367C150.858 333.366 150.858 334.977 151.856 335.976C152.352 336.472 153.006 336.723 153.66 336.723C154.313 336.723 154.967 336.472 155.463 335.976L159.858 331.579C160.857 330.581 160.857 328.969 159.858 327.971C158.86 326.972 157.249 326.972 156.251 327.971Z" fill="white"/>
<path d="M170.786 327.971L166.391 332.367C165.393 333.366 165.393 334.977 166.391 335.976C166.887 336.472 167.541 336.723 168.195 336.723C168.849 336.723 169.502 336.472 169.998 335.976L174.394 331.579C175.392 330.581 175.392 328.969 174.394 327.971C173.396 326.972 171.779 326.972 170.786 327.971Z" fill="white"/>
<path d="M185.316 327.971L180.92 332.367C179.922 333.366 179.922 334.977 180.92 335.976C181.417 336.472 182.07 336.723 182.724 336.723C183.378 336.723 184.032 336.472 184.528 335.976L188.923 331.579C189.921 330.581 189.921 328.969 188.923 327.971C187.925 326.978 186.314 326.972 185.316 327.971Z" fill="white"/>
<path d="M199.839 327.971L195.444 332.367C194.446 333.366 194.446 334.977 195.444 335.976C195.94 336.472 196.594 336.723 197.248 336.723C197.901 336.723 198.555 336.472 199.051 335.976L203.446 331.579C204.445 330.581 204.445 328.969 203.446 327.971C202.448 326.972 200.837 326.972 199.839 327.971Z" fill="white"/>
<path d="M127.199 344.534L122.803 348.931C121.805 349.929 121.805 351.541 122.803 352.539C123.299 353.035 123.953 353.286 124.607 353.286C125.261 353.286 125.914 353.035 126.411 352.539L130.806 348.142C131.804 347.144 131.804 345.532 130.806 344.534C129.808 343.536 128.191 343.536 127.199 344.534Z" fill="white"/>
<path d="M141.726 344.534L137.331 348.931C136.333 349.929 136.333 351.541 137.331 352.539C137.827 353.035 138.481 353.286 139.134 353.286C139.788 353.286 140.442 353.035 140.938 352.539L145.333 348.142C146.331 347.144 146.331 345.532 145.333 344.534C144.341 343.541 142.73 343.535 141.726 344.534Z" fill="white"/>
<path d="M156.251 344.534L151.856 348.931C150.858 349.929 150.858 351.541 151.856 352.539C152.352 353.035 153.006 353.286 153.66 353.286C154.313 353.286 154.967 353.035 155.463 352.539L159.858 348.142C160.857 347.144 160.857 345.532 159.858 344.534C158.86 343.536 157.249 343.536 156.251 344.534Z" fill="white"/>
<path d="M170.786 344.534L166.391 348.931C165.393 349.929 165.393 351.541 166.391 352.539C166.887 353.035 167.541 353.286 168.195 353.286C168.849 353.286 169.502 353.035 169.998 352.539L174.394 348.142C175.392 347.144 175.392 345.532 174.394 344.534C173.396 343.536 171.779 343.536 170.786 344.534Z" fill="white"/>
<path d="M185.316 344.534L180.92 348.931C179.922 349.929 179.922 351.541 180.92 352.539C181.417 353.035 182.07 353.286 182.724 353.286C183.378 353.286 184.032 353.035 184.528 352.539L188.923 348.142C189.921 347.144 189.921 345.532 188.923 344.534C187.925 343.541 186.314 343.535 185.316 344.534Z" fill="white"/>
<path d="M199.839 344.534L195.444 348.931C194.446 349.929 194.446 351.541 195.444 352.539C195.94 353.035 196.594 353.286 197.248 353.286C197.901 353.286 198.555 353.035 199.051 352.539L203.446 348.142C204.445 347.144 204.445 345.532 203.446 344.534C202.448 343.536 200.837 343.536 199.839 344.534Z" fill="white"/>
<path d="M127.199 199.254L122.803 203.651C121.805 204.65 121.805 206.261 122.803 207.259C123.299 207.756 123.953 208.007 124.607 208.007C125.261 208.007 125.914 207.756 126.411 207.259L130.806 202.863C131.804 201.864 131.804 200.253 130.806 199.254C129.802 198.256 128.191 198.262 127.199 199.254Z" fill="white"/>
<path d="M141.726 199.254L137.331 203.651C136.333 204.65 136.333 206.261 137.331 207.259C137.827 207.756 138.481 208.007 139.134 208.007C139.788 208.007 140.442 207.756 140.938 207.259L145.333 202.863C146.331 201.864 146.331 200.253 145.333 199.254C144.341 198.262 142.724 198.262 141.726 199.254Z" fill="white"/>
<path d="M156.251 199.254L151.856 203.651C150.858 204.65 150.858 206.261 151.856 207.259C152.352 207.756 153.006 208.007 153.66 208.007C154.313 208.007 154.967 207.756 155.463 207.259L159.858 202.863C160.857 201.864 160.857 200.253 159.858 199.254C158.86 198.256 157.244 198.262 156.251 199.254Z" fill="white"/>
<path d="M170.786 199.254L166.391 203.651C165.393 204.65 165.393 206.261 166.391 207.259C166.887 207.756 167.541 208.007 168.195 208.007C168.849 208.007 169.502 207.756 169.998 207.259L174.394 202.863C175.392 201.864 175.392 200.253 174.394 199.254C173.39 198.256 171.779 198.262 170.786 199.254Z" fill="white"/>
<path d="M185.316 199.254L180.92 203.651C179.922 204.65 179.922 206.261 180.92 207.259C181.417 207.756 182.07 208.007 182.724 208.007C183.378 208.007 184.032 207.756 184.528 207.259L188.923 202.863C189.921 201.864 189.921 200.253 188.923 199.254C187.925 198.262 186.314 198.262 185.316 199.254Z" fill="white"/>
<path d="M199.839 199.254L195.444 203.651C194.446 204.65 194.446 206.261 195.444 207.259C195.94 207.756 196.594 208.007 197.248 208.007C197.901 208.007 198.555 207.756 199.051 207.259L203.446 202.863C204.445 201.864 204.445 200.253 203.446 199.254C202.448 198.256 200.837 198.262 199.839 199.254Z" fill="white"/>
<path d="M127.199 215.818L122.803 220.214C121.805 221.213 121.805 222.824 122.803 223.823C123.299 224.319 123.953 224.57 124.607 224.57C125.261 224.57 125.914 224.319 126.411 223.823L130.806 219.426C131.804 218.428 131.804 216.816 130.806 215.818C129.808 214.825 128.191 214.825 127.199 215.818Z" fill="white"/>
<path d="M141.726 215.818L137.331 220.214C136.333 221.213 136.333 222.824 137.331 223.823C137.827 224.319 138.481 224.57 139.134 224.57C139.788 224.57 140.442 224.319 140.938 223.823L145.333 219.426C146.331 218.428 146.331 216.816 145.333 215.818C144.341 214.825 142.73 214.819 141.726 215.818Z" fill="white"/>
<path d="M156.251 215.818L151.856 220.214C150.858 221.213 150.858 222.824 151.856 223.823C152.352 224.319 153.006 224.57 153.66 224.57C154.313 224.57 154.967 224.319 155.463 223.823L159.858 219.426C160.857 218.428 160.857 216.816 159.858 215.818C158.86 214.825 157.249 214.825 156.251 215.818Z" fill="white"/>
<path d="M170.786 215.818L166.391 220.214C165.393 221.213 165.393 222.824 166.391 223.823C166.887 224.319 167.541 224.57 168.195 224.57C168.849 224.57 169.502 224.319 169.998 223.823L174.394 219.426C175.392 218.428 175.392 216.816 174.394 215.818C173.396 214.825 171.779 214.825 170.786 215.818Z" fill="white"/>
<path d="M185.316 215.818L180.92 220.214C179.922 221.213 179.922 222.824 180.92 223.823C181.417 224.319 182.07 224.57 182.724 224.57C183.378 224.57 184.032 224.319 184.528 223.823L188.923 219.426C189.921 218.428 189.921 216.816 188.923 215.818C187.925 214.825 186.314 214.819 185.316 215.818Z" fill="white"/>
<path d="M199.839 215.818L195.444 220.214C194.446 221.213 194.446 222.824 195.444 223.823C195.94 224.319 196.594 224.57 197.248 224.57C197.901 224.57 198.555 224.319 199.051 223.823L203.446 219.426C204.445 218.428 204.445 216.816 203.446 215.818C202.448 214.825 200.837 214.825 199.839 215.818Z" fill="white"/>
<path d="M254.547 277.365C254.547 268.794 247.573 261.817 239.005 261.817C230.437 261.817 223.463 268.794 223.463 277.365C223.463 285.935 230.437 292.912 239.005 292.912C247.573 292.912 254.547 285.941 254.547 277.365ZM228.564 277.365C228.564 271.608 233.251 266.92 239.005 266.92C244.76 266.92 249.446 271.608 249.446 277.365C249.446 283.121 244.76 287.809 239.005 287.809C233.251 287.809 228.564 283.127 228.564 277.365Z" fill="white"/>
<path d="M308.092 307.402C308.039 307.338 307.981 307.274 307.917 307.216C298.742 296.421 285.744 289.858 271.737 288.72V256.067C271.737 251.425 267.961 247.648 263.321 247.648H254.695V239.778H263.327C267.973 239.778 271.749 236 271.749 231.353V191.729C271.749 187.082 267.973 183.304 263.327 183.304H115.772C111.126 183.304 107.35 187.082 107.35 191.729V231.359C107.35 236.006 111.126 239.784 115.772 239.784H124.398V247.654H115.766C111.126 247.654 107.35 251.431 107.35 256.072V295.726C107.35 300.367 111.126 304.145 115.766 304.145H124.398V312.032H115.766C111.126 312.032 107.35 315.81 107.35 320.451V360.064C107.35 364.723 111.126 368.518 115.766 368.518H221.451C226.885 377.835 235.09 385.507 245.252 390.154C247.166 391.047 249.191 391.836 251.275 392.495C256.469 394.142 261.891 394.971 267.383 394.971C273.354 394.971 279.219 393.984 284.799 392.046C284.811 392.04 284.822 392.04 284.828 392.034H284.834H284.84C287.606 391.082 290.361 389.868 293.017 388.414C293.098 388.368 293.18 388.321 293.256 388.263C310.135 378.851 320.611 361.045 320.611 341.726C320.611 331.573 317.751 321.724 312.352 313.241C311.103 311.232 309.668 309.277 308.092 307.402ZM299.116 305.61C298.392 305.762 297.674 305.937 296.979 306.223C293.39 307.7 290.729 310.748 289.497 314.794C287.268 322.109 292.818 331.433 294.966 334.661L288.569 356.952L278.455 323.633H279.634C281.04 323.633 282.184 322.489 282.184 321.082C282.184 319.675 281.04 318.53 279.634 318.53H255.208C253.802 318.53 252.658 319.675 252.658 321.082C252.658 322.489 253.802 323.633 255.208 323.633H257.677L264.313 342.181L257.123 365.727L241.773 319.914H243.016C244.423 319.914 245.567 318.77 245.567 317.363C245.567 315.956 244.423 314.811 243.016 314.811H238.23H227.497C236.409 301.628 251.31 293.583 267.395 293.583C279.196 293.583 290.402 297.933 299.116 305.61ZM223.225 312.021H129.499V304.133H229.703C227.316 306.533 225.145 309.171 223.225 312.021ZM115.772 234.681C113.939 234.681 112.451 233.192 112.451 231.359V191.729C112.451 189.896 113.939 188.407 115.772 188.407H263.321C265.154 188.407 266.642 189.896 266.642 191.729V231.359C266.642 233.192 265.154 234.681 263.321 234.681H115.772ZM249.594 239.784V247.654H129.499V239.784H249.594ZM115.766 299.036C113.939 299.036 112.451 297.547 112.451 295.72V256.067C112.451 254.239 113.939 252.75 115.766 252.75H126.913C126.925 252.75 126.937 252.756 126.948 252.756C126.96 252.756 126.972 252.75 126.983 252.75H252.109C252.121 252.75 252.133 252.756 252.144 252.756C252.156 252.756 252.168 252.75 252.179 252.75H263.321C265.148 252.75 266.636 254.239 266.636 256.067V288.51C255.261 288.673 244.464 292.462 235.622 299.036H115.766ZM115.766 363.409C113.939 363.409 112.451 361.903 112.451 360.058V320.445C112.451 318.618 113.939 317.129 115.766 317.129H220.184C216.251 324.666 214.155 333.138 214.155 341.714C214.155 349.327 215.807 356.695 218.813 363.403H115.766V363.409ZM219.256 341.714C219.256 335.263 220.605 328.899 223.085 323.008L241.995 382.588C228.017 373.877 219.256 358.441 219.256 341.714ZM250.452 386.704C249.763 386.441 249.063 386.196 248.397 385.904L227.456 319.914H236.392L254.549 374.105L250.452 386.704ZM255.302 388.298L259.662 374.875C259.662 374.87 259.662 374.864 259.662 374.864C259.667 374.852 259.673 374.846 259.673 374.834L267.185 350.232L280.678 387.965C272.449 390.323 263.59 390.429 255.302 388.298ZM289.684 384.374C288.312 385.092 286.912 385.723 285.505 386.295L263.093 323.633H273.132L286.205 366.696C286.532 367.77 287.524 368.506 288.645 368.506C288.651 368.506 288.657 368.506 288.663 368.506C289.789 368.494 290.781 367.747 291.091 366.661L300.195 334.907C300.411 334.153 300.271 333.336 299.81 332.706C297.767 329.88 292.806 321.426 294.376 316.282C295.158 313.725 296.769 311.828 298.923 310.94C300.732 310.193 302.746 310.281 304.538 311.121C305.728 312.564 306.814 314.058 307.794 315.588C309.323 322.921 305.098 335.204 305.028 335.403L289.684 384.374ZM315.522 341.714C315.522 356.946 308.314 371.127 296.355 380.153L309.878 337.008C310 336.658 311.786 331.45 312.703 325.466C314.547 330.639 315.522 336.127 315.522 341.714Z" fill="white"/>
<path d="M292.14 277.289C290.797 276.862 289.362 277.598 288.936 278.941C288.504 280.284 289.245 281.72 290.587 282.146C299.727 285.071 311.966 291.54 318.374 305.756C318.8 306.702 319.728 307.256 320.697 307.256C321.047 307.256 321.403 307.181 321.748 307.029C323.032 306.451 323.598 304.939 323.02 303.654C315.835 287.733 302.266 280.523 292.14 277.289Z" fill="white"/>
<path d="M280.141 279.911C280.205 279.916 281.279 279.998 283.048 280.29C283.188 280.319 283.334 280.325 283.474 280.325C284.694 280.325 285.774 279.443 285.984 278.2C286.217 276.81 285.284 275.491 283.894 275.263C281.764 274.907 280.491 274.819 280.491 274.819C279.085 274.696 277.876 275.788 277.777 277.19C277.684 278.597 278.74 279.817 280.141 279.911Z" fill="white"/>
</svg>
