<svg width="375" height="383" viewBox="0 0 375 383" fill="none" xmlns="http://www.w3.org/2000/svg"><path opacity="0.2" fill-rule="evenodd" clip-rule="evenodd" d="M286.182 83.6897C253.609 47.1195 185.382 33.5096 115.269 53.6857C28.309 78.7101 -28.6229 146.232 -11.8918 204.5C1.83513 252.305 60.8812 279.029 129.668 273.265C162.65 299.686 218.18 308.411 274.8 292.118C354.225 269.262 405.718 205.832 389.813 150.443C378.656 111.587 337.297 87.0107 286.182 83.6897Z" fill="url(#paint0_linear_70_14491)"/><g opacity="0.3"><path fill-rule="evenodd" clip-rule="evenodd" d="M166.844 283.069C171.488 283.93 179.795 271.623 179.363 260.537C178.932 249.45 168.67 251.584 172.203 231.312C175.735 211.041 180.072 201.482 159.881 183.716C139.689 165.949 142.029 147.918 125.81 149.871C109.59 151.823 113.653 175.279 125.165 191.136C136.677 206.993 135.762 212.265 122.222 218.049C108.682 223.833 133.969 242.068 137.188 247.432C140.408 252.796 138.809 267.317 144.88 273.867C150.951 280.417 162.2 282.207 166.844 283.069Z" fill="url(#paint1_linear_70_14491)"/><path d="M160.119 255.31C157.648 251.193 148.909 238.99 138.569 234.578" stroke="url(#paint2_linear_70_14491)" stroke-width="6" stroke-linecap="round"/><path d="M154.536 225.972C152.065 221.855 161.876 212.02 162.839 200.808" stroke="url(#paint3_linear_70_14491)" stroke-width="6" stroke-linecap="round"/><path d="M171.608 306.448C170.557 304.696 168.831 294.988 166.219 284.108C158.041 250.036 151.401 206.017 136.728 181.571" stroke="url(#paint4_linear_70_14491)" stroke-width="6" stroke-linecap="round"/></g><g opacity="0.3"><path d="M241.388 280.232C241.124 265.114 252.932 218.109 269.525 192.211" stroke="url(#paint5_linear_70_14491)" stroke-width="6" stroke-linecap="round"/><ellipse rx="4.38134" ry="13.7553" transform="matrix(0.856921 -0.515448 0.514629 0.857413 254.68 187.673)" fill="url(#paint6_linear_70_14491)"/><ellipse rx="4.38481" ry="13.7444" transform="matrix(0.0522795 0.998632 -0.998627 0.0523925 279.894 201.274)" fill="url(#paint7_linear_70_14491)"/><ellipse cx="272.087" cy="221.372" rx="4.38483" ry="13.7444" transform="rotate(90 272.087 221.372)" fill="url(#paint8_linear_70_14491)"/><ellipse cx="265.779" cy="240.84" rx="4.38483" ry="13.7444" transform="rotate(90 265.779 240.84)" fill="url(#paint9_linear_70_14491)"/><ellipse rx="4.38141" ry="13.7551" transform="matrix(0.84779 0.530332 -0.529507 0.848306 278.201 177.636)" fill="url(#paint10_linear_70_14491)"/><ellipse rx="4.38221" ry="13.7526" transform="matrix(0.742785 -0.669531 0.668731 0.743505 244.183 208.974)" fill="url(#paint11_linear_70_14491)"/><ellipse rx="4.3827" ry="13.7511" transform="matrix(0.66873 -0.743505 0.742785 0.669531 236.397 230.281)" fill="url(#paint12_linear_70_14491)"/></g><path opacity="0.472712" d="M123.589 104.54L161.512 75.4888" stroke="url(#paint13_linear_70_14491)" stroke-width="8" stroke-linecap="round" stroke-linejoin="round"/><path opacity="0.472712" d="M123.963 119.126L153.875 96.2126" stroke="url(#paint14_linear_70_14491)" stroke-width="8" stroke-linecap="round" stroke-linejoin="round"/><path opacity="0.472712" d="M254.73 137.828L292.653 108.777" stroke="url(#paint15_linear_70_14491)" stroke-width="8" stroke-linecap="round" stroke-linejoin="round"/><path opacity="0.472712" d="M255.103 152.414L285.015 129.501" stroke="url(#paint16_linear_70_14491)" stroke-width="8" stroke-linecap="round" stroke-linejoin="round"/><path fill-rule="evenodd" clip-rule="evenodd" d="M396.07 182.042L312.565 166.44C288.332 201.988 276.865 231.966 278.163 256.376C293.474 262.729 322.949 272.782 366.589 286.536L401.702 192.003C403.141 188.13 401.171 183.824 397.303 182.384C396.903 182.235 396.49 182.121 396.07 182.042Z" fill="url(#paint17_linear_70_14491)"/><path fill-rule="evenodd" clip-rule="evenodd" d="M312.593 186.805C313.355 189.437 313.011 191.336 311.559 192.503C309.382 194.254 307.195 197.231 305.04 197.476C302.884 197.722 300.55 198.905 300.172 201.932C299.99 203.394 292.51 210.955 289.837 221.356C289.161 223.99 289.984 228.042 292.307 233.514L298.486 230.108L307.288 215.836C317.063 212.437 322.573 210.331 323.819 209.519C325.688 208.3 331.742 203.087 330.574 201.132C329.407 199.178 333.205 186.758 335.46 184.344C337.715 181.93 339.563 176.047 339.608 173.875C339.653 171.703 340.435 165.201 334.805 165.408C331.052 165.546 323.648 172.679 312.593 186.805Z" fill="url(#paint18_linear_70_14491)"/><mask id="mask0_70_14491" style="mask-type:alpha" maskUnits="userSpaceOnUse" x="289" y="165" width="51" height="69"><path fill-rule="evenodd" clip-rule="evenodd" d="M312.593 186.805C313.355 189.437 313.011 191.336 311.559 192.503C309.382 194.254 307.195 197.231 305.04 197.476C302.884 197.722 300.55 198.905 300.172 201.932C299.99 203.394 292.51 210.955 289.837 221.356C289.161 223.99 289.984 228.042 292.307 233.514L298.486 230.108L307.288 215.836C317.063 212.437 322.573 210.331 323.819 209.519C325.688 208.3 331.742 203.087 330.574 201.132C329.407 199.178 333.205 186.758 335.46 184.344C337.715 181.93 339.563 176.047 339.608 173.875C339.653 171.703 340.435 165.201 334.805 165.408C331.052 165.546 323.648 172.679 312.593 186.805Z" fill="white"/></mask><g mask="url(#mask0_70_14491)"><path fill-rule="evenodd" clip-rule="evenodd" d="M333.649 197.977C333.649 197.977 322.971 179.006 317.984 174.245C312.996 169.484 341.782 164.685 341.782 164.685L333.649 201.558V197.977Z" fill="url(#paint19_linear_70_14491)" style="mix-blend-mode:multiply"/></g><path fill-rule="evenodd" clip-rule="evenodd" d="M306.758 142.182C304.182 143.919 306.38 150.91 303.591 154.901C302.066 157.083 298.858 158.296 297.377 159.164C293.186 161.621 297.492 163.374 298.358 164.837C299.224 166.299 298.534 169.602 297.886 172.206C297.237 174.809 294.937 180.676 297.403 181.987C299.87 183.298 315.014 189.021 319.393 187.273C323.772 185.525 325.338 176.768 326.417 176.198C327.497 175.628 328.255 176.23 329.251 176.478C331.845 177.126 334.187 175.671 335.434 173.599C336.846 171.254 338.853 172.324 337.768 169.119C336.093 164.174 326.388 144.698 322.532 143.298C318.676 141.898 310.744 139.495 306.758 142.182Z" fill="url(#paint20_radial_70_14491)"/><path fill-rule="evenodd" clip-rule="evenodd" d="M319.338 147.534C309.476 145.072 304.89 147.277 301.319 139.604C299.21 135.072 303.316 121.17 310.232 120.855C311.934 128.626 320.156 129.295 324.92 129.94C350.499 133.407 353.176 156.82 345.518 170.611C343.053 175.051 340.772 178.242 338.737 180.634C337.446 182.152 335.757 183.981 335.187 184.85C334.997 185.139 333.347 188.796 333.061 188.725C332.199 188.51 332.545 188.466 332.968 184.681C333.391 180.896 333.628 179.878 334.395 176.798C334.621 175.888 338.911 168.901 335.616 166.371C333.421 164.684 330.454 165.714 326.716 169.461L324.447 168.605C325.946 165.268 326.894 162.804 327.29 161.213C327.884 158.828 329.2 149.995 319.338 147.534Z" fill="url(#paint21_linear_70_14491)"/><path fill-rule="evenodd" clip-rule="evenodd" d="M319.338 147.534C309.476 145.072 304.89 147.277 301.319 139.604C299.21 135.072 303.316 121.17 310.232 120.855C311.934 128.626 320.156 129.295 324.92 129.94C350.499 133.407 353.176 156.82 345.518 170.611C343.053 175.051 340.772 178.242 338.737 180.634C337.446 182.152 335.757 183.981 335.187 184.85C334.997 185.139 333.347 188.796 333.061 188.725C332.199 188.51 332.545 188.466 332.968 184.681C333.391 180.896 333.628 179.878 334.395 176.798C334.621 175.888 338.911 168.901 335.616 166.371C333.421 164.684 330.454 165.714 326.716 169.461L324.447 168.605C325.946 165.268 326.894 162.804 327.29 161.213C327.884 158.828 329.2 149.995 319.338 147.534Z" fill="url(#paint22_linear_70_14491)"/><path fill-rule="evenodd" clip-rule="evenodd" d="M324.45 168.719C323.697 170.399 320.856 174.27 318.293 175.669C315.729 177.067 310.329 177.152 309.222 175.558C308.114 173.964 303.082 166.742 298.547 165.61C298.32 166.524 297.698 168.079 296.683 170.275C300.193 171.736 302.232 173.11 302.799 174.397C303.65 176.328 304.107 175.034 303.257 175.892C302.407 176.751 297.971 176.091 297.634 172.742C296.354 175.409 294.979 182.607 295.464 184.251C295.948 185.896 298.738 186.65 301.491 186.827C304.245 187.004 314.055 188.503 316.553 187.991C319.052 187.48 322.226 187.775 324.316 181.715C326.407 175.655 325.942 171.729 328.67 166.568C331.397 161.407 325.202 167.04 324.45 168.719Z" fill="url(#paint23_linear_70_14491)"/><g filter="url(#filter0_i_70_14491)"><path fill-rule="evenodd" clip-rule="evenodd" d="M332.264 193.229C342.628 195.592 349.592 199.531 353.155 205.045C358.5 213.316 361.178 235.288 361.178 242.415C361.178 249.541 362.03 267.024 361.178 271.794C360.326 276.564 356.412 280.107 348.313 280.107C342.913 280.107 312.309 270.053 256.501 249.944C263.84 246.311 267.627 243.801 267.86 242.415C268.211 240.335 285.242 202.41 290.628 198.547C296.015 194.683 307.196 192.855 311.679 192.855C311.024 194.676 309.565 196.146 311.627 198.547C313.688 200.947 317.733 201.367 321.739 199.7C324.41 198.59 327.919 196.432 332.264 193.229Z" fill="#3D82F0"/><path fill-rule="evenodd" clip-rule="evenodd" d="M332.264 193.229C342.628 195.592 349.592 199.531 353.155 205.045C358.5 213.316 361.178 235.288 361.178 242.415C361.178 249.541 362.03 267.024 361.178 271.794C360.326 276.564 356.412 280.107 348.313 280.107C342.913 280.107 312.309 270.053 256.501 249.944C263.84 246.311 267.627 243.801 267.86 242.415C268.211 240.335 285.242 202.41 290.628 198.547C296.015 194.683 307.196 192.855 311.679 192.855C311.024 194.676 309.565 196.146 311.627 198.547C313.688 200.947 317.733 201.367 321.739 199.7C324.41 198.59 327.919 196.432 332.264 193.229Z" fill="url(#paint24_linear_70_14491)"/></g><mask id="mask1_70_14491" style="mask-type:alpha" maskUnits="userSpaceOnUse" x="256" y="192" width="106" height="89"><path fill-rule="evenodd" clip-rule="evenodd" d="M332.264 193.229C342.628 195.592 349.592 199.531 353.155 205.045C358.5 213.316 361.178 235.288 361.178 242.415C361.178 249.541 362.03 267.024 361.178 271.794C360.326 276.564 356.412 280.107 348.313 280.107C342.913 280.107 312.309 270.053 256.501 249.944C263.84 246.311 267.627 243.801 267.86 242.415C268.211 240.335 285.242 202.41 290.628 198.547C296.015 194.683 307.196 192.855 311.679 192.855C311.024 194.676 309.565 196.146 311.627 198.547C313.688 200.947 317.733 201.367 321.739 199.7C324.41 198.59 327.919 196.432 332.264 193.229Z" fill="white"/><path fill-rule="evenodd" clip-rule="evenodd" d="M332.264 193.229C342.628 195.592 349.592 199.531 353.155 205.045C358.5 213.316 361.178 235.288 361.178 242.415C361.178 249.541 362.03 267.024 361.178 271.794C360.326 276.564 356.412 280.107 348.313 280.107C342.913 280.107 312.309 270.053 256.501 249.944C263.84 246.311 267.627 243.801 267.86 242.415C268.211 240.335 285.242 202.41 290.628 198.547C296.015 194.683 307.196 192.855 311.679 192.855C311.024 194.676 309.565 196.146 311.627 198.547C313.688 200.947 317.733 201.367 321.739 199.7C324.41 198.59 327.919 196.432 332.264 193.229Z" stroke="white"/></mask><g mask="url(#mask1_70_14491)"><g opacity="0.585435"><path fill-rule="evenodd" clip-rule="evenodd" d="M306.22 194.314C297.636 203.11 314.568 207.796 321.482 205.453C328.396 203.11 336.154 194.314 336.154 194.314C336.154 194.314 316.605 179.75 311.412 187.032C306.22 194.314 314.803 185.519 306.22 194.314Z" fill="url(#paint25_linear_70_14491)" style="mix-blend-mode:multiply"/></g><g opacity="0.54654"><path fill-rule="evenodd" clip-rule="evenodd" d="M293.987 273.89C300.099 273.89 339.837 267.303 339.837 261.955C339.837 256.608 336.774 218.936 336.774 218.936" fill="url(#paint26_linear_70_14491)" style="mix-blend-mode:multiply"/></g><g opacity="0.54654"><path fill-rule="evenodd" clip-rule="evenodd" d="M238.317 250.699C241.085 250.699 253.883 266.931 265.576 261.468C279.702 254.868 287.927 230.43 287.927 227.505C287.927 225.267 291.635 217.33 290.223 208.683C289.386 203.556 282.553 192.418 282.553 192.418" fill="url(#paint27_linear_70_14491)" style="mix-blend-mode:multiply"/></g></g><path fill-rule="evenodd" clip-rule="evenodd" d="M191.806 73.727C193.31 85.2018 193.598 91.879 192.671 93.7587C191.279 96.5783 193.974 109.842 202.555 110.611C211.135 111.38 215.634 107.72 215.971 98.771C216.308 89.8218 216.846 86.3716 218.231 82.4115C219.617 78.4514 193.792 62.0446 192.671 65.0778C191.923 67.1 191.635 69.9831 191.806 73.727Z" fill="url(#paint28_linear_70_14491)"/><path fill-rule="evenodd" clip-rule="evenodd" d="M227.074 47.3655C227.074 49.9168 227.412 57.8816 227.156 59.8999C226.9 61.9182 226.696 64.9259 226.926 68.8114C227.156 72.6971 225.141 82.2537 222.89 85.716C221.547 87.7831 216.222 91.7682 210.999 91.2084C204.807 90.5446 198.036 84.5591 197.312 81.5661C195.977 76.0485 197.083 71.1794 193.236 68.2473C189.388 65.3153 186.584 62.5919 186.93 58.0654C187.276 53.5391 191.227 42.7637 193.236 42.3109C195.244 41.8582 227.074 44.8142 227.074 47.3655Z" fill="url(#paint29_radial_70_14491)"/><path fill-rule="evenodd" clip-rule="evenodd" d="M194.019 44.1079C195.845 46.8659 211.83 60.1613 227.852 51.5295C243.874 42.8977 222.561 27.2277 212.897 25.44C203.232 23.6522 194.91 24.6459 189.064 32.7661C183.219 40.8864 180.286 54.8033 191.722 73.6826C192.226 70.6867 192.477 68.6902 192.477 67.6931C187.926 63.5247 186.789 59.6404 189.064 56.04C192.477 50.6394 193.606 61.2281 194.019 62.9291C195.378 62.9291 196.233 62.692 196.584 62.2177C195.648 59.5452 195.307 57.0738 195.56 54.8033C195.94 51.3975 197.064 50.6394 194.019 44.1079Z" fill="url(#paint30_linear_70_14491)"/><path fill-rule="evenodd" clip-rule="evenodd" d="M163.517 243.198C163.517 239.037 158.702 211.783 168.626 203.595C178.55 195.407 190.825 207.352 236.034 209.162C236.779 227.466 236.779 240.352 236.034 247.82C235.29 255.289 207.981 265.876 163.517 243.198Z" fill="#3D82F0"/><path fill-rule="evenodd" clip-rule="evenodd" d="M155.854 207.903C156.92 212.63 160.447 217.68 161.635 218.771C162.823 219.861 167.146 221.213 167.963 220.95C168.781 220.688 170.932 218.888 171.029 216.781C171.126 214.675 169.063 213.488 169.049 210.376C169.035 207.263 163.864 202.749 163.864 199.995C163.864 197.242 154.788 203.176 155.854 207.903Z" fill="#113275"/><path fill-rule="evenodd" clip-rule="evenodd" d="M288.749 201.418C291.956 205.676 294.044 206.421 295.246 207.691C296.448 208.961 299.198 213.444 300.22 212.697C301.241 211.95 302.299 210.478 300.709 207.691C299.12 204.905 296.713 201.965 297.548 200.49C298.384 199.015 302.463 194.655 305.867 193.643C309.272 192.63 310.403 193.284 310.742 192.74C311.081 192.197 306.671 191.407 304.853 191.203C303.036 190.999 300.46 190.765 296.747 191.203C294.271 191.495 292.547 190.465 291.573 188.112C287.553 194.144 286.611 198.579 288.749 201.418Z" fill="#143B8C"/><g filter="url(#filter1_i_70_14491)"><path fill-rule="evenodd" clip-rule="evenodd" d="M165.402 201.535C163.128 200.253 155.517 203.314 155.517 209.506C151.475 195.733 140.258 177.09 140.258 156.716C145.4 138.954 158.815 110.952 161.811 106.557C163.808 103.627 173.705 99.5262 191.5 94.2539C195.48 98.6089 200.197 100.786 205.651 100.786C213.832 100.786 214.262 95.7641 216.447 95.502C218.633 95.2398 231.014 100.786 237.121 106.688C243.228 112.589 249.766 135.798 265.829 153.814C281.893 171.83 287.654 184.4 295.624 191.169C292.7 193.79 288.74 195.317 288.74 201.535C285.855 199.418 269.759 188.336 256.118 175.437C242.476 162.538 236.426 151.81 234.367 150.357C232 148.687 237.352 200.357 237.121 209.506C236.889 218.656 205.465 219.178 195.638 219.178C185.81 219.178 170.613 215.773 166.711 212.415C166.069 211.862 167.754 139.215 166.711 142.263C164.067 149.997 157.926 153.814 157.926 158.907C157.926 170.743 165.417 202.369 165.402 201.535Z" fill="url(#paint31_linear_70_14491)"/></g><mask id="mask2_70_14491" style="mask-type:alpha" maskUnits="userSpaceOnUse" x="140" y="94" width="156" height="126"><path fill-rule="evenodd" clip-rule="evenodd" d="M165.402 201.535C163.128 200.253 155.517 203.314 155.517 209.506C151.475 195.733 140.258 177.09 140.258 156.716C145.4 138.954 158.815 110.952 161.811 106.557C163.808 103.627 173.705 99.5262 191.5 94.2539C195.48 98.6089 200.197 100.786 205.651 100.786C213.832 100.786 214.262 95.7641 216.447 95.502C218.633 95.2398 231.014 100.786 237.121 106.688C243.228 112.589 249.766 135.798 265.829 153.814C281.893 171.83 287.654 184.4 295.624 191.169C292.7 193.79 288.74 195.317 288.74 201.535C285.855 199.418 269.759 188.336 256.118 175.437C242.476 162.538 236.426 151.81 234.367 150.357C232 148.687 237.352 200.357 237.121 209.506C236.889 218.656 205.465 219.178 195.638 219.178C185.81 219.178 170.613 215.773 166.711 212.415C166.069 211.862 167.754 139.215 166.711 142.263C164.067 149.997 157.926 153.814 157.926 158.907C157.926 170.743 165.417 202.369 165.402 201.535Z" fill="white"/></mask><g mask="url(#mask2_70_14491)"><path fill-rule="evenodd" clip-rule="evenodd" d="M163.417 148.628L177.496 129.896C177.496 129.896 182.711 190.641 159.431 211.682C155.329 187.343 157.612 174.622 159.431 163.986C160.625 157.002 163.417 148.628 163.417 148.628Z" fill="url(#paint32_linear_70_14491)" style="mix-blend-mode:multiply"/><g opacity="0.161551"><path fill-rule="evenodd" clip-rule="evenodd" d="M168.111 215.913C173.367 200.498 196.985 149.729 207.093 142.49C217.201 135.25 217.963 125.907 217.582 113.505C217.201 101.104 193.592 76.3958 181.249 85.7414C168.906 95.0871 135.862 112.33 132.249 141.243C128.635 170.157 144.024 214.505 150.976 210.121C157.928 205.737 162.855 231.327 168.111 215.913Z" fill="url(#paint33_linear_70_14491)" style="mix-blend-mode:multiply"/></g></g><path fill-rule="evenodd" clip-rule="evenodd" d="M192.997 84.8961C192.997 87.7146 197.279 95.5932 205.547 95.2934C213.814 94.9937 215.478 94.7658 216.417 90.5632C216.417 96.7895 216.739 98.6274 215.214 102.733C213.69 106.839 204.186 109.09 198.856 105.68C193.526 102.269 190.749 100.228 191.528 94.0012C192.308 87.7748 192.997 82.0776 192.997 84.8961Z" fill="url(#paint34_linear_70_14491)"/><path fill-rule="evenodd" clip-rule="evenodd" d="M5.48844 171.315L81.3066 152.976C95.3288 190.823 101.691 221.952 100.392 246.362C85.0813 252.714 62.1155 260.951 31.4944 271.072L0.18639 181.045C-1.17041 177.144 0.889148 172.88 4.78651 171.521C5.01699 171.441 5.25121 171.372 5.48844 171.315Z" fill="url(#paint35_linear_70_14491)"/><path fill-rule="evenodd" clip-rule="evenodd" d="M91.7915 158.096C90.1682 163.242 95.4415 177.773 103.819 184.874C112.196 191.975 85.2513 190.768 85.2354 182.851C85.2197 174.934 93.4146 152.949 91.7915 158.096Z" fill="#316EEA"/><path fill-rule="evenodd" clip-rule="evenodd" d="M95.4583 174.223C101.794 176.838 106.361 179.632 109.161 182.602C113.36 187.059 133.782 221.719 136.189 223.77C138.597 225.822 155.168 227.377 157.663 228.195C156.387 230.044 153.905 235.752 155.181 240.773C151.243 242.758 142.592 240.986 124.897 239.001C111.734 227.979 104.9 210.594 102.085 202.295C99.2705 193.996 97.0617 184.638 95.4583 174.223Z" fill="url(#paint36_linear_70_14491)"/><path fill-rule="evenodd" clip-rule="evenodd" d="M104.152 180.167C109.266 188.925 117.156 206.511 119.397 214.103C121.8 222.246 112.459 243.687 112.568 248.726C112.658 252.927 108.339 251.46 69.9743 255.325C68.7887 247.917 68.7887 238.655 69.9743 227.538C71.7528 210.862 64.5055 188.427 66.5148 184.66C68.5241 180.892 73.4122 172.881 75.5581 172.881C77.7038 172.881 99.0368 171.409 104.152 180.167Z" fill="url(#paint37_radial_70_14491)"/><path fill-rule="evenodd" clip-rule="evenodd" d="M-54.0663 272.35L170.946 225.326C179.287 223.583 187.947 224.172 195.975 227.028L308.704 267.134C352.15 282.591 347.155 345.577 301.816 353.992C299.1 354.496 296.345 354.75 293.583 354.75H28.3335C-17.1747 354.75 -54.0663 317.858 -54.0663 272.35Z" fill="rgb(212 234 241 / 6%)"/><g style="mix-blend-mode:multiply" opacity="0.196931"><path fill-rule="evenodd" clip-rule="evenodd" d="M112.046 280.363L203.508 265.564L273.097 296.087L172.352 322.841" fill="url(#paint39_linear_70_14491)"/></g><path fill-rule="evenodd" clip-rule="evenodd" d="M89.7683 160.227C88.8125 164.699 89.6373 167.934 89.6373 173.023C89.6373 179.825 75.7629 177.057 75.2894 171.901C74.8158 166.744 75.3751 159.831 73.4213 155.147C71.4674 150.463 90.7241 155.756 89.7683 160.227Z" fill="url(#paint40_linear_70_14491)"/><path fill-rule="evenodd" clip-rule="evenodd" d="M89.7683 160.227C88.8125 164.699 89.6373 167.934 89.6373 173.023C89.6373 179.825 75.7629 177.057 75.2894 171.901C74.8158 166.744 75.3751 159.831 73.4213 155.147C71.4674 150.463 90.7241 155.756 89.7683 160.227Z" fill="url(#paint41_linear_70_14491)" fill-opacity="0.67"/><mask id="mask3_70_14491" style="mask-type:alpha" maskUnits="userSpaceOnUse" x="73" y="153" width="17" height="25"><path fill-rule="evenodd" clip-rule="evenodd" d="M89.7683 160.227C88.8125 164.699 89.6373 167.934 89.6373 173.023C89.6373 179.825 75.7629 177.057 75.2894 171.901C74.8158 166.744 75.3751 159.831 73.4213 155.147C71.4674 150.463 90.7241 155.756 89.7683 160.227Z" fill="white"/><path fill-rule="evenodd" clip-rule="evenodd" d="M89.7683 160.227C88.8125 164.699 89.6373 167.934 89.6373 173.023C89.6373 179.825 75.7629 177.057 75.2894 171.901C74.8158 166.744 75.3751 159.831 73.4213 155.147C71.4674 150.463 90.7241 155.756 89.7683 160.227Z" stroke="white"/></mask><g mask="url(#mask3_70_14491)"><g opacity="0.717132"><path fill-rule="evenodd" clip-rule="evenodd" d="M69.9053 180.125C69.9053 180.125 90.8631 162.546 95.6998 162.546C100.537 162.546 69.9053 156.652 69.9053 156.652V180.125Z" fill="url(#paint42_linear_70_14491)" style="mix-blend-mode:multiply"/></g></g><path fill-rule="evenodd" clip-rule="evenodd" d="M94.0285 124.247C95.2617 128.145 95.1237 132.469 97.5165 136.191C99.9092 139.914 103.062 143.166 103.899 144.82C104.736 146.474 100.541 147.943 100.541 149.423C100.541 150.902 103.337 161.194 101.84 162.178C100.988 164.476 85.2852 167.662 81.3203 165.38C77.8249 165.38 72.4377 162.31 69.1318 154.766C65.8259 147.222 65.6734 128.904 69.1318 124.247C72.5901 119.59 92.7954 120.349 94.0285 124.247Z" fill="url(#paint43_linear_70_14491)"/><path fill-rule="evenodd" clip-rule="evenodd" d="M118.529 273.254L123.767 230.71L195.204 229.276L188.958 270.813L118.529 273.254Z" fill="url(#paint44_linear_70_14491)"/><mask id="mask4_70_14491" style="mask-type:alpha" maskUnits="userSpaceOnUse" x="118" y="229" width="78" height="45"><path fill-rule="evenodd" clip-rule="evenodd" d="M118.529 273.254L123.767 230.71L195.204 229.276L188.958 270.813L118.529 273.254Z" fill="white"/></mask><g mask="url(#mask4_70_14491)"><g style="mix-blend-mode:multiply" opacity="0.458036"><path fill-rule="evenodd" clip-rule="evenodd" d="M192.74 261.791L183.441 228.158H198.422L192.74 261.791Z" fill="url(#paint45_linear_70_14491)"/></g><g style="mix-blend-mode:multiply" opacity="0.528404"><path fill-rule="evenodd" clip-rule="evenodd" d="M126.468 253.629C126.468 256.313 132.923 260.208 140.512 263.617C144.912 265.594 144.306 270.184 146.22 270.184C151.438 270.184 114.391 285.258 114.391 285.258C114.391 285.258 112.382 264.873 114.391 259.553C116.58 253.756 126.468 252.155 126.468 253.629Z" fill="url(#paint46_linear_70_14491)"/></g></g><path fill-rule="evenodd" clip-rule="evenodd" d="M112.712 255.995C114.881 255.995 117.508 254.846 121.344 253.969C125.18 253.091 127.599 251.696 128.777 252.994C129.237 253.501 128.469 254.735 127.908 255.071C127.347 255.408 127.049 255.903 124.371 256.895C121.885 257.815 120.445 258.245 120.894 259.103C121.344 259.96 125.417 260.706 126.721 261.052C128.386 261.493 130.889 262.354 133.277 262.755C135.945 263.204 138.893 263.254 139.232 263.449C139.874 263.82 140.813 265.216 139.232 265.662C138.859 265.767 136.159 265.821 132.874 265.662C129.367 265.491 126.151 264.819 126.721 265.662C126.856 265.862 130.09 266.522 133.643 266.522C135.748 266.522 140.008 266.784 140.278 266.784C141.252 266.784 141.741 268.118 140.857 268.774C140.651 268.927 136.54 269.393 133.277 269.513C129.521 269.652 126.196 269.311 126.157 269.513C126.128 269.661 130.085 270.159 133.643 269.99C136.522 269.852 138.104 269.627 138.642 269.99C139.181 270.352 139.044 271.321 138.642 271.757C138.475 271.939 135.874 272.767 133.277 272.939C129.63 273.181 125.667 272.758 125.632 272.939C125.538 273.419 132.278 273.722 133.277 273.722C134.699 273.722 134.519 275.563 132.874 275.953C130.811 276.441 126.541 276.403 124.598 276.403C122.655 276.403 119.735 275.953 116.814 274.867C113.892 273.781 109.991 272.326 107.518 271.757C104.846 271.142 106.765 262.684 108.615 258.246C110.466 253.808 110.543 255.995 112.712 255.995Z" fill="url(#paint47_linear_70_14491)"/><path fill-rule="evenodd" clip-rule="evenodd" d="M48.1427 207.197C42.6167 221.343 46.9854 232.08 49.4112 244.336C51.837 256.592 52.9407 259.245 56.8067 261.738C60.6728 264.23 70.1528 267.703 106.59 271.915C106.59 269.001 106.497 261.764 111.259 255.686C104.526 255.686 80.5919 249.077 72.3627 247.006C64.9694 241.334 72.3627 232.24 72.3627 215.177C72.3627 198.115 53.6688 193.051 48.1427 207.197Z" fill="url(#paint48_linear_70_14491)"/><path fill-rule="evenodd" clip-rule="evenodd" d="M88.0966 138.821L69.4457 142.339V143.736L88.7606 142.264L88.0966 138.821Z" fill="#143B8C"/><path fill-rule="evenodd" clip-rule="evenodd" d="M93.0619 146.131C90.9086 146.358 88.8717 143.792 88.516 140.404C88.1604 137.017 89.6199 134.083 91.7731 133.856C93.9264 133.629 95.9634 136.196 96.319 139.583C96.6747 142.971 95.2152 145.905 93.0619 146.131Z" fill="black" fill-opacity="0.01" stroke="#143B8C" stroke-width="4"/><path fill-rule="evenodd" clip-rule="evenodd" d="M103.462 140.097C101.514 140.302 99.6707 137.98 99.3489 134.915C99.0272 131.85 100.348 129.195 102.296 128.99C104.244 128.786 106.087 131.107 106.409 134.172C106.731 137.237 105.41 139.892 103.462 140.097Z" fill="black" fill-opacity="0.01" stroke="#143B8C" stroke-width="4"/><path fill-rule="evenodd" clip-rule="evenodd" d="M95.9274 138.401C95.9274 137.546 98.3369 135.871 99.5455 136.714L95.9274 138.401Z" fill="black" fill-opacity="0.01"/><path d="M95.9274 138.401C95.9274 137.546 98.3369 135.871 99.5455 136.714" stroke="#143B8C" stroke-width="4"/><path fill-rule="evenodd" clip-rule="evenodd" d="M70.4269 126.022C75.5904 130.019 87.6047 131.191 95.7824 127.33C103.96 123.468 105.956 107.658 95.7824 102.794C91.913 100.944 84.2276 102.142 85.2935 107.719C76.3927 104.273 66.7139 107.291 62.8763 109.589C56.8971 113.17 52.2364 117.072 49.7858 125.274C47.3353 133.477 51.3361 141.634 49.3671 145.812C47.3981 149.989 41.5974 153.615 44.6987 166.452C47.7999 179.289 40.3479 177.235 38.668 185.065C36.988 192.895 42.3389 196.631 38.668 201.848C34.997 207.065 27.9596 229.091 41.1406 240.888C54.3216 252.684 78.8837 261.279 84.4652 235.885C90.0468 210.491 63.8645 204.947 71.5479 192.248C79.2311 179.549 74.1413 167.776 75.7496 164.146C77.7283 159.679 75.6009 152.862 71.8432 143.625C68.3629 135.069 73.3732 132.785 70.4269 126.022Z" fill="url(#paint49_linear_70_14491)"/><path fill-rule="evenodd" clip-rule="evenodd" d="M70.4269 126.022C75.5904 130.019 87.6047 131.191 95.7824 127.33C103.96 123.468 105.956 107.658 95.7824 102.794C91.913 100.944 84.2276 102.142 85.2935 107.719C76.3927 104.273 66.7139 107.291 62.8763 109.589C56.8971 113.17 52.2364 117.072 49.7858 125.274C47.3353 133.477 51.3361 141.634 49.3671 145.812C47.3981 149.989 41.5974 153.615 44.6987 166.452C47.7999 179.289 40.3479 177.235 38.668 185.065C36.988 192.895 42.3389 196.631 38.668 201.848C34.997 207.065 27.9596 229.091 41.1406 240.888C54.3216 252.684 78.8837 261.279 84.4652 235.885C90.0468 210.491 63.8645 204.947 71.5479 192.248C79.2311 179.549 74.1413 167.776 75.7496 164.146C77.7283 159.679 75.6009 152.862 71.8432 143.625C68.3629 135.069 73.3732 132.785 70.4269 126.022Z" fill="url(#paint50_linear_70_14491)"/><path fill-rule="evenodd" clip-rule="evenodd" d="M116.281 305.151L165.995 296.601C193.435 313.767 206.883 322.405 206.338 322.516C205.562 322.672 150.667 332.282 146.959 333.278C147.306 332.391 137.077 323.013 116.281 305.151Z" fill="url(#paint51_linear_70_14491)"/><path fill-rule="evenodd" clip-rule="evenodd" d="M145.797 291.872L197.75 288.372L226.311 313.353L161.586 317.823L145.797 291.872Z" fill="url(#paint52_linear_70_14491)"/><g filter="url(#filter2_i_70_14491)"><path fill-rule="evenodd" clip-rule="evenodd" d="M273.321 295.61L320.504 276.803C321.462 276.42 321.93 275.333 321.548 274.373C321.35 273.875 320.947 273.486 320.443 273.305L260.365 251.749L201.099 266.412L273.321 295.61Z" fill="url(#paint53_linear_70_14491)"/></g><g filter="url(#filter3_i_70_14491)"><path fill-rule="evenodd" clip-rule="evenodd" d="M190.594 205.332L257.166 226.898C259.125 227.533 260.578 229.191 260.952 231.218L272.864 295.846L200.725 266.55L187.715 207.954C187.447 206.744 188.209 205.545 189.417 205.276C189.808 205.19 190.214 205.209 190.594 205.332Z" fill="url(#paint54_linear_70_14491)"/><path fill-rule="evenodd" clip-rule="evenodd" d="M190.594 205.332L257.166 226.898C259.125 227.533 260.578 229.191 260.952 231.218L272.864 295.846L200.725 266.55L187.715 207.954C187.447 206.744 188.209 205.545 189.417 205.276C189.808 205.19 190.214 205.209 190.594 205.332Z" fill="url(#paint55_linear_70_14491)" fill-opacity="0.23"/></g><path fill-rule="evenodd" clip-rule="evenodd" d="M223.989 252.963C227.42 254.639 231.038 254.635 232.53 251.572C234.023 248.508 231.33 245.041 227.899 243.366C224.468 241.691 221.224 241.694 219.732 244.757C218.239 247.821 220.558 251.288 223.989 252.963Z" fill="#D6E3FA"/><path fill-rule="evenodd" clip-rule="evenodd" d="M201.349 65.2348C201.336 62.9006 203.218 60.9981 205.552 60.9846L209.154 60.9637C211.546 60.9499 213.481 62.9069 213.44 65.2984V65.2984C213.399 67.6438 211.47 69.5155 209.125 69.4857L205.523 69.4399C203.218 69.4106 201.361 67.5401 201.349 65.2348V65.2348Z" stroke="#E5EFFD" stroke-width="5"/><path fill-rule="evenodd" clip-rule="evenodd" d="M221.126 65.2507C221.101 62.8962 223.003 60.974 225.357 60.9749L227.903 60.976C230.268 60.9769 232.179 62.9067 232.156 65.272V65.272C232.133 67.6403 230.181 69.5342 227.813 69.4853L225.268 69.4327C222.985 69.3855 221.151 67.5343 221.126 65.2507V65.2507Z" stroke="#E5EFFD" stroke-width="5"/><path fill-rule="evenodd" clip-rule="evenodd" d="M213.428 64.7061H220.9H213.428Z" fill="black" fill-opacity="0.01"/><path d="M213.428 64.7061H220.9" stroke="#E5EFFD" stroke-width="4"/><path fill-rule="evenodd" clip-rule="evenodd" d="M192.804 58.3406L201.909 62.7679V67.103L193.668 61.3469L192.804 58.3406Z" fill="#E5EFFD"/><path fill-rule="evenodd" clip-rule="evenodd" d="M100.699 152.173C101.065 151.984 100.95 152.821 101.11 153.313C101.269 153.804 101.378 153.881 101.43 154.202C99.9088 154.986 97.2604 155.141 95.4871 154.091C95.1319 153.881 94.8216 153.708 95.1159 153.419C95.4102 153.129 95.7769 153.31 96.1726 153.428C97.5537 153.837 99.7504 152.662 100.699 152.173Z" fill="#1A418F"/><path opacity="0.7" fill-rule="evenodd" clip-rule="evenodd" d="M47.1844 320.538C59.5651 320.538 69.6016 322.715 69.6016 325.4C69.6016 328.086 59.5651 330.263 47.1844 330.263C34.8038 330.263 24.7673 328.086 24.7673 325.4C24.7673 322.715 34.8038 320.538 47.1844 320.538Z" fill="url(#paint56_linear_70_14491)"/><path fill-rule="evenodd" clip-rule="evenodd" d="M77.0579 297.113C78.7445 300.072 79.6892 303.386 79.6892 306.886C79.6892 319.384 67.6455 329.515 52.7887 329.515C37.9319 329.515 25.8882 319.384 25.8882 306.886C25.8882 303.182 26.946 299.686 28.8216 296.6C40.7384 298.489 64.4581 298.367 77.0579 297.113Z" fill="url(#paint57_linear_70_14491)"/><mask id="mask5_70_14491" style="mask-type:alpha" maskUnits="userSpaceOnUse" x="25" y="296" width="55" height="34"><path fill-rule="evenodd" clip-rule="evenodd" d="M77.0579 297.113C78.7445 300.072 79.6892 303.386 79.6892 306.886C79.6892 319.384 67.6455 329.515 52.7887 329.515C37.9319 329.515 25.8882 319.384 25.8882 306.886C25.8882 303.182 26.946 299.686 28.8216 296.6C40.7384 298.489 64.4581 298.367 77.0579 297.113Z" fill="white"/></mask><g mask="url(#mask5_70_14491)"></g><path fill-rule="evenodd" clip-rule="evenodd" d="M52.9755 292.112C66.4911 292.112 77.4475 294.708 77.4475 297.91C77.4475 301.111 66.4911 303.707 52.9755 303.707C39.4599 303.707 28.5034 301.111 28.5034 297.91C28.5034 294.708 39.4599 292.112 52.9755 292.112Z" fill="url(#paint58_linear_70_14491)"/><mask id="mask6_70_14491" style="mask-type:alpha" maskUnits="userSpaceOnUse" x="28" y="292" width="50" height="12"><path fill-rule="evenodd" clip-rule="evenodd" d="M52.9755 292.112C66.4911 292.112 77.4475 294.708 77.4475 297.91C77.4475 301.111 66.4911 303.707 52.9755 303.707C39.4599 303.707 28.5034 301.111 28.5034 297.91C28.5034 294.708 39.4599 292.112 52.9755 292.112Z" fill="white"/></mask><g mask="url(#mask6_70_14491)"></g><g filter="url(#filter4_i_70_14491)"><path fill-rule="evenodd" clip-rule="evenodd" d="M50.9206 293.608C49.5842 284.35 45.9077 270.98 34.855 256.58C28.3442 248.097 28.323 227.44 27.3827 225.162C32.4916 226.921 41.6692 231.454 50.9206 244.237C60.6187 257.637 54.4664 284.965 50.9206 293.608Z" fill="url(#paint59_linear_70_14491)"/></g><mask id="mask7_70_14491" style="mask-type:alpha" maskUnits="userSpaceOnUse" x="27" y="225" width="30" height="69"><path fill-rule="evenodd" clip-rule="evenodd" d="M50.9206 293.608C49.5842 284.35 45.9077 270.98 34.855 256.58C28.3442 248.097 28.323 227.44 27.3827 225.162C32.4916 226.921 41.6692 231.454 50.9206 244.237C60.6187 257.637 54.4664 284.965 50.9206 293.608Z" fill="white"/></mask><g mask="url(#mask7_70_14491)"><g style="mix-blend-mode:multiply" opacity="0.5"><path d="M49.1314 279.639L43.5219 253.065C46.9297 260.716 48.6862 269.134 49.1314 279.639Z" fill="black" fill-opacity="0.01"/><path d="M49.1314 279.639L43.5219 253.065C46.9297 260.716 48.6862 269.134 49.1314 279.639Z" stroke="#489C71" stroke-width="3"/></g></g><g filter="url(#filter5_i_70_14491)"><path fill-rule="evenodd" clip-rule="evenodd" d="M50.9618 303.112C46.833 296.501 39.5381 287.541 26.2685 280.277C18.4518 275.998 11.4989 260.251 10.0164 258.83C14.5054 258.453 23.031 258.824 34.383 265.461C46.283 272.418 50.765 295.328 50.9618 303.112Z" fill="url(#paint60_linear_70_14491)"/></g><mask id="mask8_70_14491" style="mask-type:alpha" maskUnits="userSpaceOnUse" x="10" y="258" width="41" height="46"><path fill-rule="evenodd" clip-rule="evenodd" d="M50.9618 303.112C46.833 296.501 39.5381 287.541 26.2685 280.277C18.4518 275.998 11.4989 260.251 10.0164 258.83C14.5054 258.453 23.031 258.824 34.383 265.461C46.283 272.418 50.765 295.328 50.9618 303.112Z" fill="white"/></mask><g mask="url(#mask8_70_14491)"><g style="mix-blend-mode:multiply" opacity="0.5"><path d="M43.1439 290.181L33.4893 276.743C37.1055 280.417 40.2298 284.776 43.1439 290.181Z" fill="black" fill-opacity="0.01"/><path d="M43.1439 290.181L33.4893 276.743C37.1055 280.417 40.2298 284.776 43.1439 290.181Z" stroke="#489C71" stroke-width="3"/></g></g><g filter="url(#filter6_i_70_14491)"><path fill-rule="evenodd" clip-rule="evenodd" d="M53.9271 304.018C57.1826 296.902 63.2873 287.039 75.563 278.092C82.7942 272.822 87.6785 256.246 88.9709 254.639C84.4506 254.843 76.0067 256.313 65.5597 264.387C54.6084 272.851 53.114 296.242 53.9271 304.018Z" fill="url(#paint61_linear_70_14491)"/></g><mask id="mask9_70_14491" style="mask-type:alpha" maskUnits="userSpaceOnUse" x="53" y="254" width="36" height="51"><path fill-rule="evenodd" clip-rule="evenodd" d="M53.9271 304.018C57.1826 296.902 63.2873 287.039 75.563 278.092C82.7942 272.822 87.6785 256.246 88.9709 254.639C84.4506 254.843 76.0067 256.313 65.5597 264.387C54.6084 272.851 53.114 296.242 53.9271 304.018Z" fill="white"/></mask><g mask="url(#mask9_70_14491)"><g style="mix-blend-mode:multiply" opacity="0.5"><path d="M66.7131 275.328L58.7467 290.126C60.9699 284.29 63.5448 279.494 66.7131 275.328Z" fill="black" fill-opacity="0.01"/><path d="M66.7131 275.328L58.7467 290.126C60.9699 284.29 63.5448 279.494 66.7131 275.328Z" stroke="#489C71" stroke-width="3"/></g></g><defs><filter id="filter0_i_70_14491" x="244.501" y="192.855" width="117.056" height="88.252" filterUnits="userSpaceOnUse" color-interpolation-filters="sRGB"><feFlood flood-opacity="0" result="BackgroundImageFix"/><feBlend mode="normal" in="SourceGraphic" in2="BackgroundImageFix" result="shape"/><feColorMatrix in="SourceAlpha" type="matrix" values="0 0 0 0 0 0 0 0 0 0 0 0 0 0 0 0 0 0 127 0" result="hardAlpha"/><feOffset dx="-12" dy="1"/><feGaussianBlur stdDeviation="13.5"/><feComposite in2="hardAlpha" operator="arithmetic" k2="-1" k3="1"/><feColorMatrix type="matrix" values="0 0 0 0 0.0901961 0 0 0 0 0.254902 0 0 0 0 0.572549 0 0 0 0.204201 0"/><feBlend mode="normal" in2="shape" result="effect1_innerShadow_70_14491"/></filter><filter id="filter1_i_70_14491" x="140.258" y="94.2539" width="163.367" height="127.924" filterUnits="userSpaceOnUse" color-interpolation-filters="sRGB"><feFlood flood-opacity="0" result="BackgroundImageFix"/><feBlend mode="normal" in="SourceGraphic" in2="BackgroundImageFix" result="shape"/><feColorMatrix in="SourceAlpha" type="matrix" values="0 0 0 0 0 0 0 0 0 0 0 0 0 0 0 0 0 0 127 0" result="hardAlpha"/><feOffset dx="8" dy="3"/><feGaussianBlur stdDeviation="11.5"/><feComposite in2="hardAlpha" operator="arithmetic" k2="-1" k3="1"/><feColorMatrix type="matrix" values="0 0 0 0 0.729412 0 0 0 0 0.8 0 0 0 0 0.933333 0 0 0 1 0"/><feBlend mode="normal" in2="shape" result="effect1_innerShadow_70_14491"/></filter><filter id="filter2_i_70_14491" x="184.099" y="244.749" width="137.583" height="50.8615" filterUnits="userSpaceOnUse" color-interpolation-filters="sRGB"><feFlood flood-opacity="0" result="BackgroundImageFix"/><feBlend mode="normal" in="SourceGraphic" in2="BackgroundImageFix" result="shape"/><feColorMatrix in="SourceAlpha" type="matrix" values="0 0 0 0 0 0 0 0 0 0 0 0 0 0 0 0 0 0 127 0" result="hardAlpha"/><feOffset dx="-17" dy="-7"/><feGaussianBlur stdDeviation="12"/><feComposite in2="hardAlpha" operator="arithmetic" k2="-1" k3="1"/><feColorMatrix type="matrix" values="0 0 0 0 0.239216 0 0 0 0 0.509804 0 0 0 0 0.941176 0 0 0 0.775419 0"/><feBlend mode="normal" in2="shape" result="effect1_innerShadow_70_14491"/></filter><filter id="filter3_i_70_14491" x="181.662" y="205.223" width="91.2019" height="92.6226" filterUnits="userSpaceOnUse" color-interpolation-filters="sRGB"><feFlood flood-opacity="0" result="BackgroundImageFix"/><feBlend mode="normal" in="SourceGraphic" in2="BackgroundImageFix" result="shape"/><feColorMatrix in="SourceAlpha" type="matrix" values="0 0 0 0 0 0 0 0 0 0 0 0 0 0 0 0 0 0 127 0" result="hardAlpha"/><feOffset dx="-6" dy="2"/><feGaussianBlur stdDeviation="6"/><feComposite in2="hardAlpha" operator="arithmetic" k2="-1" k3="1"/><feColorMatrix type="matrix" values="0 0 0 0 1 0 0 0 0 1 0 0 0 0 1 0 0 0 0.5 0"/><feBlend mode="normal" in2="shape" result="effect1_innerShadow_70_14491"/></filter><filter id="filter4_i_70_14491" x="27.3827" y="215.162" width="28.7488" height="78.4463" filterUnits="userSpaceOnUse" color-interpolation-filters="sRGB"><feFlood flood-opacity="0" result="BackgroundImageFix"/><feBlend mode="normal" in="SourceGraphic" in2="BackgroundImageFix" result="shape"/><feColorMatrix in="SourceAlpha" type="matrix" values="0 0 0 0 0 0 0 0 0 0 0 0 0 0 0 0 0 0 127 0" result="hardAlpha"/><feOffset dy="-10"/><feGaussianBlur stdDeviation="11"/><feComposite in2="hardAlpha" operator="arithmetic" k2="-1" k3="1"/><feColorMatrix type="matrix" values="0 0 0 0 0.221483 0 0 0 0 0.77854 0 0 0 0 0.610041 0 0 0 1 0"/><feBlend mode="normal" in2="shape" result="effect1_innerShadow_70_14491"/></filter><filter id="filter5_i_70_14491" x="10.0164" y="248.729" width="40.9454" height="54.3824" filterUnits="userSpaceOnUse" color-interpolation-filters="sRGB"><feFlood flood-opacity="0" result="BackgroundImageFix"/><feBlend mode="normal" in="SourceGraphic" in2="BackgroundImageFix" result="shape"/><feColorMatrix in="SourceAlpha" type="matrix" values="0 0 0 0 0 0 0 0 0 0 0 0 0 0 0 0 0 0 127 0" result="hardAlpha"/><feOffset dy="-10"/><feGaussianBlur stdDeviation="11"/><feComposite in2="hardAlpha" operator="arithmetic" k2="-1" k3="1"/><feColorMatrix type="matrix" values="0 0 0 0 0.221483 0 0 0 0 0.77854 0 0 0 0 0.610041 0 0 0 1 0"/><feBlend mode="normal" in2="shape" result="effect1_innerShadow_70_14491"/></filter><filter id="filter6_i_70_14491" x="53.7407" y="244.639" width="35.2302" height="59.3784" filterUnits="userSpaceOnUse" color-interpolation-filters="sRGB"><feFlood flood-opacity="0" result="BackgroundImageFix"/><feBlend mode="normal" in="SourceGraphic" in2="BackgroundImageFix" result="shape"/><feColorMatrix in="SourceAlpha" type="matrix" values="0 0 0 0 0 0 0 0 0 0 0 0 0 0 0 0 0 0 127 0" result="hardAlpha"/><feOffset dy="-10"/><feGaussianBlur stdDeviation="11"/><feComposite in2="hardAlpha" operator="arithmetic" k2="-1" k3="1"/><feColorMatrix type="matrix" values="0 0 0 0 0.221483 0 0 0 0 0.77854 0 0 0 0 0.610041 0 0 0 1 0"/><feBlend mode="normal" in2="shape" result="effect1_innerShadow_70_14491"/></filter><linearGradient id="paint0_linear_70_14491" x1="290.82" y1="172.343" x2="290.82" y2="44.3381" gradientUnits="userSpaceOnUse"><stop stop-color="#ECF2FC" stop-opacity="0.642323"/><stop offset="1" stop-color="#D4E1F8"/></linearGradient><linearGradient id="paint1_linear_70_14491" x1="154.54" y1="171.156" x2="112.132" y2="226.548" gradientUnits="userSpaceOnUse"><stop stop-color="#CFDDF3"/><stop offset="1" stop-color="#A1B8E3"/></linearGradient><linearGradient id="paint2_linear_70_14491" x1="145.26" y1="230.553" x2="160.142" y2="255.296" gradientUnits="userSpaceOnUse"><stop stop-color="#CFDDF3"/><stop offset="1" stop-color="#A1B8E3"/></linearGradient><linearGradient id="paint3_linear_70_14491" x1="145.641" y1="211.153" x2="154.55" y2="225.964" gradientUnits="userSpaceOnUse"><stop stop-color="#CFDDF3"/><stop offset="1" stop-color="#A1B8E3"/></linearGradient><linearGradient id="paint4_linear_70_14491" x1="136.728" y1="181.571" x2="201.153" y2="288.676" gradientUnits="userSpaceOnUse"><stop stop-color="#CFDDF3"/><stop offset="1" stop-color="#A1B8E3"/></linearGradient><linearGradient id="paint5_linear_70_14491" x1="239.862" y1="192.73" x2="241.391" y2="280.232" gradientUnits="userSpaceOnUse"><stop stop-color="#CFDDF3"/><stop offset="1" stop-color="#A1B8E3"/></linearGradient><linearGradient id="paint6_linear_70_14491" x1="14.2369" y1="-32.7563" x2="-8.45952" y2="-27.454" gradientUnits="userSpaceOnUse"><stop stop-color="#CFDDF3"/><stop offset="1" stop-color="#A1B8E3"/></linearGradient><linearGradient id="paint7_linear_70_14491" x1="14.2482" y1="-32.7304" x2="-8.46249" y2="-27.4163" gradientUnits="userSpaceOnUse"><stop stop-color="#CFDDF3"/><stop offset="1" stop-color="#A1B8E3"/></linearGradient><linearGradient id="paint8_linear_70_14491" x1="281.95" y1="174.897" x2="259.24" y2="180.211" gradientUnits="userSpaceOnUse"><stop stop-color="#CFDDF3"/><stop offset="1" stop-color="#A1B8E3"/></linearGradient><linearGradient id="paint9_linear_70_14491" x1="275.643" y1="194.365" x2="252.932" y2="199.679" gradientUnits="userSpaceOnUse"><stop stop-color="#CFDDF3"/><stop offset="1" stop-color="#A1B8E3"/></linearGradient><linearGradient id="paint10_linear_70_14491" x1="14.2371" y1="-32.7557" x2="-8.45958" y2="-27.4532" gradientUnits="userSpaceOnUse"><stop stop-color="#CFDDF3"/><stop offset="1" stop-color="#A1B8E3"/></linearGradient><linearGradient id="paint11_linear_70_14491" x1="14.2397" y1="-32.7498" x2="-8.46026" y2="-27.4446" gradientUnits="userSpaceOnUse"><stop stop-color="#CFDDF3"/><stop offset="1" stop-color="#A1B8E3"/></linearGradient><linearGradient id="paint12_linear_70_14491" x1="14.2413" y1="-32.7461" x2="-8.46069" y2="-27.4392" gradientUnits="userSpaceOnUse"><stop stop-color="#CFDDF3"/><stop offset="1" stop-color="#A1B8E3"/></linearGradient><linearGradient id="paint13_linear_70_14491" x1="155.335" y1="18.2055" x2="86.0971" y2="106.605" gradientUnits="userSpaceOnUse"><stop stop-color="#D2E0F9" stop-opacity="0.01"/><stop offset="1" stop-color="#B1C6E7" stop-opacity="0.464589"/></linearGradient><linearGradient id="paint14_linear_70_14491" x1="149.002" y1="51.0305" x2="94.3911" y2="120.756" gradientUnits="userSpaceOnUse"><stop stop-color="#D2E0F9" stop-opacity="0.01"/><stop offset="1" stop-color="#B1C6E7" stop-opacity="0.464589"/></linearGradient><linearGradient id="paint15_linear_70_14491" x1="286.475" y1="51.4936" x2="217.237" y2="139.893" gradientUnits="userSpaceOnUse"><stop stop-color="#D2E0F9" stop-opacity="0.01"/><stop offset="1" stop-color="#B1C6E7" stop-opacity="0.464589"/></linearGradient><linearGradient id="paint16_linear_70_14491" x1="280.142" y1="84.3186" x2="225.531" y2="154.044" gradientUnits="userSpaceOnUse"><stop stop-color="#D2E0F9" stop-opacity="0.01"/><stop offset="1" stop-color="#B1C6E7" stop-opacity="0.464589"/></linearGradient><linearGradient id="paint17_linear_70_14491" x1="332.693" y1="239.175" x2="380.447" y2="224.961" gradientUnits="userSpaceOnUse"><stop stop-color="#7FA0D4"/><stop offset="1" stop-color="#D6E3FA"/></linearGradient><linearGradient id="paint18_linear_70_14491" x1="322.364" y1="162.201" x2="301.618" y2="178.486" gradientUnits="userSpaceOnUse"><stop stop-color="#5D6FAA"/><stop offset="1" stop-color="#90AADB"/></linearGradient><linearGradient id="paint19_linear_70_14491" x1="317.247" y1="164.685" x2="317.247" y2="201.558" gradientUnits="userSpaceOnUse"><stop stop-color="#CFDDF3"/><stop offset="1" stop-color="#A1B8E3" stop-opacity="0.01"/></linearGradient><radialGradient id="paint20_radial_70_14491" cx="0" cy="0" r="1" gradientUnits="userSpaceOnUse" gradientTransform="translate(302.176 156.494) rotate(23.4278) scale(19.3714 26.0499)"><stop stop-color="#E1EDFF"/><stop offset="1" stop-color="#A1B8E3"/></radialGradient><linearGradient id="paint21_linear_70_14491" x1="287.972" y1="119.919" x2="297.71" y2="153.498" gradientUnits="userSpaceOnUse"><stop stop-color="#2D6DC0"/><stop offset="1" stop-color="#143B8C"/></linearGradient><linearGradient id="paint22_linear_70_14491" x1="316.335" y1="149.672" x2="323.632" y2="183.894" gradientUnits="userSpaceOnUse"><stop stop-color="#174293" stop-opacity="0.01"/><stop offset="1" stop-color="#051E4B"/></linearGradient><linearGradient id="paint23_linear_70_14491" x1="277.779" y1="176.472" x2="292.508" y2="201.205" gradientUnits="userSpaceOnUse"><stop stop-color="#2D6DC0"/><stop offset="1" stop-color="#143B8C"/></linearGradient><linearGradient id="paint24_linear_70_14491" x1="285.236" y1="241.186" x2="279.795" y2="261.135" gradientUnits="userSpaceOnUse"><stop stop-color="#2E7DE7" stop-opacity="0.01"/><stop offset="1" stop-color="#00357E" stop-opacity="0.5"/></linearGradient><linearGradient id="paint25_linear_70_14491" x1="336.154" y1="206.053" x2="336.154" y2="184.605" gradientUnits="userSpaceOnUse"><stop stop-color="#70B8F9" stop-opacity="0.275872"/><stop offset="1" stop-color="#3D82F0"/></linearGradient><linearGradient id="paint26_linear_70_14491" x1="312.993" y1="261.11" x2="335.387" y2="272.628" gradientUnits="userSpaceOnUse"><stop stop-color="#3D82F0" stop-opacity="0.01"/><stop offset="1" stop-color="#3D82F0"/></linearGradient><linearGradient id="paint27_linear_70_14491" x1="259.966" y1="246.272" x2="286.613" y2="258.498" gradientUnits="userSpaceOnUse"><stop stop-color="#3D82F0" stop-opacity="0.01"/><stop offset="1" stop-color="#3D82F0"/></linearGradient><linearGradient id="paint28_linear_70_14491" x1="182.145" y1="88.751" x2="211.458" y2="101.916" gradientUnits="userSpaceOnUse"><stop stop-color="#00224E"/><stop offset="1" stop-color="#113275"/></linearGradient><radialGradient id="paint29_radial_70_14491" cx="0" cy="0" r="1" gradientUnits="userSpaceOnUse" gradientTransform="translate(228.016 80.7936) rotate(-74.4933) scale(30.7664 24.957)"><stop stop-color="#2D6DC0"/><stop offset="1" stop-color="#143B8C"/></radialGradient><linearGradient id="paint30_linear_70_14491" x1="223.891" y1="18.3388" x2="199.963" y2="51.9267" gradientUnits="userSpaceOnUse"><stop stop-color="#CFDDF3"/><stop offset="1" stop-color="#A1B8E3"/></linearGradient><linearGradient id="paint31_linear_70_14491" x1="266.368" y1="85.2453" x2="200.988" y2="116.817" gradientUnits="userSpaceOnUse"><stop stop-color="#EDF3FD"/><stop offset="1" stop-color="#D6E3FA"/></linearGradient><linearGradient id="paint32_linear_70_14491" x1="167.902" y1="258.576" x2="208.187" y2="247.967" gradientUnits="userSpaceOnUse"><stop stop-color="#EAF0F7" stop-opacity="0.115546"/><stop offset="1" stop-color="#D1DDED"/></linearGradient><linearGradient id="paint33_linear_70_14491" x1="218.337" y1="81.3376" x2="155.22" y2="90.2478" gradientUnits="userSpaceOnUse"><stop stop-color="#EAF0F7" stop-opacity="0.115546"/><stop offset="1" stop-color="#D1DDED"/></linearGradient><linearGradient id="paint34_linear_70_14491" x1="194.64" y1="99.2126" x2="201.639" y2="99.2126" gradientUnits="userSpaceOnUse"><stop stop-color="#B1C6E7"/><stop offset="1" stop-color="#E5EFFD"/></linearGradient><linearGradient id="paint35_linear_70_14491" x1="62.1878" y1="190.778" x2="24.5437" y2="183.163" gradientUnits="userSpaceOnUse"><stop stop-color="#7FA0D4"/><stop offset="1" stop-color="#D6E3FA"/></linearGradient><linearGradient id="paint36_linear_70_14491" x1="136.411" y1="260.975" x2="169.703" y2="242.254" gradientUnits="userSpaceOnUse"><stop stop-color="#002D65"/><stop offset="0.87783" stop-color="#3A74C6"/><stop offset="1" stop-color="#3062AA"/></linearGradient><radialGradient id="paint37_radial_70_14491" cx="0" cy="0" r="1" gradientUnits="userSpaceOnUse" gradientTransform="translate(122.282 213.38) rotate(-173.243) scale(42.2486 61.0932)"><stop stop-color="#2D6DC0"/><stop offset="1" stop-color="#143B8C"/></radialGradient><linearGradient id="paint38_linear_70_14491" x1="-89.38" y1="292.826" x2="-85.1934" y2="339.619" gradientUnits="userSpaceOnUse"><stop stop-color="#EAEFFF"/><stop offset="1" stop-color="#F7F9FE"/></linearGradient><linearGradient id="paint39_linear_70_14491" x1="144.028" y1="263.62" x2="142.63" y2="298.531" gradientUnits="userSpaceOnUse"><stop stop-color="#0041B2"/><stop offset="1" stop-color="#2D64D7" stop-opacity="0.01"/></linearGradient><linearGradient id="paint40_linear_70_14491" x1="70.7224" y1="149.983" x2="70.7224" y2="180.279" gradientUnits="userSpaceOnUse"><stop stop-color="#4376C9"/><stop offset="1" stop-color="#D6E3FA"/></linearGradient><linearGradient id="paint41_linear_70_14491" x1="74.7848" y1="177.988" x2="87.4857" y2="177.988" gradientUnits="userSpaceOnUse"><stop stop-color="#133B8B"/><stop offset="1" stop-color="#A9BFE7" stop-opacity="0.01"/><stop offset="1" stop-color="#A9BFE7" stop-opacity="0.01"/></linearGradient><linearGradient id="paint42_linear_70_14491" x1="69.9053" y1="156.652" x2="69.9053" y2="180.125" gradientUnits="userSpaceOnUse"><stop stop-color="#699DF3"/><stop offset="1" stop-color="#8597B5" stop-opacity="0.01"/></linearGradient><linearGradient id="paint43_linear_70_14491" x1="63.2137" y1="160.442" x2="90.8752" y2="163.574" gradientUnits="userSpaceOnUse"><stop stop-color="#7798F6"/><stop offset="1" stop-color="#E5EFFD"/></linearGradient><linearGradient id="paint44_linear_70_14491" x1="141.573" y1="288.371" x2="167.62" y2="245.914" gradientUnits="userSpaceOnUse"><stop stop-color="#FF7F31"/><stop offset="1" stop-color="#FFD25F"/></linearGradient><linearGradient id="paint45_linear_70_14491" x1="192.7" y1="225.302" x2="180.999" y2="226.882" gradientUnits="userSpaceOnUse"><stop stop-color="#FF7F31"/><stop offset="1" stop-color="#FFC83A" stop-opacity="0.01"/></linearGradient><linearGradient id="paint46_linear_70_14491" x1="135.713" y1="283.648" x2="152.026" y2="272.305" gradientUnits="userSpaceOnUse"><stop stop-color="#FF7F31"/><stop offset="1" stop-color="#FFC83A" stop-opacity="0.01"/></linearGradient><linearGradient id="paint47_linear_70_14491" x1="109.136" y1="251.876" x2="103.227" y2="269.012" gradientUnits="userSpaceOnUse"><stop stop-color="#ECF2FB"/><stop offset="1" stop-color="#D5E1F5"/></linearGradient><linearGradient id="paint48_linear_70_14491" x1="92.4866" y1="230.929" x2="71.2026" y2="247.139" gradientUnits="userSpaceOnUse"><stop stop-color="#3D82F0"/><stop offset="1" stop-color="#143B8C"/></linearGradient><linearGradient id="paint49_linear_70_14491" x1="122.292" y1="104.619" x2="33.8147" y2="106.122" gradientUnits="userSpaceOnUse"><stop stop-color="#70B8F9"/><stop offset="1" stop-color="#0457DC"/></linearGradient><linearGradient id="paint50_linear_70_14491" x1="74.8806" y1="169.887" x2="30.5426" y2="183.169" gradientUnits="userSpaceOnUse"><stop stop-color="#3D82F0" stop-opacity="0.01"/><stop offset="1" stop-color="#0049BD"/></linearGradient><linearGradient id="paint51_linear_70_14491" x1="116.281" y1="296.601" x2="116.281" y2="333.278" gradientUnits="userSpaceOnUse"><stop stop-color="#B2C7E8"/><stop offset="1" stop-color="#D6E3FA"/></linearGradient><linearGradient id="paint52_linear_70_14491" x1="145.797" y1="288.372" x2="145.797" y2="317.823" gradientUnits="userSpaceOnUse"><stop stop-color="#C6D6EE"/><stop offset="1" stop-color="#E5EFFD"/></linearGradient><linearGradient id="paint53_linear_70_14491" x1="249.206" y1="266.756" x2="280.193" y2="266.756" gradientUnits="userSpaceOnUse"><stop stop-color="#002B64"/><stop offset="1" stop-color="#0F3177"/></linearGradient><linearGradient id="paint54_linear_70_14491" x1="239.729" y1="198.962" x2="179.989" y2="237.854" gradientUnits="userSpaceOnUse"><stop stop-color="#DBE9FF"/><stop offset="0.440948" stop-color="#A7BDE4"/><stop offset="1" stop-color="#5876AF"/></linearGradient><linearGradient id="paint55_linear_70_14491" x1="240.406" y1="270.128" x2="236.208" y2="279.979" gradientUnits="userSpaceOnUse"><stop stop-color="#869FCE" stop-opacity="0.01"/><stop offset="1" stop-color="#4975C1"/></linearGradient><linearGradient id="paint56_linear_70_14491" x1="70.3488" y1="320.164" x2="24.3937" y2="320.164" gradientUnits="userSpaceOnUse"><stop stop-color="#D9E5F6" stop-opacity="0.712636"/><stop offset="1" stop-color="#B2C6EA"/></linearGradient><linearGradient id="paint57_linear_70_14491" x1="71.2693" y1="342.954" x2="78.8066" y2="314.19" gradientUnits="userSpaceOnUse"><stop stop-color="#ACC5E9"/><stop offset="0.627469" stop-color="#D3E3FB"/><stop offset="1" stop-color="#EAF2FF"/></linearGradient><linearGradient id="paint58_linear_70_14491" x1="30.0003" y1="289.435" x2="28.804" y2="308.593" gradientUnits="userSpaceOnUse"><stop stop-color="#86A8D9"/><stop offset="1" stop-color="#BCD0F2"/></linearGradient><linearGradient id="paint59_linear_70_14491" x1="22.5055" y1="243.729" x2="62.7065" y2="285.777" gradientUnits="userSpaceOnUse"><stop stop-color="#B1FFBE"/><stop offset="0.444207" stop-color="#5CDB8E"/><stop offset="1" stop-color="#149654"/></linearGradient><linearGradient id="paint60_linear_70_14491" x1="21.9213" y1="256.515" x2="27.7073" y2="301.18" gradientUnits="userSpaceOnUse"><stop stop-color="#B1FFBE"/><stop offset="0.444207" stop-color="#5CDB8E"/><stop offset="1" stop-color="#149654"/></linearGradient><linearGradient id="paint61_linear_70_14491" x1="47.5156" y1="267.709" x2="74.0002" y2="309.231" gradientUnits="userSpaceOnUse"><stop stop-color="#B1FFBE"/><stop offset="0.444207" stop-color="#5CDB8E"/><stop offset="1" stop-color="#149654"/></linearGradient></defs></svg>
