<svg width="654" height="584" viewBox="0 0 654 584" fill="none" xmlns="http://www.w3.org/2000/svg">
<g clip-path="url(#clip0_1_17653)">
<g opacity="0.45">
<path d="M351.17 82.8306H344.186C342.408 76.9111 340.038 71.2453 337.159 65.8755L342.069 60.9708C347.996 55.0513 347.996 45.4532 342.069 39.5337L326.788 24.2276C320.862 18.3081 311.253 18.3081 305.327 24.2276L300.374 29.1746C295.041 26.2995 289.326 23.9317 283.4 22.1558V15.1793C283.4 6.80742 276.585 0 268.203 0H246.573C238.191 0 231.376 6.80742 231.376 15.1793V22.1558C225.45 23.9317 219.778 26.2995 214.402 29.1746L209.492 24.2699C203.565 18.3504 193.956 18.3504 188.03 24.2699L172.707 39.4915C166.781 45.411 166.781 55.009 172.707 60.9285L177.617 65.8332C174.739 71.1607 172.368 76.8688 170.59 82.7883H163.606C155.224 82.7883 148.409 89.5957 148.409 97.9676V119.574C148.409 127.946 155.224 134.753 163.606 134.753H170.59C172.368 140.672 174.739 146.338 177.617 151.708L172.707 156.655C166.781 162.575 166.781 172.173 172.707 178.092L187.988 193.356C193.914 199.275 203.523 199.275 209.449 193.356L214.36 188.451C219.693 191.326 225.408 193.694 231.334 195.47V202.447C231.334 210.818 238.149 217.626 246.53 217.626H268.161C276.542 217.626 283.358 210.818 283.358 202.447V195.47C289.284 193.694 294.956 191.326 300.332 188.451L305.242 193.356C311.169 199.275 320.777 199.275 326.704 193.356L341.985 178.092C347.911 172.173 347.911 162.575 341.985 156.655L337.075 151.75C339.953 146.423 342.323 140.715 344.101 134.795H351.086C359.467 134.795 366.282 127.988 366.282 119.616V98.0099C366.367 89.638 359.552 82.8306 351.17 82.8306ZM257.409 158.135C230.149 158.135 208.052 136.064 208.052 108.834C208.052 81.6044 230.149 59.5332 257.409 59.5332C284.67 59.5332 306.766 81.6044 306.766 108.834C306.766 136.064 284.67 158.135 257.409 158.135Z" fill="white" fill-opacity="0.2"/>
<path d="M174.231 357.875H170.506C169.574 354.746 168.304 351.702 166.781 348.869L169.405 346.247C172.537 343.119 172.537 338.002 169.405 334.831L161.278 326.755C158.145 323.627 153.023 323.627 149.849 326.755L147.224 329.377C144.388 327.855 141.383 326.586 138.208 325.656V321.935C138.208 317.496 134.61 313.859 130.123 313.859H118.651C114.207 313.859 110.566 317.453 110.566 321.935V325.656C107.434 326.586 104.386 327.855 101.55 329.377L98.9254 326.755C95.793 323.627 90.6711 323.627 87.4963 326.755L79.4536 334.874C76.3212 338.002 76.3212 343.119 79.4536 346.29L82.0781 348.911C80.5542 351.744 79.2843 354.788 78.353 357.917H74.628C70.1833 357.917 66.5429 361.511 66.5429 365.993V377.452C66.5429 381.891 70.141 385.527 74.628 385.527H78.353C79.2843 388.656 80.5542 391.701 82.0781 394.534L79.4536 397.155C76.3212 400.284 76.3212 405.4 79.4536 408.571L87.581 416.689C90.7134 419.818 95.8353 419.818 99.0101 416.689L101.635 414.068C104.471 415.59 107.476 416.858 110.651 417.789V421.51C110.651 425.949 114.249 429.585 118.736 429.585H130.207C134.652 429.585 138.292 425.991 138.292 421.51V417.746C141.425 416.816 144.473 415.548 147.309 414.026L149.933 416.647C153.066 419.776 158.188 419.776 161.362 416.647L169.49 408.529C172.622 405.4 172.622 400.284 169.49 397.113L166.865 394.491C168.389 391.658 169.659 388.656 170.59 385.485H174.315C178.76 385.485 182.4 381.891 182.4 377.409V365.951C182.316 361.511 178.675 357.875 174.231 357.875ZM124.45 397.874C109.974 397.874 98.2482 386.162 98.2482 371.701C98.2482 357.241 109.974 345.529 124.45 345.529C138.927 345.529 150.653 357.241 150.653 371.701C150.653 386.162 138.927 397.874 124.45 397.874Z" fill="white" fill-opacity="0.2"/>
<path d="M525.401 195.005H522.692C522.015 192.722 521.084 190.523 519.983 188.452L521.888 186.549C524.174 184.266 524.174 180.545 521.888 178.262L516.004 172.384C513.718 170.101 509.993 170.101 507.707 172.384L505.803 174.287C503.728 173.188 501.527 172.258 499.241 171.581V168.875C499.241 165.662 496.617 163.04 493.4 163.04H485.061C481.844 163.04 479.219 165.662 479.219 168.875V171.581C476.933 172.258 474.732 173.188 472.658 174.287L470.753 172.384C468.467 170.101 464.742 170.101 462.457 172.384L456.573 178.262C454.287 180.545 454.287 184.266 456.573 186.549L458.478 188.452C457.377 190.523 456.446 192.722 455.768 195.005H453.059C449.842 195.005 447.218 197.627 447.218 200.84V209.17C447.218 212.383 449.842 215.005 453.059 215.005H455.768C456.446 217.288 457.377 219.487 458.478 221.558L456.573 223.461C454.287 225.744 454.287 229.465 456.573 231.748L462.457 237.626C464.742 239.909 468.467 239.909 470.753 237.626L472.658 235.723C474.732 236.822 476.933 237.752 479.219 238.429V241.135C479.219 244.348 481.844 246.97 485.061 246.97H493.4C496.617 246.97 499.241 244.348 499.241 241.135V238.429C501.527 237.752 503.728 236.822 505.803 235.723L507.707 237.626C509.993 239.909 513.718 239.909 516.004 237.626L521.888 231.748C524.174 229.465 524.174 225.744 521.888 223.461L519.983 221.558C521.084 219.487 522.015 217.288 522.692 215.005H525.401C528.619 215.005 531.243 212.383 531.243 209.17V200.84C531.243 197.627 528.619 195.005 525.401 195.005ZM489.209 224.053C478.669 224.053 470.161 215.554 470.161 205.026C470.161 194.498 478.669 185.999 489.209 185.999C499.749 185.999 508.258 194.498 508.258 205.026C508.258 215.554 499.749 224.053 489.209 224.053Z" fill="white" fill-opacity="0.2"/>
<path d="M376.95 384.386H373.267C372.336 381.258 371.066 378.213 369.542 375.38L372.166 372.759C375.299 369.63 375.299 364.514 372.166 361.385L364.039 353.267C360.906 350.138 355.784 350.138 352.652 353.267L350.028 355.888C347.191 354.366 344.186 353.098 341.011 352.167V348.489C341.011 344.049 337.413 340.455 332.969 340.455H321.497C317.052 340.455 313.454 344.049 313.454 348.489V352.167C310.322 353.098 307.274 354.366 304.438 355.888L301.814 353.267C298.681 350.138 293.559 350.138 290.427 353.267L282.299 361.385C279.167 364.514 279.167 369.63 282.299 372.759L284.924 375.38C283.4 378.213 282.13 381.215 281.199 384.386H277.516C273.071 384.386 269.473 387.98 269.473 392.42V403.878C269.473 408.318 273.071 411.912 277.516 411.912H281.199C282.13 415.041 283.4 418.085 284.924 420.918L282.299 423.54C279.167 426.668 279.167 431.785 282.299 434.913L290.427 443.032C293.559 446.161 298.681 446.161 301.814 443.032L304.438 440.41C307.274 441.932 310.28 443.201 313.454 444.131V447.809C313.454 452.249 317.052 455.843 321.497 455.843H332.969C337.413 455.843 341.011 452.249 341.011 447.809V444.131C344.144 443.201 347.191 441.932 350.028 440.41L352.652 443.032C355.784 446.161 360.906 446.161 364.039 443.032L372.166 434.913C375.299 431.785 375.299 426.668 372.166 423.54L369.542 420.918C371.066 418.085 372.336 415.083 373.267 411.912H376.95C381.394 411.912 384.992 408.318 384.992 403.878V392.42C384.992 387.98 381.394 384.386 376.95 384.386ZM327.169 424.343C312.692 424.343 300.967 412.631 300.967 398.17C300.967 383.71 312.692 371.998 327.169 371.998C341.646 371.998 353.372 383.71 353.372 398.17C353.372 412.631 341.646 424.343 327.169 424.343Z" fill="white" fill-opacity="0.2"/>
<path d="M573.869 374.661H568.747C567.435 370.348 565.742 366.162 563.625 362.273L567.223 358.679C571.541 354.366 571.541 347.305 567.223 342.992L556.048 331.829C551.73 327.517 544.661 327.517 540.343 331.829L536.745 335.423C532.851 333.309 528.66 331.576 524.343 330.307V325.191C524.343 319.06 519.39 314.113 513.252 314.113H497.421C491.283 314.113 486.33 319.06 486.33 325.191V330.307C482.013 331.618 477.822 333.309 473.928 335.423L470.329 331.829C466.012 327.517 458.943 327.517 454.625 331.829L443.45 342.992C439.132 347.305 439.132 354.366 443.45 358.679L447.048 362.273C444.931 366.162 443.196 370.348 441.926 374.661H436.846C430.708 374.661 425.756 379.608 425.756 385.739V401.553C425.756 407.683 430.708 412.631 436.846 412.631H441.968C443.281 416.943 444.974 421.129 447.09 425.019L443.492 428.613C439.174 432.926 439.174 439.987 443.492 444.3L454.667 455.462C458.985 459.775 466.054 459.775 470.372 455.462L473.97 451.868C477.864 453.982 482.055 455.716 486.373 456.984V462.101C486.373 468.231 491.325 473.178 497.463 473.178H513.294C519.432 473.178 524.385 468.231 524.385 462.101V456.984C528.745 455.674 532.893 453.982 536.788 451.868L540.386 455.462C544.703 459.775 551.773 459.775 556.09 455.462L567.265 444.3C571.583 439.987 571.583 432.926 567.265 428.613L563.667 425.019C565.784 421.129 567.519 416.943 568.789 412.631H573.911C580.049 412.631 585.002 407.683 585.002 401.553V385.739C585.002 379.608 580.007 374.661 573.869 374.661ZM505.336 429.67C485.399 429.67 469.229 413.518 469.229 393.604C469.229 373.689 485.399 357.537 505.336 357.537C525.274 357.537 541.444 373.689 541.444 393.604C541.444 413.518 525.274 429.67 505.336 429.67Z" fill="white" fill-opacity="0.2"/>
</g>
<path opacity="0.2" d="M296.692 584C426.254 584 531.285 571.979 531.285 557.151C531.285 542.323 426.254 530.302 296.692 530.302C167.13 530.302 62.0986 542.323 62.0986 557.151C62.0986 571.979 167.13 584 296.692 584Z" fill="#FF8C44"/>
<path d="M594.526 422.398L603.839 460.072L623.734 454.786L594.526 422.398Z" fill="#FD5D07"/>
<path d="M619.713 455.844L624.792 462.482L629.279 453.983L594.526 422.398L619.713 455.844Z" fill="#FF8C44"/>
<path d="M629.279 453.983L644.942 448.571L594.526 422.398L629.279 453.983Z" fill="#FD5D07"/>
<path d="M42.9655 379.186L39.8331 415.506L20.6152 413.519L42.9655 379.186Z" fill="#FD5D07"/>
<path d="M24.4672 413.899L20.7421 420.791L15.3662 413.561L42.9654 379.186L24.4672 413.899Z" fill="#FF8C44"/>
<path d="M15.3658 413.561L0 410.813L42.965 379.186L15.3658 413.561Z" fill="#FD5D07"/>
<path d="M553.297 168.282L563.668 210.184L585.806 204.349L553.297 168.282Z" fill="#FD5D07"/>
<path d="M581.362 205.49L586.992 212.89L591.944 203.419L553.297 168.282L581.362 205.49Z" fill="#FF8C44"/>
<path d="M591.944 203.419L609.384 197.415L553.297 168.282L591.944 203.419Z" fill="#FD5D07"/>
<path d="M242.975 105.452C241.62 50.4852 338.768 -6.00363 391.342 13.3616C459.874 38.6462 404.93 124.225 369.923 79.533C340.757 42.2825 460.552 7.10383 551.561 163.463" stroke="#FF8C44" stroke-width="1.7364" stroke-miterlimit="10" stroke-linecap="round" stroke-linejoin="round" stroke-dasharray="6.08 6.08"/>
<path d="M589.997 416.351C529.55 361.089 655.609 261.557 653.619 340.92C652.265 395.041 522.438 343.119 551.604 296.693C570.314 266.884 617.977 256.187 594.823 216.695" stroke="#FF8C44" stroke-width="1.7364" stroke-miterlimit="10" stroke-linecap="round" stroke-linejoin="round" stroke-dasharray="6.08 6.08"/>
<path d="M44.8697 372.674C42.9649 311.619 111.836 270.478 131.646 300.879C159.161 343.076 -4.5295 346.332 5.54506 279.4C9.35477 254.073 38.2239 233.777 38.2239 233.777" stroke="#FF8C44" stroke-width="1.7364" stroke-miterlimit="10" stroke-linecap="round" stroke-linejoin="round" stroke-dasharray="6.08 6.08"/>
<path d="M96.5121 158.642C95.6655 154.921 95.1999 151.073 95.1999 147.099C95.1999 118.432 118.439 95.2188 147.139 95.2188C171.436 95.2188 191.84 111.878 197.512 134.414C206.57 124.14 219.82 117.628 234.635 117.628C261.938 117.628 284.077 139.742 284.077 167.014C284.077 167.183 284.077 167.31 284.077 167.479C286.278 167.183 288.479 167.014 290.765 167.014C318.068 167.014 340.207 189.127 340.207 216.399C340.207 243.671 318.068 269.209 290.765 269.209H100.195C68.6166 269.209 43.0069 241.768 43.0069 212.129C42.9646 183.715 66.6271 160.418 96.5121 158.642Z" fill="#EC5800"/>
<path d="M104.09 167.183C103.328 163.758 102.904 160.207 102.904 156.57C102.904 130.186 124.323 108.834 150.695 108.834C173.045 108.834 191.84 124.182 197.047 144.901C205.386 135.429 217.577 129.468 231.207 129.468C256.351 129.468 276.712 149.805 276.712 174.921C276.712 175.048 276.712 175.217 276.712 175.344C278.744 175.09 280.775 174.921 282.892 174.921C308.036 174.921 328.397 195.259 328.397 220.374C328.397 245.49 308.036 265.827 282.892 265.827H107.476C78.3952 265.827 54.8174 243.714 54.8174 216.442C54.8174 190.227 76.575 168.79 104.09 167.183Z" fill="#FFFAF8"/>
<path opacity="0.08" d="M118.355 183.292C117.72 180.417 117.339 177.457 117.339 174.413C117.339 152.341 135.244 134.456 157.341 134.456C176.05 134.456 191.755 147.31 196.115 164.645C203.099 156.739 213.301 151.707 224.688 151.707C245.726 151.707 262.785 168.747 262.785 189.761C262.785 189.888 262.785 190.015 262.785 190.099C264.478 189.888 266.171 189.761 267.949 189.761C288.987 189.761 306.046 206.801 306.046 227.815C306.046 248.829 288.987 265.869 267.949 265.869H121.191C96.8508 265.869 77.125 247.349 77.125 224.517C77.125 202.572 95.3693 184.645 118.355 183.292Z" fill="#FF6200"/>
<path d="M203.607 266.334V207.562H218.635L190.273 168.62L162.505 206.97H177.532V266.334H203.607Z" fill="url(#paint0_linear_1_17653)"/>
<path d="M199.628 265.869V205.702H207.078L190.315 183.25L174.061 205.194H181.511V265.869H199.628Z" fill="url(#paint1_linear_1_17653)"/>
<path d="M340.673 348.658H208.984C197.554 348.658 188.284 339.356 188.284 327.982V317.538H192.983V327.982C192.983 336.819 200.179 343.964 208.984 343.964H340.673V348.658Z" fill="#FF8C44"/>
<path d="M190.655 320.625C187.692 320.625 185.321 318.257 185.321 315.298V287.688H195.988V315.298C195.946 318.257 193.576 320.625 190.655 320.625Z" fill="#FF8C44"/>
<path d="M190.655 302.19C184.686 302.19 179.86 297.37 179.86 291.408V269.21H201.406V291.408C201.406 297.37 196.581 302.19 190.655 302.19Z" fill="url(#paint2_linear_1_17653)"/>
<path d="M476.256 559.604H343.17C334.45 559.604 327.381 552.542 327.381 543.832V312.423C327.381 303.712 334.45 296.651 343.17 296.651H476.256C484.976 296.651 492.045 303.712 492.045 312.423V543.832C492.045 552.542 484.976 559.604 476.256 559.604Z" fill="#FD5D07"/>
<path d="M458.096 555.418H344.059C336.059 555.418 329.582 548.949 329.582 540.958V315.34C329.582 307.349 336.059 300.88 344.059 300.88H458.096C466.097 300.88 472.573 307.349 472.573 315.34V540.958C472.573 548.949 466.097 555.418 458.096 555.418Z" fill="#FF8C44"/>
<path opacity="0.7" d="M447.599 550.767H353.33C346.134 550.767 340.292 544.932 340.292 537.744V318.511C340.292 311.323 346.134 305.488 353.33 305.488H447.599C454.795 305.488 460.636 311.323 460.636 318.511V537.744C460.594 544.932 454.795 550.767 447.599 550.767Z" fill="white"/>
<path d="M441.757 330.139H359.128C354.641 330.139 351.001 326.503 351.001 322.021C351.001 317.539 354.641 313.903 359.128 313.903H441.757C446.244 313.903 449.884 317.539 449.884 322.021C449.884 326.503 446.244 330.139 441.757 330.139Z" fill="white"/>
<path d="M356.292 322.021H406.58" stroke="#FF8C44" stroke-width="10.4003" stroke-miterlimit="10" stroke-linecap="round" stroke-linejoin="round"/>
<path d="M422.285 322.02C422.285 323.416 421.142 324.515 419.788 324.515C418.391 324.515 417.29 323.373 417.29 322.02C417.29 320.625 418.433 319.526 419.788 319.526C421.142 319.484 422.285 320.625 422.285 322.02Z" fill="#FF8C44"/>
<path d="M433.46 322.02C433.46 323.416 432.317 324.515 430.962 324.515C429.566 324.515 428.465 323.373 428.465 322.02C428.465 320.625 429.608 319.526 430.962 319.526C432.317 319.484 433.46 320.625 433.46 322.02Z" fill="#FF8C44"/>
<path d="M444.636 322.02C444.636 323.416 443.493 324.515 442.138 324.515C440.741 324.515 439.641 323.373 439.641 322.02C439.641 320.625 440.784 319.526 442.138 319.526C443.493 319.484 444.636 320.625 444.636 322.02Z" fill="#FF8C44"/>
<path d="M441.757 353.69H359.128C354.641 353.69 351.001 350.053 351.001 345.572C351.001 341.09 354.641 337.453 359.128 337.453H441.757C446.244 337.453 449.884 341.09 449.884 345.572C449.884 350.096 446.244 353.69 441.757 353.69Z" fill="white"/>
<path d="M356.292 345.614H406.58" stroke="#FF8C44" stroke-width="10.4003" stroke-miterlimit="10" stroke-linecap="round" stroke-linejoin="round"/>
<path d="M422.285 345.614C422.285 347.01 421.142 348.109 419.788 348.109C418.391 348.109 417.29 346.967 417.29 345.614C417.29 344.219 418.433 343.12 419.788 343.12C421.142 343.077 422.285 344.219 422.285 345.614Z" fill="#FF8C44"/>
<path d="M433.46 345.614C433.46 347.01 432.317 348.109 430.962 348.109C429.566 348.109 428.465 346.967 428.465 345.614C428.465 344.219 429.608 343.12 430.962 343.12C432.317 343.077 433.46 344.219 433.46 345.614Z" fill="#FF8C44"/>
<path d="M444.636 345.614C444.636 347.01 443.493 348.109 442.138 348.109C440.741 348.109 439.641 346.967 439.641 345.614C439.641 344.219 440.784 343.12 442.138 343.12C443.493 343.077 444.636 344.219 444.636 345.614Z" fill="#FF8C44"/>
<path d="M441.757 377.283H359.128C354.641 377.283 351.001 373.647 351.001 369.165C351.001 364.683 354.641 361.047 359.128 361.047H441.757C446.244 361.047 449.884 364.683 449.884 369.165C449.884 373.647 446.244 377.283 441.757 377.283Z" fill="white"/>
<path d="M356.292 369.165H406.58" stroke="#FF8C44" stroke-width="10.4003" stroke-miterlimit="10" stroke-linecap="round" stroke-linejoin="round"/>
<path d="M422.285 369.165C422.285 370.56 421.142 371.659 419.788 371.659C418.391 371.659 417.29 370.518 417.29 369.165C417.29 367.769 418.433 366.67 419.788 366.67C421.142 366.67 422.285 367.812 422.285 369.165Z" fill="#FF8C44"/>
<path d="M433.46 369.165C433.46 370.56 432.317 371.659 430.962 371.659C429.566 371.659 428.465 370.518 428.465 369.165C428.465 367.769 429.608 366.67 430.962 366.67C432.317 366.67 433.46 367.812 433.46 369.165Z" fill="#FF8C44"/>
<path d="M444.636 369.165C444.636 370.56 443.493 371.659 442.138 371.659C440.741 371.659 439.641 370.518 439.641 369.165C439.641 367.769 440.784 366.67 442.138 366.67C443.493 366.67 444.636 367.812 444.636 369.165Z" fill="#FF8C44"/>
<path d="M441.757 400.877H359.128C354.641 400.877 351.001 397.241 351.001 392.759C351.001 388.277 354.641 384.641 359.128 384.641H441.757C446.244 384.641 449.884 388.277 449.884 392.759C449.884 397.241 446.244 400.877 441.757 400.877Z" fill="white"/>
<path d="M356.292 392.759H406.58" stroke="#FF8C44" stroke-width="10.4003" stroke-miterlimit="10" stroke-linecap="round" stroke-linejoin="round"/>
<path d="M419.746 395.253C421.125 395.253 422.243 394.136 422.243 392.759C422.243 391.381 421.125 390.264 419.746 390.264C418.366 390.264 417.248 391.381 417.248 392.759C417.248 394.136 418.366 395.253 419.746 395.253Z" fill="#FF8C44"/>
<path d="M433.461 392.759C433.461 394.154 432.318 395.253 430.963 395.253C429.567 395.253 428.466 394.112 428.466 392.759C428.466 391.363 429.609 390.264 430.963 390.264C432.318 390.264 433.461 391.363 433.461 392.759Z" fill="#FF8C44"/>
<path d="M444.636 392.759C444.636 394.154 443.493 395.253 442.138 395.253C440.741 395.253 439.641 394.112 439.641 392.759C439.641 391.363 440.784 390.264 442.138 390.264C443.493 390.264 444.636 391.363 444.636 392.759Z" fill="#FF8C44"/>
<path d="M441.757 424.47H359.128C354.641 424.47 351.001 420.834 351.001 416.352C351.001 411.87 354.641 408.234 359.128 408.234H441.757C446.244 408.234 449.884 411.87 449.884 416.352C449.884 420.834 446.244 424.47 441.757 424.47Z" fill="white"/>
<path d="M356.292 416.352H406.58" stroke="#FF8C44" stroke-width="10.4003" stroke-miterlimit="10" stroke-linecap="round" stroke-linejoin="round"/>
<path d="M422.285 416.352C422.285 417.747 421.142 418.846 419.788 418.846C418.391 418.846 417.29 417.705 417.29 416.352C417.29 414.956 418.433 413.857 419.788 413.857C421.142 413.815 422.285 414.956 422.285 416.352Z" fill="#FF8C44"/>
<path d="M433.46 416.352C433.46 417.747 432.317 418.846 430.962 418.846C429.566 418.846 428.465 417.705 428.465 416.352C428.465 414.956 429.608 413.857 430.962 413.857C432.317 413.815 433.46 414.956 433.46 416.352Z" fill="#FF8C44"/>
<path d="M444.636 416.352C444.636 417.747 443.493 418.846 442.138 418.846C440.741 418.846 439.641 417.705 439.641 416.352C439.641 414.956 440.784 413.857 442.138 413.857C443.493 413.815 444.636 414.956 444.636 416.352Z" fill="#FF8C44"/>
<path d="M359.128 526.159H441.757C446.244 526.159 449.884 529.795 449.884 534.277C449.884 538.759 446.244 542.395 441.757 542.395H359.128C354.641 542.395 351.001 538.759 351.001 534.277C351.001 529.795 354.641 526.159 359.128 526.159Z" fill="white"/>
<path d="M444.635 534.277H394.305" stroke="#FF8C44" stroke-width="10.4003" stroke-miterlimit="10" stroke-linecap="round" stroke-linejoin="round"/>
<path d="M378.643 534.276C378.643 532.881 379.786 531.782 381.14 531.782C382.537 531.782 383.638 532.923 383.638 534.276C383.638 535.629 382.495 536.771 381.14 536.771C379.786 536.771 378.643 535.629 378.643 534.276Z" fill="#FF8C44"/>
<path d="M367.467 534.276C367.467 532.881 368.61 531.782 369.964 531.782C371.361 531.782 372.462 532.923 372.462 534.276C372.462 535.629 371.319 536.771 369.964 536.771C368.568 536.771 367.467 535.629 367.467 534.276Z" fill="#FF8C44"/>
<path d="M358.79 536.771C360.169 536.771 361.287 535.654 361.287 534.276C361.287 532.899 360.169 531.782 358.79 531.782C357.41 531.782 356.292 532.899 356.292 534.276C356.292 535.654 357.41 536.771 358.79 536.771Z" fill="#FF8C44"/>
<path d="M359.128 502.565H441.757C446.244 502.565 449.884 506.201 449.884 510.683C449.884 515.165 446.244 518.801 441.757 518.801H359.128C354.641 518.801 351.001 515.165 351.001 510.683C351.001 506.201 354.641 502.565 359.128 502.565Z" fill="white"/>
<path d="M444.635 510.683H394.305" stroke="#FF8C44" stroke-width="10.4003" stroke-miterlimit="10" stroke-linecap="round" stroke-linejoin="round"/>
<path d="M378.643 510.683C378.643 509.288 379.786 508.189 381.14 508.189C382.537 508.189 383.638 509.33 383.638 510.683C383.638 512.036 382.495 513.178 381.14 513.178C379.786 513.178 378.643 512.079 378.643 510.683Z" fill="#FF8C44"/>
<path d="M367.467 510.683C367.467 509.288 368.61 508.189 369.964 508.189C371.361 508.189 372.462 509.33 372.462 510.683C372.462 512.079 371.319 513.178 369.964 513.178C368.568 513.178 367.467 512.079 367.467 510.683Z" fill="#FF8C44"/>
<path d="M356.292 510.683C356.292 509.288 357.435 508.189 358.79 508.189C360.186 508.189 361.287 509.33 361.287 510.683C361.287 512.079 360.144 513.178 358.79 513.178C357.393 513.178 356.292 512.079 356.292 510.683Z" fill="#FF8C44"/>
<path d="M359.128 478.972H441.757C446.244 478.972 449.884 482.608 449.884 487.09C449.884 491.572 446.244 495.208 441.757 495.208H359.128C354.641 495.208 351.001 491.572 351.001 487.09C351.001 482.608 354.641 478.972 359.128 478.972Z" fill="white"/>
<path d="M444.635 487.09H394.305" stroke="#FF8C44" stroke-width="10.4003" stroke-miterlimit="10" stroke-linecap="round" stroke-linejoin="round"/>
<path d="M378.643 487.09C378.643 485.694 379.786 484.595 381.14 484.595C382.537 484.595 383.638 485.737 383.638 487.09C383.638 488.443 382.495 489.584 381.14 489.584C379.786 489.627 378.643 488.485 378.643 487.09Z" fill="#FF8C44"/>
<path d="M367.467 487.09C367.467 485.694 368.61 484.595 369.964 484.595C371.361 484.595 372.462 485.737 372.462 487.09C372.462 488.485 371.319 489.584 369.964 489.584C368.568 489.627 367.467 488.485 367.467 487.09Z" fill="#FF8C44"/>
<path d="M356.292 487.09C356.292 485.694 357.435 484.595 358.79 484.595C360.186 484.595 361.287 485.737 361.287 487.09C361.287 488.485 360.144 489.584 358.79 489.584C357.393 489.627 356.292 488.485 356.292 487.09Z" fill="#FF8C44"/>
<path d="M359.128 455.421H441.757C446.244 455.421 449.884 459.057 449.884 463.539C449.884 468.021 446.244 471.657 441.757 471.657H359.128C354.641 471.657 351.001 468.021 351.001 463.539C351.001 459.015 354.641 455.421 359.128 455.421Z" fill="white"/>
<path d="M444.635 463.497H394.305" stroke="#FF8C44" stroke-width="10.4003" stroke-miterlimit="10" stroke-linecap="round" stroke-linejoin="round"/>
<path d="M378.643 463.497C378.643 462.101 379.786 461.002 381.14 461.002C382.537 461.002 383.638 462.144 383.638 463.497C383.638 464.892 382.495 465.991 381.14 465.991C379.786 466.034 378.643 464.892 378.643 463.497Z" fill="#FF8C44"/>
<path d="M367.467 463.497C367.467 462.101 368.61 461.002 369.964 461.002C371.361 461.002 372.462 462.144 372.462 463.497C372.462 464.892 371.319 465.991 369.964 465.991C368.568 466.034 367.467 464.892 367.467 463.497Z" fill="#FF8C44"/>
<path d="M358.79 465.991C360.169 465.991 361.287 464.875 361.287 463.497C361.287 462.119 360.169 461.002 358.79 461.002C357.41 461.002 356.292 462.119 356.292 463.497C356.292 464.875 357.41 465.991 358.79 465.991Z" fill="#FF8C44"/>
<path d="M359.128 431.827H441.757C446.244 431.827 449.884 435.464 449.884 439.946C449.884 444.427 446.244 448.064 441.757 448.064H359.128C354.641 448.064 351.001 444.427 351.001 439.946C351.001 435.464 354.641 431.827 359.128 431.827Z" fill="white"/>
<path d="M444.635 439.946H394.305" stroke="#FF8C44" stroke-width="10.4003" stroke-miterlimit="10" stroke-linecap="round" stroke-linejoin="round"/>
<path d="M378.643 439.945C378.643 438.55 379.786 437.45 381.14 437.45C382.537 437.45 383.638 438.592 383.638 439.945C383.638 441.34 382.495 442.44 381.14 442.44C379.786 442.44 378.643 441.298 378.643 439.945Z" fill="#FF8C44"/>
<path d="M367.467 439.945C367.467 438.55 368.61 437.45 369.964 437.45C371.361 437.45 372.462 438.592 372.462 439.945C372.462 441.34 371.319 442.44 369.964 442.44C368.568 442.44 367.467 441.298 367.467 439.945Z" fill="#FF8C44"/>
<path d="M356.292 439.945C356.292 438.55 357.435 437.45 358.79 437.45C360.186 437.45 361.287 438.592 361.287 439.945C361.287 441.298 360.144 442.44 358.79 442.44C357.393 442.44 356.292 441.298 356.292 439.945Z" fill="#FF8C44"/>
<path d="M299.613 559.603H94.7774C86.0574 559.603 78.9883 552.542 78.9883 543.832V403.413C78.9883 394.703 86.0574 387.642 94.7774 387.642H299.613C308.333 387.642 315.402 394.703 315.402 403.413V543.832C315.36 552.542 308.29 559.603 299.613 559.603Z" fill="#FD5D07"/>
<path d="M281.411 555.416H95.6663C87.666 555.416 81.1895 548.947 81.1895 540.956V406.288C81.1895 398.296 87.666 391.827 95.6663 391.827H281.453C289.454 391.827 295.93 398.296 295.93 406.288V540.956C295.888 548.947 289.411 555.416 281.411 555.416Z" fill="#FF8C44"/>
<path opacity="0.7" d="M270.913 550.766H104.894C97.6982 550.766 91.8566 544.931 91.8566 537.743V409.501C91.8566 402.313 97.6982 396.479 104.894 396.479H270.913C278.109 396.479 283.951 402.313 283.951 409.501V537.743C283.951 544.931 278.109 550.766 270.913 550.766Z" fill="white"/>
<path opacity="0.8" d="M263.336 446.456H112.514C108.239 446.456 104.768 442.989 104.768 438.718V414.786C104.768 410.516 108.239 407.049 112.514 407.049H263.336C267.611 407.049 271.083 410.516 271.083 414.786V438.76C271.04 443.031 267.611 446.456 263.336 446.456Z" fill="#FF8C44"/>
<path d="M119.329 416.224H113.318V418.972H119.329V416.224Z" fill="#FD5D07"/>
<path d="M128.473 416.224H122.462V418.972H128.473V416.224Z" fill="#FD5D07"/>
<path d="M137.658 416.224H131.647V418.972H137.658V416.224Z" fill="#FD5D07"/>
<path d="M146.844 416.224H140.833V418.972H146.844V416.224Z" fill="#FD5D07"/>
<path d="M155.987 416.224H149.977V418.972H155.987V416.224Z" fill="#FD5D07"/>
<path d="M165.173 416.224H159.162V418.972H165.173V416.224Z" fill="#FD5D07"/>
<path d="M119.329 420.79H113.318V423.538H119.329V420.79Z" fill="#FD5D07"/>
<path d="M128.473 420.79H122.462V423.538H128.473V420.79Z" fill="#FD5D07"/>
<path d="M137.658 420.79H131.647V423.538H137.658V420.79Z" fill="#FD5D07"/>
<path d="M146.844 420.79H140.833V423.538H146.844V420.79Z" fill="#FD5D07"/>
<path d="M155.987 420.79H149.977V423.538H155.987V420.79Z" fill="#FD5D07"/>
<path d="M165.173 420.79H159.162V423.538H165.173V420.79Z" fill="#FD5D07"/>
<path d="M119.329 425.398H113.318V428.147H119.329V425.398Z" fill="#FD5D07"/>
<path d="M128.473 425.398H122.462V428.147H128.473V425.398Z" fill="#FD5D07"/>
<path d="M137.658 425.398H131.647V428.147H137.658V425.398Z" fill="#FD5D07"/>
<path d="M146.844 425.398H140.833V428.147H146.844V425.398Z" fill="#FD5D07"/>
<path d="M155.987 425.398H149.977V428.147H155.987V425.398Z" fill="#FD5D07"/>
<path d="M165.173 425.398H159.162V428.147H165.173V425.398Z" fill="#FD5D07"/>
<path d="M119.329 429.965H113.318V432.713H119.329V429.965Z" fill="#FD5D07"/>
<path d="M128.473 429.965H122.462V432.713H128.473V429.965Z" fill="#FD5D07"/>
<path d="M137.658 429.965H131.647V432.713H137.658V429.965Z" fill="#FD5D07"/>
<path d="M146.844 429.965H140.833V432.713H146.844V429.965Z" fill="#FD5D07"/>
<path d="M155.987 429.965H149.977V432.713H155.987V429.965Z" fill="#FD5D07"/>
<path d="M165.173 429.965H159.162V432.713H165.173V429.965Z" fill="#FD5D07"/>
<path d="M119.329 434.532H113.318V437.281H119.329V434.532Z" fill="#FD5D07"/>
<path d="M128.473 434.532H122.462V437.281H128.473V434.532Z" fill="#FD5D07"/>
<path d="M137.658 434.532H131.647V437.281H137.658V434.532Z" fill="#FD5D07"/>
<path d="M146.844 434.532H140.833V437.281H146.844V434.532Z" fill="#FD5D07"/>
<path d="M155.987 434.532H149.977V437.281H155.987V434.532Z" fill="#FD5D07"/>
<path d="M165.173 434.532H159.162V437.281H165.173V434.532Z" fill="#FD5D07"/>
<path d="M181.089 416.224H175.967V418.549H181.089V416.224Z" fill="white"/>
<path d="M188.92 416.224H183.798V418.549H188.92V416.224Z" fill="white"/>
<path d="M196.709 416.224H191.587V418.549H196.709V416.224Z" fill="white"/>
<path d="M214.022 416.224H208.9V418.549H214.022V416.224Z" fill="white"/>
<path d="M221.811 416.224H216.689V418.549H221.811V416.224Z" fill="white"/>
<path d="M229.642 416.224H224.52V418.549H229.642V416.224Z" fill="white"/>
<path d="M246.912 416.224H241.79V418.549H246.912V416.224Z" fill="white"/>
<path d="M254.701 416.224H249.579V418.549H254.701V416.224Z" fill="white"/>
<path d="M262.532 416.224H257.41V418.549H262.532V416.224Z" fill="white"/>
<path opacity="0.8" d="M263.336 493.347H112.514C108.239 493.347 104.768 489.88 104.768 485.609V461.635C104.768 457.365 108.239 453.897 112.514 453.897H263.336C267.611 453.897 271.083 457.365 271.083 461.635V485.609C271.04 489.88 267.611 493.347 263.336 493.347Z" fill="#FF8C44"/>
<path d="M119.329 463.072H113.318V465.821H119.329V463.072Z" fill="#FD5D07"/>
<path d="M128.473 463.072H122.462V465.821H128.473V463.072Z" fill="#FD5D07"/>
<path d="M137.658 463.072H131.647V465.821H137.658V463.072Z" fill="#FD5D07"/>
<path d="M146.844 463.072H140.833V465.821H146.844V463.072Z" fill="#FD5D07"/>
<path d="M155.987 463.072H149.977V465.821H155.987V463.072Z" fill="#FD5D07"/>
<path d="M165.173 463.072H159.162V465.821H165.173V463.072Z" fill="#FD5D07"/>
<path d="M119.329 467.681H113.318V470.429H119.329V467.681Z" fill="#FD5D07"/>
<path d="M128.473 467.681H122.462V470.429H128.473V467.681Z" fill="#FD5D07"/>
<path d="M137.658 467.681H131.647V470.429H137.658V467.681Z" fill="#FD5D07"/>
<path d="M146.844 467.681H140.833V470.429H146.844V467.681Z" fill="#FD5D07"/>
<path d="M155.987 467.681H149.977V470.429H155.987V467.681Z" fill="#FD5D07"/>
<path d="M165.173 467.681H159.162V470.429H165.173V467.681Z" fill="#FD5D07"/>
<path d="M119.329 472.247H113.318V474.995H119.329V472.247Z" fill="#FD5D07"/>
<path d="M128.473 472.247H122.462V474.995H128.473V472.247Z" fill="#FD5D07"/>
<path d="M137.658 472.247H131.647V474.995H137.658V472.247Z" fill="#FD5D07"/>
<path d="M146.844 472.247H140.833V474.995H146.844V472.247Z" fill="#FD5D07"/>
<path d="M155.987 472.247H149.977V474.995H155.987V472.247Z" fill="#FD5D07"/>
<path d="M165.173 472.247H159.162V474.995H165.173V472.247Z" fill="#FD5D07"/>
<path d="M119.329 476.813H113.318V479.562H119.329V476.813Z" fill="#FD5D07"/>
<path d="M128.473 476.813H122.462V479.562H128.473V476.813Z" fill="#FD5D07"/>
<path d="M137.658 476.813H131.647V479.562H137.658V476.813Z" fill="#FD5D07"/>
<path d="M146.844 476.813H140.833V479.562H146.844V476.813Z" fill="#FD5D07"/>
<path d="M155.987 476.813H149.977V479.562H155.987V476.813Z" fill="#FD5D07"/>
<path d="M165.173 476.813H159.162V479.562H165.173V476.813Z" fill="#FD5D07"/>
<path d="M119.329 481.423H113.318V484.171H119.329V481.423Z" fill="#FD5D07"/>
<path d="M128.473 481.423H122.462V484.171H128.473V481.423Z" fill="#FD5D07"/>
<path d="M137.658 481.423H131.647V484.171H137.658V481.423Z" fill="#FD5D07"/>
<path d="M146.844 481.423H140.833V484.171H146.844V481.423Z" fill="#FD5D07"/>
<path d="M155.987 481.423H149.977V484.171H155.987V481.423Z" fill="#FD5D07"/>
<path d="M165.173 481.423H159.162V484.171H165.173V481.423Z" fill="#FD5D07"/>
<path d="M181.089 463.072H175.967V465.398H181.089V463.072Z" fill="white"/>
<path d="M188.92 463.072H183.798V465.398H188.92V463.072Z" fill="white"/>
<path d="M196.709 463.072H191.587V465.398H196.709V463.072Z" fill="white"/>
<path d="M214.022 463.072H208.9V465.398H214.022V463.072Z" fill="white"/>
<path d="M221.811 463.072H216.689V465.398H221.811V463.072Z" fill="white"/>
<path d="M229.642 463.072H224.52V465.398H229.642V463.072Z" fill="white"/>
<path d="M246.912 463.072H241.79V465.398H246.912V463.072Z" fill="white"/>
<path d="M254.701 463.072H249.579V465.398H254.701V463.072Z" fill="white"/>
<path d="M262.532 463.072H257.41V465.398H262.532V463.072Z" fill="white"/>
<path opacity="0.8" d="M263.336 540.195H112.514C108.239 540.195 104.768 536.728 104.768 532.457V508.483C104.768 504.213 108.239 500.746 112.514 500.746H263.336C267.611 500.746 271.083 504.213 271.083 508.483V532.457C271.04 536.728 267.611 540.195 263.336 540.195Z" fill="#FF8C44"/>
<path d="M119.329 509.964H113.318V512.712H119.329V509.964Z" fill="#FD5D07"/>
<path d="M128.473 509.964H122.462V512.712H128.473V509.964Z" fill="#FD5D07"/>
<path d="M137.658 509.964H131.647V512.712H137.658V509.964Z" fill="#FD5D07"/>
<path d="M146.844 509.964H140.833V512.712H146.844V509.964Z" fill="#FD5D07"/>
<path d="M155.987 509.964H149.977V512.712H155.987V509.964Z" fill="#FD5D07"/>
<path d="M165.173 509.964H159.162V512.712H165.173V509.964Z" fill="#FD5D07"/>
<path d="M119.329 514.53H113.318V517.278H119.329V514.53Z" fill="#FD5D07"/>
<path d="M128.473 514.53H122.462V517.278H128.473V514.53Z" fill="#FD5D07"/>
<path d="M137.658 514.53H131.647V517.278H137.658V514.53Z" fill="#FD5D07"/>
<path d="M146.844 514.53H140.833V517.278H146.844V514.53Z" fill="#FD5D07"/>
<path d="M155.987 514.53H149.977V517.278H155.987V514.53Z" fill="#FD5D07"/>
<path d="M165.173 514.53H159.162V517.278H165.173V514.53Z" fill="#FD5D07"/>
<path d="M119.329 519.096H113.318V521.845H119.329V519.096Z" fill="#FD5D07"/>
<path d="M128.473 519.096H122.462V521.845H128.473V519.096Z" fill="#FD5D07"/>
<path d="M137.658 519.096H131.647V521.845H137.658V519.096Z" fill="#FD5D07"/>
<path d="M146.844 519.096H140.833V521.845H146.844V519.096Z" fill="#FD5D07"/>
<path d="M155.987 519.096H149.977V521.845H155.987V519.096Z" fill="#FD5D07"/>
<path d="M165.173 519.096H159.162V521.845H165.173V519.096Z" fill="#FD5D07"/>
<path d="M119.329 523.663H113.318V526.411H119.329V523.663Z" fill="#FD5D07"/>
<path d="M128.473 523.663H122.462V526.411H128.473V523.663Z" fill="#FD5D07"/>
<path d="M137.658 523.663H131.647V526.411H137.658V523.663Z" fill="#FD5D07"/>
<path d="M146.844 523.663H140.833V526.411H146.844V523.663Z" fill="#FD5D07"/>
<path d="M155.987 523.663H149.977V526.411H155.987V523.663Z" fill="#FD5D07"/>
<path d="M165.173 523.663H159.162V526.411H165.173V523.663Z" fill="#FD5D07"/>
<path d="M119.329 528.272H113.318V531.021H119.329V528.272Z" fill="#FD5D07"/>
<path d="M128.473 528.272H122.462V531.021H128.473V528.272Z" fill="#FD5D07"/>
<path d="M137.658 528.272H131.647V531.021H137.658V528.272Z" fill="#FD5D07"/>
<path d="M146.844 528.272H140.833V531.021H146.844V528.272Z" fill="#FD5D07"/>
<path d="M155.987 528.272H149.977V531.021H155.987V528.272Z" fill="#FD5D07"/>
<path d="M165.173 528.272H159.162V531.021H165.173V528.272Z" fill="#FD5D07"/>
<path d="M181.089 509.964H175.967V512.289H181.089V509.964Z" fill="white"/>
<path d="M188.92 509.964H183.798V512.289H188.92V509.964Z" fill="white"/>
<path d="M196.709 509.964H191.587V512.289H196.709V509.964Z" fill="white"/>
<path d="M214.022 509.964H208.9V512.289H214.022V509.964Z" fill="white"/>
<path d="M221.811 509.964H216.689V512.289H221.811V509.964Z" fill="white"/>
<path d="M229.642 509.964H224.52V512.289H229.642V509.964Z" fill="white"/>
<path d="M246.912 509.964H241.79V512.289H246.912V509.964Z" fill="white"/>
<path d="M254.701 509.964H249.579V512.289H254.701V509.964Z" fill="white"/>
<path d="M262.532 509.964H257.41V512.289H262.532V509.964Z" fill="white"/>
<path d="M421.184 422.779C418.306 426.838 416.909 431.573 415.724 435.928C414.708 439.649 413.861 443.159 412.38 445.822C409.163 451.615 403.109 454.194 397.988 450.22C394.22 447.26 394.897 442.736 397.437 437.873C398.326 436.182 399.469 434.449 400.697 432.715C404.083 428.022 406.454 423.582 406.75 418.931C406.877 417.113 406.665 415.21 406.073 413.265L416.401 407.726C416.401 407.726 418.348 409.164 420.041 411.405C422.285 414.365 424.147 418.551 421.184 422.779Z" fill="#645C52"/>
<path d="M415.724 435.929C414.708 439.65 413.861 443.159 412.38 445.823C409.163 451.616 403.109 454.195 397.988 450.22C394.22 447.261 394.897 442.736 397.437 437.874C397.691 442.144 397.988 445.358 401.67 446.584C406.2 448.106 413.523 440.326 414.539 436.648C414.835 435.675 415.258 435.591 415.724 435.929Z" fill="#756D65"/>
<path d="M421.184 422.778C415.893 430.305 415.596 440.072 412.379 445.822C409.162 451.615 403.109 454.194 397.987 450.219C397.014 449.458 396.336 448.613 395.955 447.682C396.336 448.19 396.802 448.655 397.352 449.12C402.432 453.095 408.527 450.515 411.744 444.723C414.962 438.972 415.258 429.205 420.549 421.679C422.835 418.466 422.285 415.252 420.93 412.631C422.666 415.379 423.766 419.057 421.184 422.778Z" fill="#99928C"/>
<path d="M378.981 424.301C375.595 427.938 373.563 432.42 371.827 436.605C370.346 440.157 369.034 443.54 367.213 445.95C363.277 451.235 356.885 453.011 352.398 448.402C349.054 444.977 350.324 440.58 353.499 436.098C354.599 434.534 355.954 432.969 357.393 431.447C361.372 427.219 364.335 423.16 365.224 418.593C365.605 416.775 365.647 414.915 365.309 412.928L376.272 408.826C376.272 408.826 378.008 410.517 379.405 412.97C381.225 416.099 382.495 420.496 378.981 424.301Z" fill="#645C52"/>
<path d="M371.827 436.605C370.346 440.157 369.034 443.539 367.213 445.949C363.277 451.235 356.885 453.01 352.398 448.402C349.054 444.977 350.324 440.58 353.499 436.098C353.202 440.368 353.075 443.582 356.546 445.315C360.822 447.429 369.118 440.664 370.6 437.197C370.981 436.267 371.404 436.224 371.827 436.605Z" fill="#756D65"/>
<path d="M378.981 424.302C372.716 431.067 371.15 440.665 367.171 445.992C363.234 451.278 356.842 453.054 352.355 448.445C351.509 447.557 350.958 446.627 350.662 445.654C350.958 446.204 351.382 446.754 351.847 447.261C356.377 451.87 362.726 450.136 366.663 444.809C370.6 439.523 372.208 429.883 378.473 423.118C381.14 420.243 381.055 416.945 380.039 414.196C381.478 417.198 382.071 420.961 378.981 424.302Z" fill="#99928C"/>
<path d="M361.499 279.273C352.229 287.222 337.625 306.08 337.667 325.868C337.709 345.064 356.546 414.069 356.546 414.069C356.546 414.069 360.695 416.31 366.79 416.944C381.733 418.508 387.828 410.094 387.828 410.094C387.828 410.094 372.293 351.364 368.145 333.521C366.198 325.065 379.574 312.972 391.384 300.626C402.474 289.041 408.189 281.134 408.189 281.134C408.189 281.134 380.674 306.714 381.648 325.868C382.622 345.064 400.527 414.069 400.527 414.069C400.527 414.069 404.676 416.31 410.771 416.944C425.714 418.508 426.857 411.743 426.857 411.743C426.857 411.743 412.422 356.1 408.274 338.257C404.168 320.414 420.634 318.342 440.572 305.996C460.509 293.649 471.642 285.362 456.53 242.107C456.53 242.107 421.989 251.875 392.95 242.107C392.95 242.107 374.029 268.618 361.499 279.273Z" fill="url(#paint3_linear_1_17653)"/>
<path d="M403.236 177.797C403.236 177.797 399.172 220.798 376.356 236.146C353.541 251.452 376.06 268.281 376.06 268.281L421.269 236.315L403.236 177.797Z" fill="#FFA56D"/>
<path d="M447.598 150.313C447.598 150.313 439.979 149.679 441.757 136.783C443.323 125.155 430.116 139.362 430.581 142.448C431.767 150.313 427.576 151.835 427.576 151.835L423.809 168.79L440.317 171.623L450.731 159.615L447.598 150.313Z" fill="#EDC1A9"/>
<path d="M463.514 201.009C463.26 210.607 455.81 227.859 461.271 245.152C461.271 245.152 454.583 253.016 421.862 251.494C389.14 249.972 386.728 244.475 386.728 244.475C386.728 244.475 406.454 237.964 403.363 195.005C400.273 152.047 416.232 152.892 427.534 151.878C427.534 151.878 424.105 166.084 435.407 165.239C446.709 164.393 447.556 150.355 447.556 150.355C447.556 150.355 487.6 154.245 487.135 187.31C486.669 220.375 463.514 201.009 463.514 201.009Z" fill="#FD5D07"/>
<path d="M450.223 130.567C448.699 137.586 442.18 144.858 432.614 148.114C421.354 151.962 422.412 127.861 424.994 119.954C428.592 109.13 454.371 111.582 450.223 130.567Z" fill="#FBDBC2"/>
<path d="M421.904 271.24L437.693 253.101H410.855L421.904 271.24Z" fill="url(#paint4_linear_1_17653)"/>
<path d="M436.973 266.758C436.973 266.758 434.264 265.701 431.978 262.149C429.692 258.598 430.708 257.456 430.708 257.456L440.233 258.894L439.047 265.447L436.973 266.758Z" fill="#FF7F00"/>
<path d="M441.588 264.179C436.678 264.94 433.63 266.42 431.429 268.745C429.228 271.071 420.931 274.242 418.222 267.519C415.513 260.796 423.005 263.841 425.418 261.896C425.418 261.896 421.608 260.204 421.608 258.851C421.608 257.498 429.905 260.543 434.688 258.006C439.471 255.426 443.747 260.077 443.747 260.077L441.588 264.179Z" fill="#FBDBC2"/>
<path d="M463.514 201.009L467.24 222.066L430.751 257.414C430.751 257.414 442.646 261.43 436.974 266.716C436.974 266.716 478.372 255.68 484.045 233.862C489.717 212.045 487.219 187.268 487.219 187.268L463.514 201.009Z" fill="#FFA56D"/>
<path d="M422.158 269.422L415.004 232.467C414.707 230.945 413.395 229.846 411.829 229.846H360.821C358.789 229.846 357.266 231.706 357.647 233.693L365.054 270.479C365.308 271.79 366.451 272.72 367.763 272.72H419.364C421.184 272.72 422.496 271.113 422.158 269.422Z" fill="url(#paint5_linear_1_17653)"/>
<path d="M450.561 128.369C448.487 122.238 437.1 114.331 426.349 122.957C418.645 129.045 418.137 109.511 418.137 109.511C418.137 109.511 423.682 112.555 428.338 109.638C436.593 104.479 441.545 105.452 444.297 110.441C444.297 110.441 451.831 110.737 452.593 120.039C453.398 129.383 450.561 128.369 450.561 128.369Z" fill="#645C52"/>
<path d="M452.5 131.942C452.899 130.165 452.262 128.509 451.076 128.243C449.889 127.976 448.604 129.201 448.204 130.978C447.805 132.756 448.442 134.412 449.628 134.678C450.814 134.944 452.1 133.719 452.5 131.942Z" fill="#FBDBC2"/>
<path d="M389.098 254.665C390.407 254.665 391.469 253.605 391.469 252.297C391.469 250.99 390.407 249.93 389.098 249.93C387.789 249.93 386.728 250.99 386.728 252.297C386.728 253.605 387.789 254.665 389.098 254.665Z" fill="#C6C6C6"/>
<path d="M389.098 249.211C389.098 249.211 389.479 247.731 391.13 247.9C391.13 247.9 391.045 249.338 389.098 249.211Z" fill="#C6C6C6"/>
</g>
<defs>
<linearGradient id="paint0_linear_1_17653" x1="189.001" y1="171.989" x2="191.592" y2="230.343" gradientUnits="userSpaceOnUse">
<stop stop-color="#BE5319"/>
<stop offset="1" stop-color="#FF7D30"/>
</linearGradient>
<linearGradient id="paint1_linear_1_17653" x1="190.644" y1="199.475" x2="189.896" y2="260.137" gradientUnits="userSpaceOnUse">
<stop stop-color="white"/>
<stop offset="1" stop-color="#FF8B43"/>
</linearGradient>
<linearGradient id="paint2_linear_1_17653" x1="190.635" y1="274.032" x2="190.635" y2="301.062" gradientUnits="userSpaceOnUse">
<stop stop-color="#FF8B43"/>
<stop offset="1" stop-color="#BE5319"/>
</linearGradient>
<linearGradient id="paint3_linear_1_17653" x1="463.528" y1="329.65" x2="337.665" y2="329.65" gradientUnits="userSpaceOnUse">
<stop stop-color="white"/>
<stop offset="1" stop-color="#DA560C"/>
</linearGradient>
<linearGradient id="paint4_linear_1_17653" x1="413.746" y1="267.363" x2="425.132" y2="251.893" gradientUnits="userSpaceOnUse">
<stop stop-color="white"/>
<stop offset="1" stop-color="#1D1D1B"/>
</linearGradient>
<linearGradient id="paint5_linear_1_17653" x1="404.814" y1="222.195" x2="381.237" y2="268.589" gradientUnits="userSpaceOnUse">
<stop offset="0.00066138" stop-color="#9C9C9B"/>
<stop offset="1" stop-color="#3C3C3B"/>
</linearGradient>
<clipPath id="clip0_1_17653">
<rect width="654" height="584" fill="white"/>
</clipPath>
</defs>
</svg>
