<svg width="63" height="63" viewBox="0 0 63 63" fill="none" xmlns="http://www.w3.org/2000/svg">
<g clip-path="url(#clip0_354_2772)">
<path d="M47.8795 15.4895L22.4258 0.793657C20.8181 -0.134609 19.3613 -0.220864 18.3094 0.390432L11.1249 4.56554C11.1282 4.56357 11.1319 4.56209 11.1354 4.56C10.091 5.16096 9.44275 6.44618 9.43746 8.27614L9.35452 37.5246C9.34406 41.1957 11.926 45.6676 15.1207 47.5121L40.5746 62.2078C42.2285 63.1626 43.7213 63.2244 44.7791 62.5546C44.7497 62.5732 44.721 62.5932 44.6908 62.6109L51.875 58.4359C52.9135 57.8324 53.5573 56.5493 53.5626 54.7255L53.6455 25.477C53.6562 21.805 51.0743 17.334 47.8795 15.4895Z" fill="#3D99E2"/>
<path d="M51.8756 58.4358L44.6914 62.6108C45.7299 62.0073 46.3739 60.7241 46.379 58.9003L53.5632 54.7253C53.558 56.549 52.914 57.8323 51.8756 58.4358Z" fill="#5AAAE7"/>
<path d="M11.125 4.56553L18.3092 0.390554C19.3611 -0.220742 20.8179 -0.134487 22.4256 0.793779L15.2414 4.96876C13.6337 4.04049 12.1771 3.95411 11.125 4.56553Z" fill="#78BAEC"/>
<path d="M46.4618 29.652L53.6461 25.4769L53.5631 54.7254L46.3789 58.9003L46.4618 29.652Z" fill="#78BAEC"/>
<path d="M15.2412 4.96876L22.4256 0.793655L47.8793 15.4895L40.6951 19.6645L15.2412 4.96876Z" fill="#97C7EF"/>
<path d="M40.6953 19.6645L47.8795 15.4895C51.0744 17.334 53.6561 21.8051 53.6457 25.477L46.4615 29.652C46.472 25.9801 43.8901 21.5091 40.6953 19.6645Z" fill="#B3D8F5"/>
<path d="M27.5349 45.9781C26.4795 45.3687 25.4637 44.6051 24.5024 43.7252L27.7551 34.8309L31.0258 47.1219C31.0461 47.1967 31.0723 47.2651 31.1012 47.3343C29.9832 47.1415 28.7838 46.6991 27.5349 45.9781ZM22.853 42.0354C19.2757 37.9703 16.8188 32.3222 16.8326 27.4434C16.8377 25.6543 17.1755 24.1495 17.7759 22.9597L22.853 42.0354ZM32.9372 47.42L36.2452 38.4192C36.8635 37.0124 37.0723 35.7249 37.0758 34.4743C37.077 34.0194 37.0504 33.5835 37.006 33.1616C37.8397 35.4044 38.3097 37.6938 38.3037 39.8396C38.2909 44.3905 36.1331 47.1234 32.9372 47.42ZM19.3093 22.1024C19.107 21.9856 18.8705 21.8429 18.6188 21.6877C20.5467 19.4474 23.8526 19.1403 27.6047 21.3067C30.4 22.9205 32.9402 25.6176 34.8436 28.7316C34.7981 28.7007 34.7518 28.6679 34.7062 28.6416C33.6494 28.0315 32.8997 28.6543 32.8965 29.7889C32.8937 30.8064 33.4006 31.9594 33.9417 33.2893C34.3471 34.3456 34.8212 35.678 34.8169 37.2036C34.8139 38.2591 34.5372 39.4304 33.9894 40.7182L32.9066 44.21L29.0637 28.7129C29.7134 29.0469 30.2918 29.304 30.2918 29.304C30.8606 29.5533 30.8085 28.5821 30.2611 28.2661C30.2504 28.2599 30.2397 28.254 30.2286 28.2485C30.2286 28.2485 28.4875 27.4014 27.3654 26.7536C26.3108 26.1446 24.5401 24.9642 24.5401 24.9642C24.5294 24.9575 24.5191 24.9509 24.5088 24.945C23.9578 24.6268 23.9004 25.5744 24.4673 25.9413C24.4673 25.9413 25.0149 26.3342 25.5931 26.7092L27.2507 32.9395L24.8785 39.6778L21.0062 24.0611C21.6559 24.3951 22.2357 24.653 22.2357 24.653C22.8037 24.902 22.7524 23.9311 22.2056 23.6154C22.1949 23.6092 22.1842 23.6035 22.1731 23.5978C22.1731 23.5978 20.4321 22.7506 19.3093 22.1024ZM27.6089 19.1294C20.6344 15.1026 14.9612 18.335 14.9385 26.3497C14.9158 34.3646 20.5522 44.1266 27.5266 48.1532C34.5018 52.1802 40.175 48.948 40.1976 40.9331C40.2205 32.9182 34.584 23.1564 27.6089 19.1294Z" fill="white"/>
</g>
<defs>
<clipPath id="clip0_354_2772">
<rect width="63" height="63" fill="white"/>
</clipPath>
</defs>
</svg>
