<svg width="67" height="67" viewBox="0 0 67 67" fill="none" xmlns="http://www.w3.org/2000/svg">
<g clip-path="url(#clip0_354_2798)">
<path d="M12.4919 4.8274L19.2025 0.9827C19.496 0.768589 19.8108 0.587969 20.1452 0.44257L20.244 0.386617L20.2483 0.39499C22.0537 -0.338916 24.3857 -0.074035 26.9296 1.39431L47.5989 13.3262C53.2819 16.6071 57.9316 24.6614 57.9316 31.2244V55.0887C57.9316 58.2891 56.8204 60.5587 55.028 61.6721L55.0453 61.7034L47.5873 65.9292L43.3935 58.6271L26.9296 49.1228C21.2476 45.8414 16.5968 37.7871 16.5968 31.2246V11.9734L12.4919 4.8274Z" fill="#822599"/>
<path d="M12.492 4.8274L19.6752 3.14242C19.9688 2.92884 21.4355 2.93402 21.7701 2.78756L22.3029 2.57505L23.2613 2.39655C25.0667 1.66265 24.3857 -0.0745671 26.9296 1.39364L47.5989 13.3261C53.2819 16.607 57.9316 24.6612 57.9316 31.2242V55.0886C57.9316 58.2889 56.8204 60.5586 55.028 61.6719L55.0453 61.7033L47.5873 65.929L43.3935 58.6269L26.9296 49.1227C21.2476 45.8412 16.5968 37.787 16.5968 31.2245V11.9734L12.492 4.8274Z" fill="#701F84"/>
<path d="M57.538 27.7861C57.7888 28.9545 57.9316 30.1113 57.9316 31.2241V55.0884C57.9316 58.2888 56.8204 60.5584 55.028 61.6718L55.0453 61.7032L47.5873 65.9289L43.3935 58.6268L26.9296 49.1226C25.9643 48.5651 25.031 47.861 24.1438 47.0576L57.538 27.7861Z" fill="#611972"/>
<path d="M40.4953 17.445C46.1783 20.7259 50.8291 28.7806 50.8291 35.3431V59.208C50.8291 65.7705 46.1783 68.4552 40.4953 65.1732L19.8276 53.2413C14.1445 49.9604 9.49376 41.9062 9.49376 35.3431V11.4788C9.49376 4.91645 14.1445 2.23215 19.8276 5.51359L40.4953 17.445Z" fill="#AC42C6"/>
<path d="M9.49376 11.4788C9.49376 4.91645 14.1445 2.23215 19.8276 5.51359L40.4953 17.445C46.1783 20.7259 50.8291 28.7806 50.8291 35.3431V59.208C50.8291 65.7705 46.1783 68.4552 40.4953 65.1732" fill="#9F3DB7"/>
<path opacity="0.5" d="M44.9014 66.5698C43.5629 66.532 42.069 66.0824 40.4955 65.1737L24.1441 55.7339V35.3741L44.9014 45.3075V66.5698Z" fill="#C75CE0"/>
<path d="M45.0861 67H45.0871C48.834 67 51.2549 63.9416 51.2549 59.208V35.3431C51.2549 28.6283 46.5245 20.4333 40.7096 17.076L20.0409 5.14411C18.3653 4.17682 16.7489 3.6868 15.2367 3.6868C11.49 3.6868 9.06789 6.74576 9.06789 11.4788V35.3437C9.06789 42.059 13.7993 50.2534 19.6142 53.6108L40.283 65.5427C41.9584 66.5096 43.5739 67 45.0861 67ZM15.2361 4.53886C16.597 4.53886 18.07 4.99061 19.6136 5.88094L40.2828 17.8139C45.8628 21.0357 50.4031 28.8995 50.4031 35.343V59.2079C50.4031 63.4886 48.3663 66.1477 45.087 66.1477H45.0859C43.725 66.1477 42.253 65.6959 40.7095 64.8056L20.0407 52.8726C14.4608 49.6514 9.92048 41.7871 9.92048 35.3435V11.4788C9.91995 7.19804 11.9567 4.53886 15.2361 4.53886Z" fill="#C75CE0"/>
<path d="M15.0231 25.9604L18.449 23.9913L18.4506 24.0033C19.231 23.6066 20.1722 23.4972 21.217 23.7201C21.228 22.6691 21.3928 21.7489 21.6771 20.961L20.3507 20.3208L23.6992 18.396C23.7118 18.3887 23.7243 18.3814 23.7364 18.3741L23.7761 18.3517L23.7772 18.3559C25.2926 17.5299 27.3554 17.6665 29.6241 18.9762C34.1106 21.5667 37.7945 27.8072 38.015 33.0553C41.8278 35.4386 44.9014 40.8609 44.9014 45.3071C44.9014 47.5327 44.1277 49.1115 42.8804 49.8841L42.8888 49.8873L42.817 49.9281C42.7992 49.9386 42.7814 49.9486 42.763 49.9589L39.3817 51.903L39.1916 50.2384L39.2476 50.1401C38.755 49.9799 38.2446 49.7559 37.7211 49.4534L23.3588 41.1615C19.4088 38.8808 16.1771 33.2842 16.1771 28.7228C16.1771 27.9497 16.2749 27.2598 16.4482 26.6479L15.0231 25.9604Z" fill="#B2CECD"/>
<path d="M23.6762 41.3444L38.0264 33.0635C41.8334 35.4504 44.9014 40.8655 44.9014 45.3075C44.9014 47.5331 44.1277 49.1119 42.8804 49.8845L42.8888 49.8877L42.817 49.9285C42.7992 49.939 42.7814 49.949 42.763 49.9593L39.3817 51.9034L39.1916 50.2388L39.247 50.14C38.7545 49.9798 38.2441 49.7557 37.7206 49.4532L23.6762 41.3444Z" fill="#9FBFBD"/>
<path d="M37.6116 52.6388C40.2277 52.6383 41.918 50.5053 41.918 47.2034C41.918 42.7023 38.9009 37.28 35.0237 34.7726C34.728 29.4062 31.0021 23.2087 26.4827 20.5987C25.1249 19.8145 23.8158 19.4178 22.5909 19.4178C19.7 19.4178 17.7726 21.6896 17.6113 25.2406C17.3591 25.2033 17.1099 25.1851 16.8685 25.1851C14.2519 25.1851 12.561 27.3181 12.561 30.6195C12.561 35.2924 15.8535 40.9947 19.9008 43.3309L34.2635 51.6233C35.4303 52.297 36.5572 52.6388 37.6116 52.6388Z" fill="white"/>
<path d="M22.5902 19.734C19.8536 19.734 17.9556 21.8937 17.9163 25.6164C17.5541 25.5395 17.2034 25.5008 16.8678 25.5008C14.5071 25.5008 12.877 27.3799 12.877 30.619C12.877 35.1798 16.1087 40.7765 20.0587 43.0571L34.4212 51.3495C35.5659 52.0106 36.649 52.3232 37.6116 52.3232C39.9713 52.3232 41.6018 50.443 41.6018 47.2039C41.6018 42.7578 38.5286 37.3349 34.7154 34.9521C34.4951 29.7046 30.8111 23.4636 26.3246 20.873C24.9845 20.0993 23.7167 19.7335 22.5902 19.734ZM22.5902 19.1016C23.8705 19.1011 25.2335 19.5131 26.6395 20.3249C31.1982 22.9574 34.9628 29.17 35.3287 34.5961C39.2225 37.1934 42.2334 42.6581 42.2334 47.2038C42.2334 50.6977 40.4186 52.9554 37.6108 52.9554C36.5001 52.9554 35.3202 52.599 34.1047 51.897L19.7429 43.6051C15.6088 41.2182 12.245 35.3932 12.245 30.6195C12.245 27.1266 14.0599 24.8695 16.8682 24.8695C17.0153 24.8695 17.1644 24.8757 17.3157 24.8883C17.5897 21.3483 19.6071 19.1016 22.5902 19.1016Z" fill="#D0E2E0"/>
<path d="M17.9167 25.6165C17.9721 20.3617 21.7311 18.2207 26.3243 20.8726C30.8108 23.4631 34.4947 29.7042 34.7152 34.9517C38.5285 37.335 41.6016 42.7573 41.6016 47.2035C41.6016 51.7643 38.3704 53.6298 34.4209 51.3493" fill="#EDF4F3"/>
</g>
<defs>
<clipPath id="clip0_354_2798">
<rect width="67" height="67" fill="white" transform="matrix(-1 0 0 1 67 0)"/>
</clipPath>
</defs>
</svg>
