<svg width="86" height="86" viewBox="0 0 86 86" fill="none" xmlns="http://www.w3.org/2000/svg">
<g clip-path="url(#clip0_354_2746)">
<path d="M16.0351 6.19599L24.6486 1.26171C25.0254 0.986884 25.4294 0.755046 25.8586 0.567733L25.9855 0.495913L25.991 0.50666C28.3083 -0.435363 31.3016 -0.094686 34.5669 1.78987L61.0975 17.1047C68.3921 21.3166 74.3604 31.6549 74.3604 40.0783V70.7106C74.3604 74.8185 72.934 77.7311 70.6334 79.1609L70.6555 79.2011L61.0826 84.6245L55.6995 75.2524L34.5669 63.0523C27.2737 58.841 21.3041 48.5028 21.3041 40.0786V15.3685L16.0351 6.19599Z" fill="#3B66ED"/>
<path d="M16.0352 6.196L25.2554 4.0332C25.6322 3.75906 27.5149 3.76571 27.9443 3.5784L28.6275 3.30493L29.8583 3.07651C32.1757 2.13448 31.3016 -0.0953598 34.5669 1.7892L61.0975 17.1047C68.3921 21.3167 74.3604 31.6549 74.3604 40.0783V70.7106C74.3604 74.8185 72.934 77.7311 70.6334 79.1609L70.6555 79.2011L61.0826 84.6245L55.6995 75.2524L34.5669 63.0523C27.2737 58.841 21.3041 48.5028 21.3041 40.0787V15.3685L16.0352 6.196Z" fill="#2A4BD8"/>
<path d="M73.8551 35.6654C74.177 37.1651 74.3604 38.6506 74.3604 40.0783V70.7106C74.3604 74.8185 72.934 77.7311 70.6334 79.1609L70.6555 79.2011L61.0826 84.6245L55.6995 75.2524L34.5669 63.0523C33.3279 62.3373 32.13 61.433 30.9911 60.4018L73.8551 35.6654Z" fill="#1A40BA"/>
<path d="M51.9789 22.3917C59.2735 26.6037 65.2432 36.9419 65.2432 45.3654V75.9977C65.2432 84.4212 59.2735 87.8672 51.9789 83.6552L25.4504 68.339C18.1558 64.1277 12.1862 53.7902 12.1862 45.3654V14.7343C12.1862 6.3103 18.1558 2.86548 25.4504 7.07678L51.9789 22.3917Z" fill="#607EFC"/>
<path d="M12.1862 14.7343C12.1862 6.3103 18.1558 2.86548 25.4504 7.07678L51.9789 22.3916C59.2735 26.6036 65.2432 36.9418 65.2432 45.3652V75.9975C65.2432 84.421 59.2735 87.867 51.9789 83.655" fill="#5069FF"/>
<path d="M57.8719 86H57.8733C62.6827 86 65.79 82.0736 65.79 75.9977V45.3654C65.79 36.7464 59.7182 26.2276 52.2544 21.9189L25.7245 6.60269C23.5738 5.3611 21.4991 4.7328 19.558 4.7328C14.7488 4.7328 11.6399 8.65921 11.6399 14.7344V45.3661C11.6399 53.9862 17.7131 64.5046 25.1769 68.8133L51.7068 84.1288C53.8575 85.3698 55.9309 86 57.8719 86ZM19.5574 5.82649C21.3042 5.82649 23.1949 6.40634 25.1762 7.54915L51.7068 22.8653C58.869 27.0014 64.6969 37.0944 64.6969 45.3652V75.9975C64.6969 81.4922 62.0825 84.9053 57.8733 84.9053H57.8719C56.125 84.9053 54.2357 84.3254 52.2544 83.1826L25.7245 67.8665C18.5623 63.7318 12.7344 53.6367 12.7344 45.3659V14.7343C12.7337 9.23974 15.3479 5.82649 19.5574 5.82649Z" fill="#7D9CFF"/>
<path d="M50.1726 73.7006C53.5306 73.7 55.7002 70.9621 55.7002 66.7238C55.7002 60.9463 51.8275 53.9864 46.8509 50.7679C46.4714 43.8798 41.6889 35.9248 35.8878 32.5747C34.1451 31.5682 32.4647 31.059 30.8925 31.059C27.1817 31.059 24.7078 33.9749 24.5008 38.5329C24.177 38.4851 23.8572 38.4618 23.5474 38.4618C20.1887 38.4618 18.0184 41.1996 18.0184 45.4372C18.0184 51.4351 22.2445 58.7545 27.4395 61.7532L45.8745 72.3971C47.3728 73.2619 48.8187 73.7006 50.1726 73.7006Z" fill="white"/>
<path d="M30.8915 31.0597C32.4637 31.0597 34.1441 31.5689 35.8869 32.5754C41.6886 35.9254 46.4704 43.8805 46.85 50.7686C51.8266 53.9869 55.6992 60.947 55.6992 66.7245C55.6992 70.9628 53.5298 73.7006 50.1716 73.7013C48.8178 73.7013 47.3718 73.2626 45.8743 72.3978L45.281 72.0551L24.7667 36.5241C25.518 33.1385 27.762 31.0597 30.8915 31.0597Z" fill="#E4F0F2"/>
<path d="M55.2715 47.1425C55.2715 39.8741 50.1161 30.9588 43.8266 27.324C37.5305 23.6891 32.3852 26.6609 32.3852 33.9306C32.3852 41.195 37.5319 50.1142 43.8266 53.7477C50.1163 57.3839 55.2715 54.4083 55.2715 47.1425Z" fill="#F9B835"/>
<path d="M43.8265 53.7477C37.5317 50.1142 32.385 41.195 32.385 33.9306C32.385 32.9625 32.479 32.0735 32.6518 31.2625C33.6972 31.4983 34.7797 31.935 35.887 32.5747C41.6887 35.9247 46.4705 43.8798 46.8501 50.7679C48.4492 51.8019 49.9314 53.225 51.21 54.8684C49.2135 55.6734 46.6336 55.3704 43.8265 53.7477Z" fill="#B5DAE5"/>
</g>
<defs>
<clipPath id="clip0_354_2746">
<rect width="86" height="86" fill="white" transform="matrix(-1 0 0 1 86 0)"/>
</clipPath>
</defs>
</svg>
