<svg width="393" height="328" viewBox="0 0 393 328" fill="none" xmlns="http://www.w3.org/2000/svg">
<path d="M385.718 203.594L213.382 104.094C203.933 98.6403 188.567 98.5968 179.104 104.094L7.96446 203.55C-1.49993 209.054 -1.3736 217.95 8.07535 223.405L180.412 322.905C189.939 328.402 205.226 328.402 214.69 322.905L385.83 223.449C395.294 217.952 395.244 209.092 385.718 203.594ZM382.127 217.065L210.977 316.512C203.856 320.667 191.288 320.653 184.102 316.505L11.7687 217.006C9.04117 215.433 8.31259 213.975 8.31259 213.427C8.31259 212.901 9.0131 211.486 11.6817 209.936L182.817 110.487C186.381 108.409 191.295 107.385 196.222 107.385C201.149 107.385 206.092 108.416 209.684 110.494L382.024 209.994C384.578 211.465 385.501 212.937 385.501 213.565C385.503 214.178 384.609 215.621 382.127 217.065Z" fill="white"/>
<path d="M392.269 186.935C392.269 190.333 390.12 193.712 385.48 196.45C385.48 196.45 385.479 196.45 385.479 196.45L214.31 295.804L214.307 295.805C209.671 298.54 203.577 299.921 197.456 299.921C191.336 299.921 185.242 298.54 180.605 295.805L180.6 295.803L8.21976 196.332C8.21925 196.332 8.21874 196.332 8.21823 196.331C3.56977 193.59 1.30804 190.208 1.30786 186.812C1.30786 186.812 1.30786 186.812 1.30786 186.812L1.42176 118.006C2.5847 120.368 4.7516 122.567 7.8308 124.386L7.83079 124.386L7.83523 124.388L180.221 223.861C185.047 226.646 191.325 228.024 197.577 228.024C203.828 228.024 210.107 226.646 214.932 223.861L214.933 223.86L386.105 124.388L386.108 124.386C389.143 122.592 391.245 120.48 392.384 118.222L392.269 186.934V186.935Z" stroke="white"/>
<path d="M385.467 104.526C390.141 107.224 392.376 110.676 392.394 114.023C392.413 117.37 390.218 120.819 385.577 123.516L214.437 222.971C209.799 225.666 203.703 227.028 197.573 227.028C191.443 227.028 185.331 225.666 180.661 222.97L8.32511 123.472C3.69144 120.797 1.45482 117.345 1.42714 113.99C1.39948 110.637 3.5761 107.178 8.21544 104.482L179.355 5.02696C183.993 2.33195 190.107 0.980534 196.248 0.985917C202.389 0.9913 208.501 2.35341 213.132 5.02764L213.382 4.59465L213.132 5.02766L385.467 104.526Z" stroke="white"/>
<path d="M385.828 113.736L214.689 213.194C205.224 218.693 189.937 218.693 180.411 213.194L8.07529 113.692C5.58074 112.256 3.83022 110.564 2.6398 108.77C-0.817751 113.837 1.017 119.828 8.07529 123.907L180.411 223.401C189.937 228.9 205.224 228.9 214.689 223.401L385.828 123.951C392.811 119.888 394.532 114.015 391.173 109.001C389.996 110.726 388.234 112.342 385.828 113.736Z" fill="white"/>
<path d="M257.888 230.463L257.986 256.847L267.616 251.288L267.518 224.902L257.888 230.463Z" fill="white"/>
<path d="M239.175 241.266L239.272 267.652L248.951 262.063L248.854 235.678L239.175 241.266Z" fill="white"/>
<path d="M220.512 252.042L220.609 278.426L230.239 272.867L230.14 246.483L220.512 252.042Z" fill="white"/>
<path d="M337.87 166.457C334.511 168.394 331.814 173.112 331.826 176.97C331.837 180.786 334.55 182.376 337.911 180.437C341.272 178.5 343.967 173.782 343.956 169.966C343.945 166.107 341.231 164.509 337.87 166.457Z" fill="#09E4A8"/>
<path d="M355.902 156.045C352.542 157.982 349.806 162.725 349.815 166.584C349.827 170.4 352.581 171.965 355.942 170.026C359.26 168.114 361.997 163.371 361.986 159.555C361.976 155.696 359.222 154.124 355.902 156.045Z" fill="white"/>
<path d="M373.893 145.658C370.532 147.595 367.837 152.313 367.848 156.171C367.86 159.986 370.572 161.577 373.932 159.638C377.293 157.701 379.99 152.983 379.979 149.167C379.966 145.31 377.252 143.712 373.893 145.658Z" fill="#09E4A8"/>
</svg>
